%TF.GenerationSoftware,KiCad,Pcbnew,6.0.6-3a73a75311~116~ubuntu20.04.1*%
%TF.CreationDate,2022-07-05T17:12:33+08:00*%
%TF.ProjectId,ESP32_MAIN_V5,45535033-325f-44d4-9149-4e5f56352e6b,rev?*%
%TF.SameCoordinates,Original*%
%TF.FileFunction,Legend,Top*%
%TF.FilePolarity,Positive*%
%FSLAX46Y46*%
G04 Gerber Fmt 4.6, Leading zero omitted, Abs format (unit mm)*
G04 Created by KiCad (PCBNEW 6.0.6-3a73a75311~116~ubuntu20.04.1) date 2022-07-05 17:12:33*
%MOMM*%
%LPD*%
G01*
G04 APERTURE LIST*
%ADD10C,0.075000*%
%ADD11C,0.150000*%
%ADD12C,0.120000*%
G04 APERTURE END LIST*
D10*
X141597866Y-39494590D02*
X141431200Y-39256495D01*
X141312152Y-39494590D02*
X141312152Y-38994590D01*
X141502628Y-38994590D01*
X141550247Y-39018400D01*
X141574057Y-39042209D01*
X141597866Y-39089828D01*
X141597866Y-39161257D01*
X141574057Y-39208876D01*
X141550247Y-39232685D01*
X141502628Y-39256495D01*
X141312152Y-39256495D01*
X141764533Y-38994590D02*
X142097866Y-39494590D01*
X142097866Y-38994590D02*
X141764533Y-39494590D01*
X139979447Y-38994590D02*
X140265161Y-38994590D01*
X140122304Y-39494590D02*
X140122304Y-38994590D01*
X140384209Y-38994590D02*
X140717542Y-39494590D01*
X140717542Y-38994590D02*
X140384209Y-39494590D01*
D11*
X185216800Y-52730400D02*
X185216800Y-56083200D01*
X163322000Y-52730400D02*
X185216800Y-52730400D01*
X159207200Y-55981600D02*
X163322000Y-52730400D01*
X145034000Y-56007000D02*
X159207200Y-55981600D01*
D10*
X174617973Y-104530290D02*
X174680473Y-104030290D01*
X174870950Y-104030290D01*
X174915592Y-104054100D01*
X174936426Y-104077909D01*
X174954283Y-104125528D01*
X174945354Y-104196957D01*
X174915592Y-104244576D01*
X174888807Y-104268385D01*
X174838211Y-104292195D01*
X174647735Y-104292195D01*
X175409640Y-104482671D02*
X175382854Y-104506480D01*
X175308450Y-104530290D01*
X175260830Y-104530290D01*
X175192378Y-104506480D01*
X175150711Y-104458861D01*
X175132854Y-104411242D01*
X175120950Y-104316004D01*
X175129878Y-104244576D01*
X175165592Y-104149338D01*
X175195354Y-104101719D01*
X175248926Y-104054100D01*
X175323330Y-104030290D01*
X175370950Y-104030290D01*
X175439402Y-104054100D01*
X175460235Y-104077909D01*
X175817378Y-104268385D02*
X175885830Y-104292195D01*
X175906664Y-104316004D01*
X175924521Y-104363623D01*
X175915592Y-104435052D01*
X175885830Y-104482671D01*
X175859045Y-104506480D01*
X175808450Y-104530290D01*
X175617973Y-104530290D01*
X175680473Y-104030290D01*
X175847140Y-104030290D01*
X175891783Y-104054100D01*
X175912616Y-104077909D01*
X175930473Y-104125528D01*
X175924521Y-104173147D01*
X175894759Y-104220766D01*
X175867973Y-104244576D01*
X175817378Y-104268385D01*
X175650711Y-104268385D01*
X176498926Y-104530290D02*
X176561426Y-104030290D01*
X176680473Y-104030290D01*
X176748926Y-104054100D01*
X176790592Y-104101719D01*
X176808450Y-104149338D01*
X176820354Y-104244576D01*
X176811426Y-104316004D01*
X176775711Y-104411242D01*
X176745950Y-104458861D01*
X176692378Y-104506480D01*
X176617973Y-104530290D01*
X176498926Y-104530290D01*
X177192378Y-104506480D02*
X177141783Y-104530290D01*
X177046545Y-104530290D01*
X177001902Y-104506480D01*
X176984045Y-104458861D01*
X177007854Y-104268385D01*
X177037616Y-104220766D01*
X177088211Y-104196957D01*
X177183450Y-104196957D01*
X177228092Y-104220766D01*
X177245950Y-104268385D01*
X177239997Y-104316004D01*
X176995950Y-104363623D01*
X177406664Y-104506480D02*
X177451307Y-104530290D01*
X177546545Y-104530290D01*
X177597140Y-104506480D01*
X177626902Y-104458861D01*
X177629878Y-104435052D01*
X177612021Y-104387433D01*
X177567378Y-104363623D01*
X177495950Y-104363623D01*
X177451307Y-104339814D01*
X177433450Y-104292195D01*
X177436426Y-104268385D01*
X177466188Y-104220766D01*
X177516783Y-104196957D01*
X177588211Y-104196957D01*
X177632854Y-104220766D01*
X177832259Y-104530290D02*
X177873926Y-104196957D01*
X177894759Y-104030290D02*
X177867973Y-104054100D01*
X177888807Y-104077909D01*
X177915592Y-104054100D01*
X177894759Y-104030290D01*
X177888807Y-104077909D01*
X178326307Y-104196957D02*
X178275711Y-104601719D01*
X178245950Y-104649338D01*
X178219164Y-104673147D01*
X178168569Y-104696957D01*
X178097140Y-104696957D01*
X178052497Y-104673147D01*
X178287616Y-104506480D02*
X178237021Y-104530290D01*
X178141783Y-104530290D01*
X178097140Y-104506480D01*
X178076307Y-104482671D01*
X178058450Y-104435052D01*
X178076307Y-104292195D01*
X178106069Y-104244576D01*
X178132854Y-104220766D01*
X178183450Y-104196957D01*
X178278688Y-104196957D01*
X178323330Y-104220766D01*
X178564402Y-104196957D02*
X178522735Y-104530290D01*
X178558450Y-104244576D02*
X178585235Y-104220766D01*
X178635830Y-104196957D01*
X178707259Y-104196957D01*
X178751902Y-104220766D01*
X178769759Y-104268385D01*
X178737021Y-104530290D01*
X179356069Y-104530290D02*
X179418569Y-104030290D01*
X179394759Y-104220766D02*
X179445354Y-104196957D01*
X179540592Y-104196957D01*
X179585235Y-104220766D01*
X179606069Y-104244576D01*
X179623926Y-104292195D01*
X179606069Y-104435052D01*
X179576307Y-104482671D01*
X179549521Y-104506480D01*
X179498926Y-104530290D01*
X179403688Y-104530290D01*
X179359045Y-104506480D01*
X179802497Y-104196957D02*
X179879878Y-104530290D01*
X180040592Y-104196957D02*
X179879878Y-104530290D01*
X179817378Y-104649338D01*
X179790592Y-104673147D01*
X179739997Y-104696957D01*
X180195354Y-104482671D02*
X180216188Y-104506480D01*
X180189402Y-104530290D01*
X180168569Y-104506480D01*
X180195354Y-104482671D01*
X180189402Y-104530290D01*
X180228092Y-104220766D02*
X180248926Y-104244576D01*
X180222140Y-104268385D01*
X180201307Y-104244576D01*
X180228092Y-104220766D01*
X180222140Y-104268385D01*
X180808450Y-104530290D02*
X180870950Y-104030290D01*
X180989997Y-104030290D01*
X181058450Y-104054100D01*
X181100116Y-104101719D01*
X181117973Y-104149338D01*
X181129878Y-104244576D01*
X181120950Y-104316004D01*
X181085235Y-104411242D01*
X181055473Y-104458861D01*
X181001902Y-104506480D01*
X180927497Y-104530290D01*
X180808450Y-104530290D01*
X181501902Y-104506480D02*
X181451307Y-104530290D01*
X181356069Y-104530290D01*
X181311426Y-104506480D01*
X181293569Y-104458861D01*
X181317378Y-104268385D01*
X181347140Y-104220766D01*
X181397735Y-104196957D01*
X181492973Y-104196957D01*
X181537616Y-104220766D01*
X181555473Y-104268385D01*
X181549521Y-104316004D01*
X181305473Y-104363623D01*
X181954283Y-104506480D02*
X181903688Y-104530290D01*
X181808450Y-104530290D01*
X181763807Y-104506480D01*
X181742973Y-104482671D01*
X181725116Y-104435052D01*
X181742973Y-104292195D01*
X181772735Y-104244576D01*
X181799521Y-104220766D01*
X181850116Y-104196957D01*
X181945354Y-104196957D01*
X181989997Y-104220766D01*
X182237021Y-104530290D02*
X182192378Y-104506480D01*
X182174521Y-104458861D01*
X182228092Y-104030290D01*
X182641783Y-104530290D02*
X182674521Y-104268385D01*
X182656664Y-104220766D01*
X182612021Y-104196957D01*
X182516783Y-104196957D01*
X182466188Y-104220766D01*
X182644759Y-104506480D02*
X182594164Y-104530290D01*
X182475116Y-104530290D01*
X182430473Y-104506480D01*
X182412616Y-104458861D01*
X182418569Y-104411242D01*
X182448330Y-104363623D01*
X182498926Y-104339814D01*
X182617973Y-104339814D01*
X182668569Y-104316004D01*
X182921545Y-104196957D02*
X182879878Y-104530290D01*
X182915592Y-104244576D02*
X182942378Y-104220766D01*
X182992973Y-104196957D01*
X183064402Y-104196957D01*
X183109045Y-104220766D01*
X183126902Y-104268385D01*
X183094164Y-104530290D01*
X183713211Y-104530290D02*
X183775711Y-104030290D01*
X183998926Y-104530290D01*
X184061426Y-104030290D01*
X184492973Y-104196957D02*
X184442378Y-104601719D01*
X184412616Y-104649338D01*
X184385830Y-104673147D01*
X184335235Y-104696957D01*
X184263807Y-104696957D01*
X184219164Y-104673147D01*
X184454283Y-104506480D02*
X184403688Y-104530290D01*
X184308450Y-104530290D01*
X184263807Y-104506480D01*
X184242973Y-104482671D01*
X184225116Y-104435052D01*
X184242973Y-104292195D01*
X184272735Y-104244576D01*
X184299521Y-104220766D01*
X184350116Y-104196957D01*
X184445354Y-104196957D01*
X184489997Y-104220766D01*
X174617973Y-105335290D02*
X174680473Y-104835290D01*
X174870950Y-104835290D01*
X174915592Y-104859100D01*
X174936426Y-104882909D01*
X174954283Y-104930528D01*
X174945354Y-105001957D01*
X174915592Y-105049576D01*
X174888807Y-105073385D01*
X174838211Y-105097195D01*
X174647735Y-105097195D01*
X175117973Y-105335290D02*
X175159640Y-105001957D01*
X175147735Y-105097195D02*
X175177497Y-105049576D01*
X175204283Y-105025766D01*
X175254878Y-105001957D01*
X175302497Y-105001957D01*
X175498926Y-105335290D02*
X175454283Y-105311480D01*
X175433450Y-105287671D01*
X175415592Y-105240052D01*
X175433450Y-105097195D01*
X175463211Y-105049576D01*
X175489997Y-105025766D01*
X175540592Y-105001957D01*
X175612021Y-105001957D01*
X175656664Y-105025766D01*
X175677497Y-105049576D01*
X175695354Y-105097195D01*
X175677497Y-105240052D01*
X175647735Y-105287671D01*
X175620950Y-105311480D01*
X175570354Y-105335290D01*
X175498926Y-105335290D01*
X175921545Y-105001957D02*
X175859045Y-105501957D01*
X175918569Y-105025766D02*
X175969164Y-105001957D01*
X176064402Y-105001957D01*
X176109045Y-105025766D01*
X176129878Y-105049576D01*
X176147735Y-105097195D01*
X176129878Y-105240052D01*
X176100116Y-105287671D01*
X176073330Y-105311480D01*
X176022735Y-105335290D01*
X175927497Y-105335290D01*
X175882854Y-105311480D01*
X176525711Y-105311480D02*
X176475116Y-105335290D01*
X176379878Y-105335290D01*
X176335235Y-105311480D01*
X176317378Y-105263861D01*
X176341188Y-105073385D01*
X176370950Y-105025766D01*
X176421545Y-105001957D01*
X176516783Y-105001957D01*
X176561426Y-105025766D01*
X176579283Y-105073385D01*
X176573330Y-105121004D01*
X176329283Y-105168623D01*
X176760830Y-105335290D02*
X176802497Y-105001957D01*
X176790592Y-105097195D02*
X176820354Y-105049576D01*
X176847140Y-105025766D01*
X176897735Y-105001957D01*
X176945354Y-105001957D01*
X177064402Y-105001957D02*
X177141783Y-105335290D01*
X177302497Y-105001957D02*
X177141783Y-105335290D01*
X177079283Y-105454338D01*
X177052497Y-105478147D01*
X177001902Y-105501957D01*
X177903688Y-105335290D02*
X177859045Y-105311480D01*
X177838211Y-105287671D01*
X177820354Y-105240052D01*
X177838211Y-105097195D01*
X177867973Y-105049576D01*
X177894759Y-105025766D01*
X177945354Y-105001957D01*
X178016783Y-105001957D01*
X178061426Y-105025766D01*
X178082259Y-105049576D01*
X178100116Y-105097195D01*
X178082259Y-105240052D01*
X178052497Y-105287671D01*
X178025711Y-105311480D01*
X177975116Y-105335290D01*
X177903688Y-105335290D01*
X178254878Y-105001957D02*
X178445354Y-105001957D01*
X178284640Y-105335290D02*
X178338211Y-104906719D01*
X178367973Y-104859100D01*
X178418569Y-104835290D01*
X178466188Y-104835290D01*
X178930473Y-105311480D02*
X178998926Y-105335290D01*
X179117973Y-105335290D01*
X179168569Y-105311480D01*
X179195354Y-105287671D01*
X179225116Y-105240052D01*
X179231069Y-105192433D01*
X179213211Y-105144814D01*
X179192378Y-105121004D01*
X179147735Y-105097195D01*
X179055473Y-105073385D01*
X179010830Y-105049576D01*
X178989997Y-105025766D01*
X178972140Y-104978147D01*
X178978092Y-104930528D01*
X179007854Y-104882909D01*
X179034640Y-104859100D01*
X179085235Y-104835290D01*
X179204283Y-104835290D01*
X179272735Y-104859100D01*
X179489997Y-104835290D02*
X179439402Y-105240052D01*
X179457259Y-105287671D01*
X179478092Y-105311480D01*
X179522735Y-105335290D01*
X179617973Y-105335290D01*
X179668569Y-105311480D01*
X179695354Y-105287671D01*
X179725116Y-105240052D01*
X179775711Y-104835290D01*
X179942378Y-104835290D02*
X180228092Y-104835290D01*
X180022735Y-105335290D02*
X180085235Y-104835290D01*
X180332259Y-105335290D02*
X180394759Y-104835290D01*
X180513807Y-104835290D01*
X180582259Y-104859100D01*
X180623926Y-104906719D01*
X180641783Y-104954338D01*
X180653688Y-105049576D01*
X180644759Y-105121004D01*
X180609045Y-105216242D01*
X180579283Y-105263861D01*
X180525711Y-105311480D01*
X180451307Y-105335290D01*
X180332259Y-105335290D01*
X181498926Y-105335290D02*
X181362021Y-105097195D01*
X181213211Y-105335290D02*
X181275711Y-104835290D01*
X181466188Y-104835290D01*
X181510830Y-104859100D01*
X181531664Y-104882909D01*
X181549521Y-104930528D01*
X181540592Y-105001957D01*
X181510830Y-105049576D01*
X181484045Y-105073385D01*
X181433450Y-105097195D01*
X181242973Y-105097195D01*
X181784640Y-105335290D02*
X181739997Y-105311480D01*
X181719164Y-105287671D01*
X181701307Y-105240052D01*
X181719164Y-105097195D01*
X181748926Y-105049576D01*
X181775711Y-105025766D01*
X181826307Y-105001957D01*
X181897735Y-105001957D01*
X181942378Y-105025766D01*
X181963211Y-105049576D01*
X181981069Y-105097195D01*
X181963211Y-105240052D01*
X181933450Y-105287671D01*
X181906664Y-105311480D01*
X181856069Y-105335290D01*
X181784640Y-105335290D01*
X182379878Y-105335290D02*
X182412616Y-105073385D01*
X182394759Y-105025766D01*
X182350116Y-105001957D01*
X182254878Y-105001957D01*
X182204283Y-105025766D01*
X182382854Y-105311480D02*
X182332259Y-105335290D01*
X182213211Y-105335290D01*
X182168569Y-105311480D01*
X182150711Y-105263861D01*
X182156664Y-105216242D01*
X182186426Y-105168623D01*
X182237021Y-105144814D01*
X182356069Y-105144814D01*
X182406664Y-105121004D01*
X182617973Y-105335290D02*
X182659640Y-105001957D01*
X182647735Y-105097195D02*
X182677497Y-105049576D01*
X182704283Y-105025766D01*
X182754878Y-105001957D01*
X182802497Y-105001957D01*
X182998926Y-105335290D02*
X182954283Y-105311480D01*
X182936426Y-105263861D01*
X182989997Y-104835290D01*
X183403688Y-105335290D02*
X183436426Y-105073385D01*
X183418569Y-105025766D01*
X183373926Y-105001957D01*
X183278688Y-105001957D01*
X183228092Y-105025766D01*
X183406664Y-105311480D02*
X183356069Y-105335290D01*
X183237021Y-105335290D01*
X183192378Y-105311480D01*
X183174521Y-105263861D01*
X183180473Y-105216242D01*
X183210235Y-105168623D01*
X183260830Y-105144814D01*
X183379878Y-105144814D01*
X183430473Y-105121004D01*
X183641783Y-105335290D02*
X183704283Y-104835290D01*
X183680473Y-105025766D02*
X183731069Y-105001957D01*
X183826307Y-105001957D01*
X183870950Y-105025766D01*
X183891783Y-105049576D01*
X183909640Y-105097195D01*
X183891783Y-105240052D01*
X183862021Y-105287671D01*
X183835235Y-105311480D01*
X183784640Y-105335290D01*
X183689402Y-105335290D01*
X183644759Y-105311480D01*
X174817378Y-105878385D02*
X174650711Y-105878385D01*
X174617973Y-106140290D02*
X174680473Y-105640290D01*
X174918569Y-105640290D01*
X175260830Y-106140290D02*
X175293569Y-105878385D01*
X175275711Y-105830766D01*
X175231069Y-105806957D01*
X175135830Y-105806957D01*
X175085235Y-105830766D01*
X175263807Y-106116480D02*
X175213211Y-106140290D01*
X175094164Y-106140290D01*
X175049521Y-106116480D01*
X175031664Y-106068861D01*
X175037616Y-106021242D01*
X175067378Y-105973623D01*
X175117973Y-105949814D01*
X175237021Y-105949814D01*
X175287616Y-105926004D01*
X175570354Y-106140290D02*
X175525711Y-106116480D01*
X175507854Y-106068861D01*
X175561426Y-105640290D01*
X175978092Y-106116480D02*
X175927497Y-106140290D01*
X175832259Y-106140290D01*
X175787616Y-106116480D01*
X175766783Y-106092671D01*
X175748926Y-106045052D01*
X175766783Y-105902195D01*
X175796545Y-105854576D01*
X175823330Y-105830766D01*
X175873926Y-105806957D01*
X175969164Y-105806957D01*
X176013807Y-105830766D01*
X176260830Y-106140290D02*
X176216188Y-106116480D01*
X176195354Y-106092671D01*
X176177497Y-106045052D01*
X176195354Y-105902195D01*
X176225116Y-105854576D01*
X176251902Y-105830766D01*
X176302497Y-105806957D01*
X176373926Y-105806957D01*
X176418569Y-105830766D01*
X176439402Y-105854576D01*
X176457259Y-105902195D01*
X176439402Y-106045052D01*
X176409640Y-106092671D01*
X176382854Y-106116480D01*
X176332259Y-106140290D01*
X176260830Y-106140290D01*
X176683450Y-105806957D02*
X176641783Y-106140290D01*
X176677497Y-105854576D02*
X176704283Y-105830766D01*
X176754878Y-105806957D01*
X176826307Y-105806957D01*
X176870950Y-105830766D01*
X176888807Y-105878385D01*
X176856069Y-106140290D01*
X177475116Y-106140290D02*
X177537616Y-105640290D01*
X177659640Y-105997433D01*
X177870950Y-105640290D01*
X177808450Y-106140290D01*
X178046545Y-106140290D02*
X178088211Y-105806957D01*
X178109045Y-105640290D02*
X178082259Y-105664100D01*
X178103092Y-105687909D01*
X178129878Y-105664100D01*
X178109045Y-105640290D01*
X178103092Y-105687909D01*
X178501902Y-106116480D02*
X178451307Y-106140290D01*
X178356069Y-106140290D01*
X178311426Y-106116480D01*
X178290592Y-106092671D01*
X178272735Y-106045052D01*
X178290592Y-105902195D01*
X178320354Y-105854576D01*
X178347140Y-105830766D01*
X178397735Y-105806957D01*
X178492973Y-105806957D01*
X178537616Y-105830766D01*
X178713211Y-106140290D02*
X178754878Y-105806957D01*
X178742973Y-105902195D02*
X178772735Y-105854576D01*
X178799521Y-105830766D01*
X178850116Y-105806957D01*
X178897735Y-105806957D01*
X179094164Y-106140290D02*
X179049521Y-106116480D01*
X179028688Y-106092671D01*
X179010830Y-106045052D01*
X179028688Y-105902195D01*
X179058450Y-105854576D01*
X179085235Y-105830766D01*
X179135830Y-105806957D01*
X179207259Y-105806957D01*
X179251902Y-105830766D01*
X179272735Y-105854576D01*
X179290592Y-105902195D01*
X179272735Y-106045052D01*
X179242973Y-106092671D01*
X179216188Y-106116480D01*
X179165592Y-106140290D01*
X179094164Y-106140290D01*
X179847140Y-105640290D02*
X179951307Y-106140290D01*
X180180473Y-105640290D01*
X180317378Y-105687909D02*
X180344164Y-105664100D01*
X180394759Y-105640290D01*
X180513807Y-105640290D01*
X180558450Y-105664100D01*
X180579283Y-105687909D01*
X180597140Y-105735528D01*
X180591188Y-105783147D01*
X180558450Y-105854576D01*
X180237021Y-106140290D01*
X180546545Y-106140290D01*
D11*
X174091600Y-103581200D02*
X184962800Y-103581200D01*
X184962800Y-103581200D02*
X184962800Y-106578400D01*
X184962800Y-106578400D02*
X174091600Y-106578400D01*
X174091600Y-106578400D02*
X174091600Y-103581200D01*
X167081200Y-81584800D02*
X173431200Y-81584800D01*
X173431200Y-81584800D02*
X173431200Y-106578400D01*
X173431200Y-106578400D02*
X167081200Y-106578400D01*
X167081200Y-106578400D02*
X167081200Y-81584800D01*
D10*
X149612361Y-37216590D02*
X149374266Y-37216590D01*
X149350457Y-37454685D01*
X149374266Y-37430876D01*
X149421885Y-37407066D01*
X149540933Y-37407066D01*
X149588552Y-37430876D01*
X149612361Y-37454685D01*
X149636171Y-37502304D01*
X149636171Y-37621352D01*
X149612361Y-37668971D01*
X149588552Y-37692780D01*
X149540933Y-37716590D01*
X149421885Y-37716590D01*
X149374266Y-37692780D01*
X149350457Y-37668971D01*
X149779028Y-37216590D02*
X149945695Y-37716590D01*
X150112361Y-37216590D01*
X144246647Y-37240400D02*
X144199028Y-37216590D01*
X144127600Y-37216590D01*
X144056171Y-37240400D01*
X144008552Y-37288019D01*
X143984742Y-37335638D01*
X143960933Y-37430876D01*
X143960933Y-37502304D01*
X143984742Y-37597542D01*
X144008552Y-37645161D01*
X144056171Y-37692780D01*
X144127600Y-37716590D01*
X144175219Y-37716590D01*
X144246647Y-37692780D01*
X144270457Y-37668971D01*
X144270457Y-37502304D01*
X144175219Y-37502304D01*
X144484742Y-37716590D02*
X144484742Y-37216590D01*
X144770457Y-37716590D01*
X144770457Y-37216590D01*
X145008552Y-37716590D02*
X145008552Y-37216590D01*
X145127600Y-37216590D01*
X145199028Y-37240400D01*
X145246647Y-37288019D01*
X145270457Y-37335638D01*
X145294266Y-37430876D01*
X145294266Y-37502304D01*
X145270457Y-37597542D01*
X145246647Y-37645161D01*
X145199028Y-37692780D01*
X145127600Y-37716590D01*
X145008552Y-37716590D01*
X147036647Y-37716590D02*
X147036647Y-37216590D01*
X147155695Y-37216590D01*
X147227123Y-37240400D01*
X147274742Y-37288019D01*
X147298552Y-37335638D01*
X147322361Y-37430876D01*
X147322361Y-37502304D01*
X147298552Y-37597542D01*
X147274742Y-37645161D01*
X147227123Y-37692780D01*
X147155695Y-37716590D01*
X147036647Y-37716590D01*
X148365352Y-46282800D02*
X148317733Y-46258990D01*
X148246304Y-46258990D01*
X148174876Y-46282800D01*
X148127257Y-46330419D01*
X148103447Y-46378038D01*
X148079638Y-46473276D01*
X148079638Y-46544704D01*
X148103447Y-46639942D01*
X148127257Y-46687561D01*
X148174876Y-46735180D01*
X148246304Y-46758990D01*
X148293923Y-46758990D01*
X148365352Y-46735180D01*
X148389161Y-46711371D01*
X148389161Y-46544704D01*
X148293923Y-46544704D01*
X148303466Y-44218990D02*
X148136800Y-43980895D01*
X148017752Y-44218990D02*
X148017752Y-43718990D01*
X148208228Y-43718990D01*
X148255847Y-43742800D01*
X148279657Y-43766609D01*
X148303466Y-43814228D01*
X148303466Y-43885657D01*
X148279657Y-43933276D01*
X148255847Y-43957085D01*
X148208228Y-43980895D01*
X148017752Y-43980895D01*
X148470133Y-43718990D02*
X148803466Y-44218990D01*
X148803466Y-43718990D02*
X148470133Y-44218990D01*
X147955047Y-41178990D02*
X148240761Y-41178990D01*
X148097904Y-41678990D02*
X148097904Y-41178990D01*
X148359809Y-41178990D02*
X148693142Y-41678990D01*
X148693142Y-41178990D02*
X148359809Y-41678990D01*
D11*
X185267600Y-76568300D02*
X185216800Y-55981600D01*
X145034000Y-61468000D02*
X145034000Y-76581000D01*
X145034000Y-56007000D02*
X145034000Y-61468000D01*
X145034000Y-76581000D02*
X185039000Y-76581000D01*
X110744000Y-60833000D02*
X127000000Y-60833000D01*
X127000000Y-60833000D02*
X127000000Y-76581000D01*
X127000000Y-76581000D02*
X110744000Y-76581000D01*
X110744000Y-76581000D02*
X110744000Y-60833000D01*
X128625600Y-61468000D02*
X143865600Y-61468000D01*
X143865600Y-61468000D02*
X143865600Y-76581000D01*
X143865600Y-76581000D02*
X128625600Y-76581000D01*
X128625600Y-76581000D02*
X128625600Y-61468000D01*
X166116000Y-38100000D02*
X185039000Y-38100000D01*
X185039000Y-38100000D02*
X185039000Y-51308000D01*
X185039000Y-51308000D02*
X166116000Y-51308000D01*
X166116000Y-51308000D02*
X166116000Y-38100000D01*
D10*
X132584361Y-66528190D02*
X132346266Y-66528190D01*
X132322457Y-66766285D01*
X132346266Y-66742476D01*
X132393885Y-66718666D01*
X132512933Y-66718666D01*
X132560552Y-66742476D01*
X132584361Y-66766285D01*
X132608171Y-66813904D01*
X132608171Y-66932952D01*
X132584361Y-66980571D01*
X132560552Y-67004380D01*
X132512933Y-67028190D01*
X132393885Y-67028190D01*
X132346266Y-67004380D01*
X132322457Y-66980571D01*
X132751028Y-66528190D02*
X132917695Y-67028190D01*
X133084361Y-66528190D01*
X167754323Y-87314885D02*
X168135276Y-87314885D01*
X113530095Y-74910190D02*
X113625333Y-74910190D01*
X113672952Y-74934000D01*
X113720571Y-74981619D01*
X113744380Y-75076857D01*
X113744380Y-75243523D01*
X113720571Y-75338761D01*
X113672952Y-75386380D01*
X113625333Y-75410190D01*
X113530095Y-75410190D01*
X113482476Y-75386380D01*
X113434857Y-75338761D01*
X113411047Y-75243523D01*
X113411047Y-75076857D01*
X113434857Y-74981619D01*
X113482476Y-74934000D01*
X113530095Y-74910190D01*
X113934857Y-75267333D02*
X114172952Y-75267333D01*
X113887238Y-75410190D02*
X114053904Y-74910190D01*
X114220571Y-75410190D01*
X108327047Y-37691190D02*
X108327047Y-37191190D01*
X108446095Y-37191190D01*
X108517523Y-37215000D01*
X108565142Y-37262619D01*
X108588952Y-37310238D01*
X108612761Y-37405476D01*
X108612761Y-37476904D01*
X108588952Y-37572142D01*
X108565142Y-37619761D01*
X108517523Y-37667380D01*
X108446095Y-37691190D01*
X108327047Y-37691190D01*
X169664095Y-42525190D02*
X169759333Y-42525190D01*
X169806952Y-42549000D01*
X169854571Y-42596619D01*
X169878380Y-42691857D01*
X169878380Y-42858523D01*
X169854571Y-42953761D01*
X169806952Y-43001380D01*
X169759333Y-43025190D01*
X169664095Y-43025190D01*
X169616476Y-43001380D01*
X169568857Y-42953761D01*
X169545047Y-42858523D01*
X169545047Y-42691857D01*
X169568857Y-42596619D01*
X169616476Y-42549000D01*
X169664095Y-42525190D01*
X170068857Y-42882333D02*
X170306952Y-42882333D01*
X170021238Y-43025190D02*
X170187904Y-42525190D01*
X170354571Y-43025190D01*
X120896095Y-74910190D02*
X120991333Y-74910190D01*
X121038952Y-74934000D01*
X121086571Y-74981619D01*
X121110380Y-75076857D01*
X121110380Y-75243523D01*
X121086571Y-75338761D01*
X121038952Y-75386380D01*
X120991333Y-75410190D01*
X120896095Y-75410190D01*
X120848476Y-75386380D01*
X120800857Y-75338761D01*
X120777047Y-75243523D01*
X120777047Y-75076857D01*
X120800857Y-74981619D01*
X120848476Y-74934000D01*
X120896095Y-74910190D01*
X121300857Y-75267333D02*
X121538952Y-75267333D01*
X121253238Y-75410190D02*
X121419904Y-74910190D01*
X121586571Y-75410190D01*
X123400380Y-74910190D02*
X123495619Y-74910190D01*
X123543238Y-74934000D01*
X123590857Y-74981619D01*
X123614666Y-75076857D01*
X123614666Y-75243523D01*
X123590857Y-75338761D01*
X123543238Y-75386380D01*
X123495619Y-75410190D01*
X123400380Y-75410190D01*
X123352761Y-75386380D01*
X123305142Y-75338761D01*
X123281333Y-75243523D01*
X123281333Y-75076857D01*
X123305142Y-74981619D01*
X123352761Y-74934000D01*
X123400380Y-74910190D01*
X123995619Y-75148285D02*
X124067047Y-75172095D01*
X124090857Y-75195904D01*
X124114666Y-75243523D01*
X124114666Y-75314952D01*
X124090857Y-75362571D01*
X124067047Y-75386380D01*
X124019428Y-75410190D01*
X123828952Y-75410190D01*
X123828952Y-74910190D01*
X123995619Y-74910190D01*
X124043238Y-74934000D01*
X124067047Y-74957809D01*
X124090857Y-75005428D01*
X124090857Y-75053047D01*
X124067047Y-75100666D01*
X124043238Y-75124476D01*
X123995619Y-75148285D01*
X123828952Y-75148285D01*
X105537047Y-37215000D02*
X105489428Y-37191190D01*
X105418000Y-37191190D01*
X105346571Y-37215000D01*
X105298952Y-37262619D01*
X105275142Y-37310238D01*
X105251333Y-37405476D01*
X105251333Y-37476904D01*
X105275142Y-37572142D01*
X105298952Y-37619761D01*
X105346571Y-37667380D01*
X105418000Y-37691190D01*
X105465619Y-37691190D01*
X105537047Y-37667380D01*
X105560857Y-37643571D01*
X105560857Y-37476904D01*
X105465619Y-37476904D01*
X105775142Y-37691190D02*
X105775142Y-37191190D01*
X106060857Y-37691190D01*
X106060857Y-37191190D01*
X106298952Y-37691190D02*
X106298952Y-37191190D01*
X106418000Y-37191190D01*
X106489428Y-37215000D01*
X106537047Y-37262619D01*
X106560857Y-37310238D01*
X106584666Y-37405476D01*
X106584666Y-37476904D01*
X106560857Y-37572142D01*
X106537047Y-37619761D01*
X106489428Y-37667380D01*
X106418000Y-37691190D01*
X106298952Y-37691190D01*
X103663761Y-41509190D02*
X103425666Y-41509190D01*
X103401857Y-41747285D01*
X103425666Y-41723476D01*
X103473285Y-41699666D01*
X103592333Y-41699666D01*
X103639952Y-41723476D01*
X103663761Y-41747285D01*
X103687571Y-41794904D01*
X103687571Y-41913952D01*
X103663761Y-41961571D01*
X103639952Y-41985380D01*
X103592333Y-42009190D01*
X103473285Y-42009190D01*
X103425666Y-41985380D01*
X103401857Y-41961571D01*
X103830428Y-41509190D02*
X103997095Y-42009190D01*
X104163761Y-41509190D01*
X137378647Y-66528190D02*
X137664361Y-66528190D01*
X137521504Y-67028190D02*
X137521504Y-66528190D01*
X137783409Y-66528190D02*
X138116742Y-67028190D01*
X138116742Y-66528190D02*
X137783409Y-67028190D01*
X167754323Y-92648885D02*
X168135276Y-92648885D01*
X167944800Y-92458409D02*
X167944800Y-92839361D01*
X124686333Y-61799690D02*
X124686333Y-61299690D01*
X124853000Y-61656833D01*
X125019666Y-61299690D01*
X125019666Y-61799690D01*
X125329190Y-61799690D02*
X125281571Y-61775880D01*
X125257761Y-61752071D01*
X125233952Y-61704452D01*
X125233952Y-61561595D01*
X125257761Y-61513976D01*
X125281571Y-61490166D01*
X125329190Y-61466357D01*
X125400619Y-61466357D01*
X125448238Y-61490166D01*
X125472047Y-61513976D01*
X125495857Y-61561595D01*
X125495857Y-61704452D01*
X125472047Y-61752071D01*
X125448238Y-61775880D01*
X125400619Y-61799690D01*
X125329190Y-61799690D01*
X125638714Y-61466357D02*
X125829190Y-61466357D01*
X125710142Y-61299690D02*
X125710142Y-61728261D01*
X125733952Y-61775880D01*
X125781571Y-61799690D01*
X125829190Y-61799690D01*
X126067285Y-61799690D02*
X126019666Y-61775880D01*
X125995857Y-61752071D01*
X125972047Y-61704452D01*
X125972047Y-61561595D01*
X125995857Y-61513976D01*
X126019666Y-61490166D01*
X126067285Y-61466357D01*
X126138714Y-61466357D01*
X126186333Y-61490166D01*
X126210142Y-61513976D01*
X126233952Y-61561595D01*
X126233952Y-61704452D01*
X126210142Y-61752071D01*
X126186333Y-61775880D01*
X126138714Y-61799690D01*
X126067285Y-61799690D01*
X126448238Y-61799690D02*
X126448238Y-61466357D01*
X126448238Y-61561595D02*
X126472047Y-61513976D01*
X126495857Y-61490166D01*
X126543476Y-61466357D01*
X126591095Y-61466357D01*
X167754323Y-95061885D02*
X168135276Y-95061885D01*
X180169380Y-42525190D02*
X180264619Y-42525190D01*
X180312238Y-42549000D01*
X180359857Y-42596619D01*
X180383666Y-42691857D01*
X180383666Y-42858523D01*
X180359857Y-42953761D01*
X180312238Y-43001380D01*
X180264619Y-43025190D01*
X180169380Y-43025190D01*
X180121761Y-43001380D01*
X180074142Y-42953761D01*
X180050333Y-42858523D01*
X180050333Y-42691857D01*
X180074142Y-42596619D01*
X180121761Y-42549000D01*
X180169380Y-42525190D01*
X180764619Y-42763285D02*
X180836047Y-42787095D01*
X180859857Y-42810904D01*
X180883666Y-42858523D01*
X180883666Y-42929952D01*
X180859857Y-42977571D01*
X180836047Y-43001380D01*
X180788428Y-43025190D01*
X180597952Y-43025190D01*
X180597952Y-42525190D01*
X180764619Y-42525190D01*
X180812238Y-42549000D01*
X180836047Y-42572809D01*
X180859857Y-42620428D01*
X180859857Y-42668047D01*
X180836047Y-42715666D01*
X180812238Y-42739476D01*
X180764619Y-42763285D01*
X180597952Y-42763285D01*
X182725333Y-38939690D02*
X182725333Y-38439690D01*
X182892000Y-38796833D01*
X183058666Y-38439690D01*
X183058666Y-38939690D01*
X183368190Y-38939690D02*
X183320571Y-38915880D01*
X183296761Y-38892071D01*
X183272952Y-38844452D01*
X183272952Y-38701595D01*
X183296761Y-38653976D01*
X183320571Y-38630166D01*
X183368190Y-38606357D01*
X183439619Y-38606357D01*
X183487238Y-38630166D01*
X183511047Y-38653976D01*
X183534857Y-38701595D01*
X183534857Y-38844452D01*
X183511047Y-38892071D01*
X183487238Y-38915880D01*
X183439619Y-38939690D01*
X183368190Y-38939690D01*
X183677714Y-38606357D02*
X183868190Y-38606357D01*
X183749142Y-38439690D02*
X183749142Y-38868261D01*
X183772952Y-38915880D01*
X183820571Y-38939690D01*
X183868190Y-38939690D01*
X184106285Y-38939690D02*
X184058666Y-38915880D01*
X184034857Y-38892071D01*
X184011047Y-38844452D01*
X184011047Y-38701595D01*
X184034857Y-38653976D01*
X184058666Y-38630166D01*
X184106285Y-38606357D01*
X184177714Y-38606357D01*
X184225333Y-38630166D01*
X184249142Y-38653976D01*
X184272952Y-38701595D01*
X184272952Y-38844452D01*
X184249142Y-38892071D01*
X184225333Y-38915880D01*
X184177714Y-38939690D01*
X184106285Y-38939690D01*
X184487238Y-38939690D02*
X184487238Y-38606357D01*
X184487238Y-38701595D02*
X184511047Y-38653976D01*
X184534857Y-38630166D01*
X184582476Y-38606357D01*
X184630095Y-38606357D01*
X172168380Y-42525190D02*
X172263619Y-42525190D01*
X172311238Y-42549000D01*
X172358857Y-42596619D01*
X172382666Y-42691857D01*
X172382666Y-42858523D01*
X172358857Y-42953761D01*
X172311238Y-43001380D01*
X172263619Y-43025190D01*
X172168380Y-43025190D01*
X172120761Y-43001380D01*
X172073142Y-42953761D01*
X172049333Y-42858523D01*
X172049333Y-42691857D01*
X172073142Y-42596619D01*
X172120761Y-42549000D01*
X172168380Y-42525190D01*
X172763619Y-42763285D02*
X172835047Y-42787095D01*
X172858857Y-42810904D01*
X172882666Y-42858523D01*
X172882666Y-42929952D01*
X172858857Y-42977571D01*
X172835047Y-43001380D01*
X172787428Y-43025190D01*
X172596952Y-43025190D01*
X172596952Y-42525190D01*
X172763619Y-42525190D01*
X172811238Y-42549000D01*
X172835047Y-42572809D01*
X172858857Y-42620428D01*
X172858857Y-42668047D01*
X172835047Y-42715666D01*
X172811238Y-42739476D01*
X172763619Y-42763285D01*
X172596952Y-42763285D01*
X116034380Y-74910190D02*
X116129619Y-74910190D01*
X116177238Y-74934000D01*
X116224857Y-74981619D01*
X116248666Y-75076857D01*
X116248666Y-75243523D01*
X116224857Y-75338761D01*
X116177238Y-75386380D01*
X116129619Y-75410190D01*
X116034380Y-75410190D01*
X115986761Y-75386380D01*
X115939142Y-75338761D01*
X115915333Y-75243523D01*
X115915333Y-75076857D01*
X115939142Y-74981619D01*
X115986761Y-74934000D01*
X116034380Y-74910190D01*
X116629619Y-75148285D02*
X116701047Y-75172095D01*
X116724857Y-75195904D01*
X116748666Y-75243523D01*
X116748666Y-75314952D01*
X116724857Y-75362571D01*
X116701047Y-75386380D01*
X116653428Y-75410190D01*
X116462952Y-75410190D01*
X116462952Y-74910190D01*
X116629619Y-74910190D01*
X116677238Y-74934000D01*
X116701047Y-74957809D01*
X116724857Y-75005428D01*
X116724857Y-75053047D01*
X116701047Y-75100666D01*
X116677238Y-75124476D01*
X116629619Y-75148285D01*
X116462952Y-75148285D01*
X110902761Y-37191190D02*
X110664666Y-37191190D01*
X110640857Y-37429285D01*
X110664666Y-37405476D01*
X110712285Y-37381666D01*
X110831333Y-37381666D01*
X110878952Y-37405476D01*
X110902761Y-37429285D01*
X110926571Y-37476904D01*
X110926571Y-37595952D01*
X110902761Y-37643571D01*
X110878952Y-37667380D01*
X110831333Y-37691190D01*
X110712285Y-37691190D01*
X110664666Y-37667380D01*
X110640857Y-37643571D01*
X111069428Y-37191190D02*
X111236095Y-37691190D01*
X111402761Y-37191190D01*
X167754323Y-84901885D02*
X168135276Y-84901885D01*
X167944800Y-84711409D02*
X167944800Y-85092361D01*
X102997047Y-43946000D02*
X102949428Y-43922190D01*
X102878000Y-43922190D01*
X102806571Y-43946000D01*
X102758952Y-43993619D01*
X102735142Y-44041238D01*
X102711333Y-44136476D01*
X102711333Y-44207904D01*
X102735142Y-44303142D01*
X102758952Y-44350761D01*
X102806571Y-44398380D01*
X102878000Y-44422190D01*
X102925619Y-44422190D01*
X102997047Y-44398380D01*
X103020857Y-44374571D01*
X103020857Y-44207904D01*
X102925619Y-44207904D01*
X103235142Y-44422190D02*
X103235142Y-43922190D01*
X103520857Y-44422190D01*
X103520857Y-43922190D01*
X103758952Y-44422190D02*
X103758952Y-43922190D01*
X103878000Y-43922190D01*
X103949428Y-43946000D01*
X103997047Y-43993619D01*
X104020857Y-44041238D01*
X104044666Y-44136476D01*
X104044666Y-44207904D01*
X104020857Y-44303142D01*
X103997047Y-44350761D01*
X103949428Y-44398380D01*
X103878000Y-44422190D01*
X103758952Y-44422190D01*
X154921828Y-48783085D02*
X154993257Y-48806895D01*
X155017066Y-48830704D01*
X155040876Y-48878323D01*
X155040876Y-48949752D01*
X155017066Y-48997371D01*
X154993257Y-49021180D01*
X154945638Y-49044990D01*
X154755161Y-49044990D01*
X154755161Y-48544990D01*
X154921828Y-48544990D01*
X154969447Y-48568800D01*
X154993257Y-48592609D01*
X155017066Y-48640228D01*
X155017066Y-48687847D01*
X154993257Y-48735466D01*
X154969447Y-48759276D01*
X154921828Y-48783085D01*
X154755161Y-48783085D01*
X155350400Y-48544990D02*
X155445638Y-48544990D01*
X155493257Y-48568800D01*
X155540876Y-48616419D01*
X155564685Y-48711657D01*
X155564685Y-48878323D01*
X155540876Y-48973561D01*
X155493257Y-49021180D01*
X155445638Y-49044990D01*
X155350400Y-49044990D01*
X155302780Y-49021180D01*
X155255161Y-48973561D01*
X155231352Y-48878323D01*
X155231352Y-48711657D01*
X155255161Y-48616419D01*
X155302780Y-48568800D01*
X155350400Y-48544990D01*
X155874209Y-48544990D02*
X155969447Y-48544990D01*
X156017066Y-48568800D01*
X156064685Y-48616419D01*
X156088495Y-48711657D01*
X156088495Y-48878323D01*
X156064685Y-48973561D01*
X156017066Y-49021180D01*
X155969447Y-49044990D01*
X155874209Y-49044990D01*
X155826590Y-49021180D01*
X155778971Y-48973561D01*
X155755161Y-48878323D01*
X155755161Y-48711657D01*
X155778971Y-48616419D01*
X155826590Y-48568800D01*
X155874209Y-48544990D01*
X156231352Y-48544990D02*
X156517066Y-48544990D01*
X156374209Y-49044990D02*
X156374209Y-48544990D01*
X139918647Y-66552000D02*
X139871028Y-66528190D01*
X139799600Y-66528190D01*
X139728171Y-66552000D01*
X139680552Y-66599619D01*
X139656742Y-66647238D01*
X139632933Y-66742476D01*
X139632933Y-66813904D01*
X139656742Y-66909142D01*
X139680552Y-66956761D01*
X139728171Y-67004380D01*
X139799600Y-67028190D01*
X139847219Y-67028190D01*
X139918647Y-67004380D01*
X139942457Y-66980571D01*
X139942457Y-66813904D01*
X139847219Y-66813904D01*
X140156742Y-67028190D02*
X140156742Y-66528190D01*
X140442457Y-67028190D01*
X140442457Y-66528190D01*
X140680552Y-67028190D02*
X140680552Y-66528190D01*
X140799600Y-66528190D01*
X140871028Y-66552000D01*
X140918647Y-66599619D01*
X140942457Y-66647238D01*
X140966266Y-66742476D01*
X140966266Y-66813904D01*
X140942457Y-66909142D01*
X140918647Y-66956761D01*
X140871028Y-67004380D01*
X140799600Y-67028190D01*
X140680552Y-67028190D01*
X135136266Y-67028190D02*
X134969600Y-66790095D01*
X134850552Y-67028190D02*
X134850552Y-66528190D01*
X135041028Y-66528190D01*
X135088647Y-66552000D01*
X135112457Y-66575809D01*
X135136266Y-66623428D01*
X135136266Y-66694857D01*
X135112457Y-66742476D01*
X135088647Y-66766285D01*
X135041028Y-66790095D01*
X134850552Y-66790095D01*
X135302933Y-66528190D02*
X135636266Y-67028190D01*
X135636266Y-66528190D02*
X135302933Y-67028190D01*
X155707543Y-41493285D02*
X155874210Y-41493285D01*
X155945638Y-41755190D02*
X155707543Y-41755190D01*
X155707543Y-41255190D01*
X155945638Y-41255190D01*
X156159924Y-41755190D02*
X156159924Y-41255190D01*
X156445638Y-41755190D01*
X156445638Y-41255190D01*
X177665095Y-42525190D02*
X177760333Y-42525190D01*
X177807952Y-42549000D01*
X177855571Y-42596619D01*
X177879380Y-42691857D01*
X177879380Y-42858523D01*
X177855571Y-42953761D01*
X177807952Y-43001380D01*
X177760333Y-43025190D01*
X177665095Y-43025190D01*
X177617476Y-43001380D01*
X177569857Y-42953761D01*
X177546047Y-42858523D01*
X177546047Y-42691857D01*
X177569857Y-42596619D01*
X177617476Y-42549000D01*
X177665095Y-42525190D01*
X178069857Y-42882333D02*
X178307952Y-42882333D01*
X178022238Y-43025190D02*
X178188904Y-42525190D01*
X178355571Y-43025190D01*
%TO.C,SW33*%
X142720190Y-43848304D02*
X142696380Y-43895923D01*
X142672571Y-43919733D01*
X142624952Y-43943542D01*
X142482095Y-43943542D01*
X142434476Y-43919733D01*
X142410666Y-43895923D01*
X142386857Y-43848304D01*
X142386857Y-43776876D01*
X142410666Y-43729257D01*
X142434476Y-43705447D01*
X142482095Y-43681638D01*
X142624952Y-43681638D01*
X142672571Y-43705447D01*
X142696380Y-43729257D01*
X142720190Y-43776876D01*
X142720190Y-43848304D01*
X142386857Y-43467352D02*
X142720190Y-43467352D01*
X142434476Y-43467352D02*
X142410666Y-43443542D01*
X142386857Y-43395923D01*
X142386857Y-43324495D01*
X142410666Y-43276876D01*
X142458285Y-43253066D01*
X142720190Y-43253066D01*
%TO.C,BOOT1*%
X144828533Y-39588285D02*
X144899961Y-39612095D01*
X144923771Y-39635904D01*
X144947580Y-39683523D01*
X144947580Y-39754952D01*
X144923771Y-39802571D01*
X144899961Y-39826380D01*
X144852342Y-39850190D01*
X144661866Y-39850190D01*
X144661866Y-39350190D01*
X144828533Y-39350190D01*
X144876152Y-39374000D01*
X144899961Y-39397809D01*
X144923771Y-39445428D01*
X144923771Y-39493047D01*
X144899961Y-39540666D01*
X144876152Y-39564476D01*
X144828533Y-39588285D01*
X144661866Y-39588285D01*
X145257104Y-39350190D02*
X145352342Y-39350190D01*
X145399961Y-39374000D01*
X145447580Y-39421619D01*
X145471390Y-39516857D01*
X145471390Y-39683523D01*
X145447580Y-39778761D01*
X145399961Y-39826380D01*
X145352342Y-39850190D01*
X145257104Y-39850190D01*
X145209485Y-39826380D01*
X145161866Y-39778761D01*
X145138057Y-39683523D01*
X145138057Y-39516857D01*
X145161866Y-39421619D01*
X145209485Y-39374000D01*
X145257104Y-39350190D01*
X145780914Y-39350190D02*
X145876152Y-39350190D01*
X145923771Y-39374000D01*
X145971390Y-39421619D01*
X145995200Y-39516857D01*
X145995200Y-39683523D01*
X145971390Y-39778761D01*
X145923771Y-39826380D01*
X145876152Y-39850190D01*
X145780914Y-39850190D01*
X145733295Y-39826380D01*
X145685676Y-39778761D01*
X145661866Y-39683523D01*
X145661866Y-39516857D01*
X145685676Y-39421619D01*
X145733295Y-39374000D01*
X145780914Y-39350190D01*
X146138057Y-39350190D02*
X146423771Y-39350190D01*
X146280914Y-39850190D02*
X146280914Y-39350190D01*
X146852342Y-39850190D02*
X146566628Y-39850190D01*
X146709485Y-39850190D02*
X146709485Y-39350190D01*
X146661866Y-39421619D01*
X146614247Y-39469238D01*
X146566628Y-39493047D01*
%TO.C,SW1*%
X169767333Y-98964380D02*
X169838761Y-98988190D01*
X169957809Y-98988190D01*
X170005428Y-98964380D01*
X170029238Y-98940571D01*
X170053047Y-98892952D01*
X170053047Y-98845333D01*
X170029238Y-98797714D01*
X170005428Y-98773904D01*
X169957809Y-98750095D01*
X169862571Y-98726285D01*
X169814952Y-98702476D01*
X169791142Y-98678666D01*
X169767333Y-98631047D01*
X169767333Y-98583428D01*
X169791142Y-98535809D01*
X169814952Y-98512000D01*
X169862571Y-98488190D01*
X169981619Y-98488190D01*
X170053047Y-98512000D01*
X170219714Y-98488190D02*
X170338761Y-98988190D01*
X170434000Y-98631047D01*
X170529238Y-98988190D01*
X170648285Y-98488190D01*
X171100666Y-98988190D02*
X170814952Y-98988190D01*
X170957809Y-98988190D02*
X170957809Y-98488190D01*
X170910190Y-98559619D01*
X170862571Y-98607238D01*
X170814952Y-98631047D01*
%TO.C,D1*%
X176160952Y-88110190D02*
X176160952Y-87610190D01*
X176280000Y-87610190D01*
X176351428Y-87634000D01*
X176399047Y-87681619D01*
X176422857Y-87729238D01*
X176446666Y-87824476D01*
X176446666Y-87895904D01*
X176422857Y-87991142D01*
X176399047Y-88038761D01*
X176351428Y-88086380D01*
X176280000Y-88110190D01*
X176160952Y-88110190D01*
X176922857Y-88110190D02*
X176637142Y-88110190D01*
X176780000Y-88110190D02*
X176780000Y-87610190D01*
X176732380Y-87681619D01*
X176684761Y-87729238D01*
X176637142Y-87753047D01*
%TO.C,MD2*%
X171859190Y-47898761D02*
X171359190Y-47898761D01*
X171716333Y-47732095D01*
X171359190Y-47565428D01*
X171859190Y-47565428D01*
X171859190Y-47327333D02*
X171359190Y-47327333D01*
X171359190Y-47208285D01*
X171383000Y-47136857D01*
X171430619Y-47089238D01*
X171478238Y-47065428D01*
X171573476Y-47041619D01*
X171644904Y-47041619D01*
X171740142Y-47065428D01*
X171787761Y-47089238D01*
X171835380Y-47136857D01*
X171859190Y-47208285D01*
X171859190Y-47327333D01*
X171406809Y-46851142D02*
X171383000Y-46827333D01*
X171359190Y-46779714D01*
X171359190Y-46660666D01*
X171383000Y-46613047D01*
X171406809Y-46589238D01*
X171454428Y-46565428D01*
X171502047Y-46565428D01*
X171573476Y-46589238D01*
X171859190Y-46874952D01*
X171859190Y-46565428D01*
%TO.C,U1*%
X169698190Y-68186952D02*
X170102952Y-68186952D01*
X170150571Y-68163142D01*
X170174380Y-68139333D01*
X170198190Y-68091714D01*
X170198190Y-67996476D01*
X170174380Y-67948857D01*
X170150571Y-67925047D01*
X170102952Y-67901238D01*
X169698190Y-67901238D01*
X170198190Y-67401238D02*
X170198190Y-67686952D01*
X170198190Y-67544095D02*
X169698190Y-67544095D01*
X169769619Y-67591714D01*
X169817238Y-67639333D01*
X169841047Y-67686952D01*
%TO.C,MCU1*%
X116997190Y-57733666D02*
X116497190Y-57733666D01*
X116854333Y-57567000D01*
X116497190Y-57400333D01*
X116997190Y-57400333D01*
X116949571Y-56876523D02*
X116973380Y-56900333D01*
X116997190Y-56971761D01*
X116997190Y-57019380D01*
X116973380Y-57090809D01*
X116925761Y-57138428D01*
X116878142Y-57162238D01*
X116782904Y-57186047D01*
X116711476Y-57186047D01*
X116616238Y-57162238D01*
X116568619Y-57138428D01*
X116521000Y-57090809D01*
X116497190Y-57019380D01*
X116497190Y-56971761D01*
X116521000Y-56900333D01*
X116544809Y-56876523D01*
X116497190Y-56662238D02*
X116901952Y-56662238D01*
X116949571Y-56638428D01*
X116973380Y-56614619D01*
X116997190Y-56567000D01*
X116997190Y-56471761D01*
X116973380Y-56424142D01*
X116949571Y-56400333D01*
X116901952Y-56376523D01*
X116497190Y-56376523D01*
X116997190Y-55876523D02*
X116997190Y-56162238D01*
X116997190Y-56019380D02*
X116497190Y-56019380D01*
X116568619Y-56067000D01*
X116616238Y-56114619D01*
X116640047Y-56162238D01*
X134907190Y-30050095D02*
X134907190Y-30288190D01*
X135145285Y-30312000D01*
X135121476Y-30288190D01*
X135097666Y-30240571D01*
X135097666Y-30121523D01*
X135121476Y-30073904D01*
X135145285Y-30050095D01*
X135192904Y-30026285D01*
X135311952Y-30026285D01*
X135359571Y-30050095D01*
X135383380Y-30073904D01*
X135407190Y-30121523D01*
X135407190Y-30240571D01*
X135383380Y-30288190D01*
X135359571Y-30312000D01*
X135407190Y-29431047D02*
X135073857Y-29431047D01*
X135121476Y-29431047D02*
X135097666Y-29407238D01*
X135073857Y-29359619D01*
X135073857Y-29288190D01*
X135097666Y-29240571D01*
X135145285Y-29216761D01*
X135407190Y-29216761D01*
X135145285Y-29216761D02*
X135097666Y-29192952D01*
X135073857Y-29145333D01*
X135073857Y-29073904D01*
X135097666Y-29026285D01*
X135145285Y-29002476D01*
X135407190Y-29002476D01*
X135407190Y-28764380D02*
X135073857Y-28764380D01*
X135121476Y-28764380D02*
X135097666Y-28740571D01*
X135073857Y-28692952D01*
X135073857Y-28621523D01*
X135097666Y-28573904D01*
X135145285Y-28550095D01*
X135407190Y-28550095D01*
X135145285Y-28550095D02*
X135097666Y-28526285D01*
X135073857Y-28478666D01*
X135073857Y-28407238D01*
X135097666Y-28359619D01*
X135145285Y-28335809D01*
X135407190Y-28335809D01*
X124345285Y-29613190D02*
X124345285Y-29113190D01*
X124631000Y-29613190D02*
X124416714Y-29327476D01*
X124631000Y-29113190D02*
X124345285Y-29398904D01*
X124845285Y-29351285D02*
X125011952Y-29351285D01*
X125083380Y-29613190D02*
X124845285Y-29613190D01*
X124845285Y-29113190D01*
X125083380Y-29113190D01*
X125297666Y-29351285D02*
X125464333Y-29351285D01*
X125535761Y-29613190D02*
X125297666Y-29613190D01*
X125297666Y-29113190D01*
X125535761Y-29113190D01*
X125750047Y-29613190D02*
X125750047Y-29113190D01*
X125940523Y-29113190D01*
X125988142Y-29137000D01*
X126011952Y-29160809D01*
X126035761Y-29208428D01*
X126035761Y-29279857D01*
X126011952Y-29327476D01*
X125988142Y-29351285D01*
X125940523Y-29375095D01*
X125750047Y-29375095D01*
X126250047Y-29422714D02*
X126631000Y-29422714D01*
X126964333Y-29113190D02*
X127059571Y-29113190D01*
X127107190Y-29137000D01*
X127154809Y-29184619D01*
X127178619Y-29279857D01*
X127178619Y-29446523D01*
X127154809Y-29541761D01*
X127107190Y-29589380D01*
X127059571Y-29613190D01*
X126964333Y-29613190D01*
X126916714Y-29589380D01*
X126869095Y-29541761D01*
X126845285Y-29446523D01*
X126845285Y-29279857D01*
X126869095Y-29184619D01*
X126916714Y-29137000D01*
X126964333Y-29113190D01*
X127392904Y-29113190D02*
X127392904Y-29517952D01*
X127416714Y-29565571D01*
X127440523Y-29589380D01*
X127488142Y-29613190D01*
X127583380Y-29613190D01*
X127631000Y-29589380D01*
X127654809Y-29565571D01*
X127678619Y-29517952D01*
X127678619Y-29113190D01*
X127845285Y-29113190D02*
X128131000Y-29113190D01*
X127988142Y-29613190D02*
X127988142Y-29113190D01*
X128631000Y-29113190D02*
X128964333Y-29113190D01*
X128631000Y-29613190D01*
X128964333Y-29613190D01*
X129250047Y-29113190D02*
X129345285Y-29113190D01*
X129392904Y-29137000D01*
X129440523Y-29184619D01*
X129464333Y-29279857D01*
X129464333Y-29446523D01*
X129440523Y-29541761D01*
X129392904Y-29589380D01*
X129345285Y-29613190D01*
X129250047Y-29613190D01*
X129202428Y-29589380D01*
X129154809Y-29541761D01*
X129131000Y-29446523D01*
X129131000Y-29279857D01*
X129154809Y-29184619D01*
X129202428Y-29137000D01*
X129250047Y-29113190D01*
X129678619Y-29613190D02*
X129678619Y-29113190D01*
X129964333Y-29613190D01*
X129964333Y-29113190D01*
X130202428Y-29351285D02*
X130369095Y-29351285D01*
X130440523Y-29613190D02*
X130202428Y-29613190D01*
X130202428Y-29113190D01*
X130440523Y-29113190D01*
X115442904Y-33738190D02*
X115204809Y-33738190D01*
X115181000Y-33976285D01*
X115204809Y-33952476D01*
X115252428Y-33928666D01*
X115371476Y-33928666D01*
X115419095Y-33952476D01*
X115442904Y-33976285D01*
X115466714Y-34023904D01*
X115466714Y-34142952D01*
X115442904Y-34190571D01*
X115419095Y-34214380D01*
X115371476Y-34238190D01*
X115252428Y-34238190D01*
X115204809Y-34214380D01*
X115181000Y-34190571D01*
X116061952Y-34238190D02*
X116061952Y-33904857D01*
X116061952Y-33952476D02*
X116085761Y-33928666D01*
X116133380Y-33904857D01*
X116204809Y-33904857D01*
X116252428Y-33928666D01*
X116276238Y-33976285D01*
X116276238Y-34238190D01*
X116276238Y-33976285D02*
X116300047Y-33928666D01*
X116347666Y-33904857D01*
X116419095Y-33904857D01*
X116466714Y-33928666D01*
X116490523Y-33976285D01*
X116490523Y-34238190D01*
X116728619Y-34238190D02*
X116728619Y-33904857D01*
X116728619Y-33952476D02*
X116752428Y-33928666D01*
X116800047Y-33904857D01*
X116871476Y-33904857D01*
X116919095Y-33928666D01*
X116942904Y-33976285D01*
X116942904Y-34238190D01*
X116942904Y-33976285D02*
X116966714Y-33928666D01*
X117014333Y-33904857D01*
X117085761Y-33904857D01*
X117133380Y-33928666D01*
X117157190Y-33976285D01*
X117157190Y-34238190D01*
X138442904Y-33738190D02*
X138204809Y-33738190D01*
X138181000Y-33976285D01*
X138204809Y-33952476D01*
X138252428Y-33928666D01*
X138371476Y-33928666D01*
X138419095Y-33952476D01*
X138442904Y-33976285D01*
X138466714Y-34023904D01*
X138466714Y-34142952D01*
X138442904Y-34190571D01*
X138419095Y-34214380D01*
X138371476Y-34238190D01*
X138252428Y-34238190D01*
X138204809Y-34214380D01*
X138181000Y-34190571D01*
X139061952Y-34238190D02*
X139061952Y-33904857D01*
X139061952Y-33952476D02*
X139085761Y-33928666D01*
X139133380Y-33904857D01*
X139204809Y-33904857D01*
X139252428Y-33928666D01*
X139276238Y-33976285D01*
X139276238Y-34238190D01*
X139276238Y-33976285D02*
X139300047Y-33928666D01*
X139347666Y-33904857D01*
X139419095Y-33904857D01*
X139466714Y-33928666D01*
X139490523Y-33976285D01*
X139490523Y-34238190D01*
X139728619Y-34238190D02*
X139728619Y-33904857D01*
X139728619Y-33952476D02*
X139752428Y-33928666D01*
X139800047Y-33904857D01*
X139871476Y-33904857D01*
X139919095Y-33928666D01*
X139942904Y-33976285D01*
X139942904Y-34238190D01*
X139942904Y-33976285D02*
X139966714Y-33928666D01*
X140014333Y-33904857D01*
X140085761Y-33904857D01*
X140133380Y-33928666D01*
X140157190Y-33976285D01*
X140157190Y-34238190D01*
X126000047Y-35470333D02*
X126238142Y-35470333D01*
X125952428Y-35613190D02*
X126119095Y-35113190D01*
X126285761Y-35613190D01*
X126452428Y-35279857D02*
X126452428Y-35613190D01*
X126452428Y-35327476D02*
X126476238Y-35303666D01*
X126523857Y-35279857D01*
X126595285Y-35279857D01*
X126642904Y-35303666D01*
X126666714Y-35351285D01*
X126666714Y-35613190D01*
X126833380Y-35279857D02*
X127023857Y-35279857D01*
X126904809Y-35113190D02*
X126904809Y-35541761D01*
X126928619Y-35589380D01*
X126976238Y-35613190D01*
X127023857Y-35613190D01*
X127381000Y-35589380D02*
X127333380Y-35613190D01*
X127238142Y-35613190D01*
X127190523Y-35589380D01*
X127166714Y-35541761D01*
X127166714Y-35351285D01*
X127190523Y-35303666D01*
X127238142Y-35279857D01*
X127333380Y-35279857D01*
X127381000Y-35303666D01*
X127404809Y-35351285D01*
X127404809Y-35398904D01*
X127166714Y-35446523D01*
X127619095Y-35279857D02*
X127619095Y-35613190D01*
X127619095Y-35327476D02*
X127642904Y-35303666D01*
X127690523Y-35279857D01*
X127761952Y-35279857D01*
X127809571Y-35303666D01*
X127833380Y-35351285D01*
X127833380Y-35613190D01*
X128071476Y-35279857D02*
X128071476Y-35613190D01*
X128071476Y-35327476D02*
X128095285Y-35303666D01*
X128142904Y-35279857D01*
X128214333Y-35279857D01*
X128261952Y-35303666D01*
X128285761Y-35351285D01*
X128285761Y-35613190D01*
X128738142Y-35613190D02*
X128738142Y-35351285D01*
X128714333Y-35303666D01*
X128666714Y-35279857D01*
X128571476Y-35279857D01*
X128523857Y-35303666D01*
X128738142Y-35589380D02*
X128690523Y-35613190D01*
X128571476Y-35613190D01*
X128523857Y-35589380D01*
X128500047Y-35541761D01*
X128500047Y-35494142D01*
X128523857Y-35446523D01*
X128571476Y-35422714D01*
X128690523Y-35422714D01*
X128738142Y-35398904D01*
%TO.C,R12*%
X156396571Y-59281190D02*
X156229904Y-59043095D01*
X156110857Y-59281190D02*
X156110857Y-58781190D01*
X156301333Y-58781190D01*
X156348952Y-58805000D01*
X156372761Y-58828809D01*
X156396571Y-58876428D01*
X156396571Y-58947857D01*
X156372761Y-58995476D01*
X156348952Y-59019285D01*
X156301333Y-59043095D01*
X156110857Y-59043095D01*
X156872761Y-59281190D02*
X156587047Y-59281190D01*
X156729904Y-59281190D02*
X156729904Y-58781190D01*
X156682285Y-58852619D01*
X156634666Y-58900238D01*
X156587047Y-58924047D01*
X157063238Y-58828809D02*
X157087047Y-58805000D01*
X157134666Y-58781190D01*
X157253714Y-58781190D01*
X157301333Y-58805000D01*
X157325142Y-58828809D01*
X157348952Y-58876428D01*
X157348952Y-58924047D01*
X157325142Y-58995476D01*
X157039428Y-59281190D01*
X157348952Y-59281190D01*
%TO.C,C41*%
X113673771Y-39548571D02*
X113649961Y-39572380D01*
X113578533Y-39596190D01*
X113530914Y-39596190D01*
X113459485Y-39572380D01*
X113411866Y-39524761D01*
X113388057Y-39477142D01*
X113364247Y-39381904D01*
X113364247Y-39310476D01*
X113388057Y-39215238D01*
X113411866Y-39167619D01*
X113459485Y-39120000D01*
X113530914Y-39096190D01*
X113578533Y-39096190D01*
X113649961Y-39120000D01*
X113673771Y-39143809D01*
X114102342Y-39262857D02*
X114102342Y-39596190D01*
X113983295Y-39072380D02*
X113864247Y-39429523D01*
X114173771Y-39429523D01*
X114626152Y-39596190D02*
X114340438Y-39596190D01*
X114483295Y-39596190D02*
X114483295Y-39096190D01*
X114435676Y-39167619D01*
X114388057Y-39215238D01*
X114340438Y-39239047D01*
%TO.C,C11*%
X165083371Y-53416971D02*
X165059561Y-53440780D01*
X164988133Y-53464590D01*
X164940514Y-53464590D01*
X164869085Y-53440780D01*
X164821466Y-53393161D01*
X164797657Y-53345542D01*
X164773847Y-53250304D01*
X164773847Y-53178876D01*
X164797657Y-53083638D01*
X164821466Y-53036019D01*
X164869085Y-52988400D01*
X164940514Y-52964590D01*
X164988133Y-52964590D01*
X165059561Y-52988400D01*
X165083371Y-53012209D01*
X165559561Y-53464590D02*
X165273847Y-53464590D01*
X165416704Y-53464590D02*
X165416704Y-52964590D01*
X165369085Y-53036019D01*
X165321466Y-53083638D01*
X165273847Y-53107447D01*
X166035752Y-53464590D02*
X165750038Y-53464590D01*
X165892895Y-53464590D02*
X165892895Y-52964590D01*
X165845276Y-53036019D01*
X165797657Y-53083638D01*
X165750038Y-53107447D01*
%TO.C,R62*%
X184031771Y-58239790D02*
X183865104Y-58001695D01*
X183746057Y-58239790D02*
X183746057Y-57739790D01*
X183936533Y-57739790D01*
X183984152Y-57763600D01*
X184007961Y-57787409D01*
X184031771Y-57835028D01*
X184031771Y-57906457D01*
X184007961Y-57954076D01*
X183984152Y-57977885D01*
X183936533Y-58001695D01*
X183746057Y-58001695D01*
X184460342Y-57739790D02*
X184365104Y-57739790D01*
X184317485Y-57763600D01*
X184293676Y-57787409D01*
X184246057Y-57858838D01*
X184222247Y-57954076D01*
X184222247Y-58144552D01*
X184246057Y-58192171D01*
X184269866Y-58215980D01*
X184317485Y-58239790D01*
X184412723Y-58239790D01*
X184460342Y-58215980D01*
X184484152Y-58192171D01*
X184507961Y-58144552D01*
X184507961Y-58025504D01*
X184484152Y-57977885D01*
X184460342Y-57954076D01*
X184412723Y-57930266D01*
X184317485Y-57930266D01*
X184269866Y-57954076D01*
X184246057Y-57977885D01*
X184222247Y-58025504D01*
X184698438Y-57787409D02*
X184722247Y-57763600D01*
X184769866Y-57739790D01*
X184888914Y-57739790D01*
X184936533Y-57763600D01*
X184960342Y-57787409D01*
X184984152Y-57835028D01*
X184984152Y-57882647D01*
X184960342Y-57954076D01*
X184674628Y-58239790D01*
X184984152Y-58239790D01*
%TO.C,IMU1*%
X130877885Y-62456190D02*
X130877885Y-61956190D01*
X131115980Y-62456190D02*
X131115980Y-61956190D01*
X131282647Y-62313333D01*
X131449314Y-61956190D01*
X131449314Y-62456190D01*
X131687409Y-61956190D02*
X131687409Y-62360952D01*
X131711219Y-62408571D01*
X131735028Y-62432380D01*
X131782647Y-62456190D01*
X131877885Y-62456190D01*
X131925504Y-62432380D01*
X131949314Y-62408571D01*
X131973123Y-62360952D01*
X131973123Y-61956190D01*
X132473123Y-62456190D02*
X132187409Y-62456190D01*
X132330266Y-62456190D02*
X132330266Y-61956190D01*
X132282647Y-62027619D01*
X132235028Y-62075238D01*
X132187409Y-62099047D01*
%TO.C,M3*%
X174855238Y-39215190D02*
X174855238Y-38715190D01*
X175021904Y-39072333D01*
X175188571Y-38715190D01*
X175188571Y-39215190D01*
X175379047Y-38715190D02*
X175688571Y-38715190D01*
X175521904Y-38905666D01*
X175593333Y-38905666D01*
X175640952Y-38929476D01*
X175664761Y-38953285D01*
X175688571Y-39000904D01*
X175688571Y-39119952D01*
X175664761Y-39167571D01*
X175640952Y-39191380D01*
X175593333Y-39215190D01*
X175450476Y-39215190D01*
X175402857Y-39191380D01*
X175379047Y-39167571D01*
%TO.C,R31*%
X153500971Y-50483790D02*
X153334304Y-50245695D01*
X153215257Y-50483790D02*
X153215257Y-49983790D01*
X153405733Y-49983790D01*
X153453352Y-50007600D01*
X153477161Y-50031409D01*
X153500971Y-50079028D01*
X153500971Y-50150457D01*
X153477161Y-50198076D01*
X153453352Y-50221885D01*
X153405733Y-50245695D01*
X153215257Y-50245695D01*
X153667638Y-49983790D02*
X153977161Y-49983790D01*
X153810495Y-50174266D01*
X153881923Y-50174266D01*
X153929542Y-50198076D01*
X153953352Y-50221885D01*
X153977161Y-50269504D01*
X153977161Y-50388552D01*
X153953352Y-50436171D01*
X153929542Y-50459980D01*
X153881923Y-50483790D01*
X153739066Y-50483790D01*
X153691447Y-50459980D01*
X153667638Y-50436171D01*
X154453352Y-50483790D02*
X154167638Y-50483790D01*
X154310495Y-50483790D02*
X154310495Y-49983790D01*
X154262876Y-50055219D01*
X154215257Y-50102838D01*
X154167638Y-50126647D01*
%TO.C,U0*%
X151149809Y-69342047D02*
X150745047Y-69342047D01*
X150697428Y-69365857D01*
X150673619Y-69389666D01*
X150649809Y-69437285D01*
X150649809Y-69532523D01*
X150673619Y-69580142D01*
X150697428Y-69603952D01*
X150745047Y-69627761D01*
X151149809Y-69627761D01*
X151149809Y-69961095D02*
X151149809Y-70008714D01*
X151126000Y-70056333D01*
X151102190Y-70080142D01*
X151054571Y-70103952D01*
X150959333Y-70127761D01*
X150840285Y-70127761D01*
X150745047Y-70103952D01*
X150697428Y-70080142D01*
X150673619Y-70056333D01*
X150649809Y-70008714D01*
X150649809Y-69961095D01*
X150673619Y-69913476D01*
X150697428Y-69889666D01*
X150745047Y-69865857D01*
X150840285Y-69842047D01*
X150959333Y-69842047D01*
X151054571Y-69865857D01*
X151102190Y-69889666D01*
X151126000Y-69913476D01*
X151149809Y-69961095D01*
%TO.C,C42*%
X116366171Y-39599371D02*
X116342361Y-39623180D01*
X116270933Y-39646990D01*
X116223314Y-39646990D01*
X116151885Y-39623180D01*
X116104266Y-39575561D01*
X116080457Y-39527942D01*
X116056647Y-39432704D01*
X116056647Y-39361276D01*
X116080457Y-39266038D01*
X116104266Y-39218419D01*
X116151885Y-39170800D01*
X116223314Y-39146990D01*
X116270933Y-39146990D01*
X116342361Y-39170800D01*
X116366171Y-39194609D01*
X116794742Y-39313657D02*
X116794742Y-39646990D01*
X116675695Y-39123180D02*
X116556647Y-39480323D01*
X116866171Y-39480323D01*
X117032838Y-39194609D02*
X117056647Y-39170800D01*
X117104266Y-39146990D01*
X117223314Y-39146990D01*
X117270933Y-39170800D01*
X117294742Y-39194609D01*
X117318552Y-39242228D01*
X117318552Y-39289847D01*
X117294742Y-39361276D01*
X117009028Y-39646990D01*
X117318552Y-39646990D01*
%TO.C,R21*%
X174278171Y-57630190D02*
X174111504Y-57392095D01*
X173992457Y-57630190D02*
X173992457Y-57130190D01*
X174182933Y-57130190D01*
X174230552Y-57154000D01*
X174254361Y-57177809D01*
X174278171Y-57225428D01*
X174278171Y-57296857D01*
X174254361Y-57344476D01*
X174230552Y-57368285D01*
X174182933Y-57392095D01*
X173992457Y-57392095D01*
X174468647Y-57177809D02*
X174492457Y-57154000D01*
X174540076Y-57130190D01*
X174659123Y-57130190D01*
X174706742Y-57154000D01*
X174730552Y-57177809D01*
X174754361Y-57225428D01*
X174754361Y-57273047D01*
X174730552Y-57344476D01*
X174444838Y-57630190D01*
X174754361Y-57630190D01*
X175230552Y-57630190D02*
X174944838Y-57630190D01*
X175087695Y-57630190D02*
X175087695Y-57130190D01*
X175040076Y-57201619D01*
X174992457Y-57249238D01*
X174944838Y-57273047D01*
%TO.C,SW31*%
X159470838Y-51307980D02*
X159542266Y-51331790D01*
X159661314Y-51331790D01*
X159708933Y-51307980D01*
X159732742Y-51284171D01*
X159756552Y-51236552D01*
X159756552Y-51188933D01*
X159732742Y-51141314D01*
X159708933Y-51117504D01*
X159661314Y-51093695D01*
X159566076Y-51069885D01*
X159518457Y-51046076D01*
X159494647Y-51022266D01*
X159470838Y-50974647D01*
X159470838Y-50927028D01*
X159494647Y-50879409D01*
X159518457Y-50855600D01*
X159566076Y-50831790D01*
X159685123Y-50831790D01*
X159756552Y-50855600D01*
X159923219Y-50831790D02*
X160042266Y-51331790D01*
X160137504Y-50974647D01*
X160232742Y-51331790D01*
X160351790Y-50831790D01*
X160494647Y-50831790D02*
X160804171Y-50831790D01*
X160637504Y-51022266D01*
X160708933Y-51022266D01*
X160756552Y-51046076D01*
X160780361Y-51069885D01*
X160804171Y-51117504D01*
X160804171Y-51236552D01*
X160780361Y-51284171D01*
X160756552Y-51307980D01*
X160708933Y-51331790D01*
X160566076Y-51331790D01*
X160518457Y-51307980D01*
X160494647Y-51284171D01*
X161280361Y-51331790D02*
X160994647Y-51331790D01*
X161137504Y-51331790D02*
X161137504Y-50831790D01*
X161089885Y-50903219D01*
X161042266Y-50950838D01*
X160994647Y-50974647D01*
%TO.C,M4*%
X122023238Y-70838190D02*
X122023238Y-70338190D01*
X122189904Y-70695333D01*
X122356571Y-70338190D01*
X122356571Y-70838190D01*
X122808952Y-70504857D02*
X122808952Y-70838190D01*
X122689904Y-70314380D02*
X122570857Y-70671523D01*
X122880380Y-70671523D01*
%TO.C,SW32*%
X159470838Y-43905980D02*
X159542266Y-43929790D01*
X159661314Y-43929790D01*
X159708933Y-43905980D01*
X159732742Y-43882171D01*
X159756552Y-43834552D01*
X159756552Y-43786933D01*
X159732742Y-43739314D01*
X159708933Y-43715504D01*
X159661314Y-43691695D01*
X159566076Y-43667885D01*
X159518457Y-43644076D01*
X159494647Y-43620266D01*
X159470838Y-43572647D01*
X159470838Y-43525028D01*
X159494647Y-43477409D01*
X159518457Y-43453600D01*
X159566076Y-43429790D01*
X159685123Y-43429790D01*
X159756552Y-43453600D01*
X159923219Y-43429790D02*
X160042266Y-43929790D01*
X160137504Y-43572647D01*
X160232742Y-43929790D01*
X160351790Y-43429790D01*
X160494647Y-43429790D02*
X160804171Y-43429790D01*
X160637504Y-43620266D01*
X160708933Y-43620266D01*
X160756552Y-43644076D01*
X160780361Y-43667885D01*
X160804171Y-43715504D01*
X160804171Y-43834552D01*
X160780361Y-43882171D01*
X160756552Y-43905980D01*
X160708933Y-43929790D01*
X160566076Y-43929790D01*
X160518457Y-43905980D01*
X160494647Y-43882171D01*
X160994647Y-43477409D02*
X161018457Y-43453600D01*
X161066076Y-43429790D01*
X161185123Y-43429790D01*
X161232742Y-43453600D01*
X161256552Y-43477409D01*
X161280361Y-43525028D01*
X161280361Y-43572647D01*
X161256552Y-43644076D01*
X160970838Y-43929790D01*
X161280361Y-43929790D01*
%TO.C,U2*%
X184003190Y-67944952D02*
X184407952Y-67944952D01*
X184455571Y-67921142D01*
X184479380Y-67897333D01*
X184503190Y-67849714D01*
X184503190Y-67754476D01*
X184479380Y-67706857D01*
X184455571Y-67683047D01*
X184407952Y-67659238D01*
X184003190Y-67659238D01*
X184050809Y-67444952D02*
X184027000Y-67421142D01*
X184003190Y-67373523D01*
X184003190Y-67254476D01*
X184027000Y-67206857D01*
X184050809Y-67183047D01*
X184098428Y-67159238D01*
X184146047Y-67159238D01*
X184217476Y-67183047D01*
X184503190Y-67468761D01*
X184503190Y-67159238D01*
%TO.C,CAM1*%
X105588666Y-39675571D02*
X105564857Y-39699380D01*
X105493428Y-39723190D01*
X105445809Y-39723190D01*
X105374380Y-39699380D01*
X105326761Y-39651761D01*
X105302952Y-39604142D01*
X105279142Y-39508904D01*
X105279142Y-39437476D01*
X105302952Y-39342238D01*
X105326761Y-39294619D01*
X105374380Y-39247000D01*
X105445809Y-39223190D01*
X105493428Y-39223190D01*
X105564857Y-39247000D01*
X105588666Y-39270809D01*
X105779142Y-39580333D02*
X106017238Y-39580333D01*
X105731523Y-39723190D02*
X105898190Y-39223190D01*
X106064857Y-39723190D01*
X106231523Y-39723190D02*
X106231523Y-39223190D01*
X106398190Y-39580333D01*
X106564857Y-39223190D01*
X106564857Y-39723190D01*
X107064857Y-39723190D02*
X106779142Y-39723190D01*
X106922000Y-39723190D02*
X106922000Y-39223190D01*
X106874380Y-39294619D01*
X106826761Y-39342238D01*
X106779142Y-39366047D01*
%TO.C,M1*%
X114657238Y-70838190D02*
X114657238Y-70338190D01*
X114823904Y-70695333D01*
X114990571Y-70338190D01*
X114990571Y-70838190D01*
X115490571Y-70838190D02*
X115204857Y-70838190D01*
X115347714Y-70838190D02*
X115347714Y-70338190D01*
X115300095Y-70409619D01*
X115252476Y-70457238D01*
X115204857Y-70481047D01*
%TO.C,C31*%
X116366171Y-42799771D02*
X116342361Y-42823580D01*
X116270933Y-42847390D01*
X116223314Y-42847390D01*
X116151885Y-42823580D01*
X116104266Y-42775961D01*
X116080457Y-42728342D01*
X116056647Y-42633104D01*
X116056647Y-42561676D01*
X116080457Y-42466438D01*
X116104266Y-42418819D01*
X116151885Y-42371200D01*
X116223314Y-42347390D01*
X116270933Y-42347390D01*
X116342361Y-42371200D01*
X116366171Y-42395009D01*
X116532838Y-42347390D02*
X116842361Y-42347390D01*
X116675695Y-42537866D01*
X116747123Y-42537866D01*
X116794742Y-42561676D01*
X116818552Y-42585485D01*
X116842361Y-42633104D01*
X116842361Y-42752152D01*
X116818552Y-42799771D01*
X116794742Y-42823580D01*
X116747123Y-42847390D01*
X116604266Y-42847390D01*
X116556647Y-42823580D01*
X116532838Y-42799771D01*
X117318552Y-42847390D02*
X117032838Y-42847390D01*
X117175695Y-42847390D02*
X117175695Y-42347390D01*
X117128076Y-42418819D01*
X117080457Y-42466438D01*
X117032838Y-42490247D01*
%TO.C,MD1*%
X118090238Y-62837190D02*
X118090238Y-62337190D01*
X118256904Y-62694333D01*
X118423571Y-62337190D01*
X118423571Y-62837190D01*
X118661666Y-62837190D02*
X118661666Y-62337190D01*
X118780714Y-62337190D01*
X118852142Y-62361000D01*
X118899761Y-62408619D01*
X118923571Y-62456238D01*
X118947380Y-62551476D01*
X118947380Y-62622904D01*
X118923571Y-62718142D01*
X118899761Y-62765761D01*
X118852142Y-62813380D01*
X118780714Y-62837190D01*
X118661666Y-62837190D01*
X119423571Y-62837190D02*
X119137857Y-62837190D01*
X119280714Y-62837190D02*
X119280714Y-62337190D01*
X119233095Y-62408619D01*
X119185476Y-62456238D01*
X119137857Y-62480047D01*
X118971190Y-67075761D02*
X118471190Y-67075761D01*
X118828333Y-66909095D01*
X118471190Y-66742428D01*
X118971190Y-66742428D01*
X118971190Y-66504333D02*
X118471190Y-66504333D01*
X118471190Y-66385285D01*
X118495000Y-66313857D01*
X118542619Y-66266238D01*
X118590238Y-66242428D01*
X118685476Y-66218619D01*
X118756904Y-66218619D01*
X118852142Y-66242428D01*
X118899761Y-66266238D01*
X118947380Y-66313857D01*
X118971190Y-66385285D01*
X118971190Y-66504333D01*
X118971190Y-65742428D02*
X118971190Y-66028142D01*
X118971190Y-65885285D02*
X118471190Y-65885285D01*
X118542619Y-65932904D01*
X118590238Y-65980523D01*
X118614047Y-66028142D01*
%TO.C,C2*%
X148963866Y-74803771D02*
X148940057Y-74827580D01*
X148868628Y-74851390D01*
X148821009Y-74851390D01*
X148749580Y-74827580D01*
X148701961Y-74779961D01*
X148678152Y-74732342D01*
X148654342Y-74637104D01*
X148654342Y-74565676D01*
X148678152Y-74470438D01*
X148701961Y-74422819D01*
X148749580Y-74375200D01*
X148821009Y-74351390D01*
X148868628Y-74351390D01*
X148940057Y-74375200D01*
X148963866Y-74399009D01*
X149154342Y-74399009D02*
X149178152Y-74375200D01*
X149225771Y-74351390D01*
X149344819Y-74351390D01*
X149392438Y-74375200D01*
X149416247Y-74399009D01*
X149440057Y-74446628D01*
X149440057Y-74494247D01*
X149416247Y-74565676D01*
X149130533Y-74851390D01*
X149440057Y-74851390D01*
%TO.C,C21*%
X179764571Y-53467771D02*
X179740761Y-53491580D01*
X179669333Y-53515390D01*
X179621714Y-53515390D01*
X179550285Y-53491580D01*
X179502666Y-53443961D01*
X179478857Y-53396342D01*
X179455047Y-53301104D01*
X179455047Y-53229676D01*
X179478857Y-53134438D01*
X179502666Y-53086819D01*
X179550285Y-53039200D01*
X179621714Y-53015390D01*
X179669333Y-53015390D01*
X179740761Y-53039200D01*
X179764571Y-53063009D01*
X179955047Y-53063009D02*
X179978857Y-53039200D01*
X180026476Y-53015390D01*
X180145523Y-53015390D01*
X180193142Y-53039200D01*
X180216952Y-53063009D01*
X180240761Y-53110628D01*
X180240761Y-53158247D01*
X180216952Y-53229676D01*
X179931238Y-53515390D01*
X180240761Y-53515390D01*
X180716952Y-53515390D02*
X180431238Y-53515390D01*
X180574095Y-53515390D02*
X180574095Y-53015390D01*
X180526476Y-53086819D01*
X180478857Y-53134438D01*
X180431238Y-53158247D01*
%TO.C,BAT1*%
X169826857Y-82465285D02*
X169898285Y-82489095D01*
X169922095Y-82512904D01*
X169945904Y-82560523D01*
X169945904Y-82631952D01*
X169922095Y-82679571D01*
X169898285Y-82703380D01*
X169850666Y-82727190D01*
X169660190Y-82727190D01*
X169660190Y-82227190D01*
X169826857Y-82227190D01*
X169874476Y-82251000D01*
X169898285Y-82274809D01*
X169922095Y-82322428D01*
X169922095Y-82370047D01*
X169898285Y-82417666D01*
X169874476Y-82441476D01*
X169826857Y-82465285D01*
X169660190Y-82465285D01*
X170136380Y-82584333D02*
X170374476Y-82584333D01*
X170088761Y-82727190D02*
X170255428Y-82227190D01*
X170422095Y-82727190D01*
X170517333Y-82227190D02*
X170803047Y-82227190D01*
X170660190Y-82727190D02*
X170660190Y-82227190D01*
X171231619Y-82727190D02*
X170945904Y-82727190D01*
X171088761Y-82727190D02*
X171088761Y-82227190D01*
X171041142Y-82298619D01*
X170993523Y-82346238D01*
X170945904Y-82370047D01*
%TO.C,R32*%
X153450171Y-43102990D02*
X153283504Y-42864895D01*
X153164457Y-43102990D02*
X153164457Y-42602990D01*
X153354933Y-42602990D01*
X153402552Y-42626800D01*
X153426361Y-42650609D01*
X153450171Y-42698228D01*
X153450171Y-42769657D01*
X153426361Y-42817276D01*
X153402552Y-42841085D01*
X153354933Y-42864895D01*
X153164457Y-42864895D01*
X153616838Y-42602990D02*
X153926361Y-42602990D01*
X153759695Y-42793466D01*
X153831123Y-42793466D01*
X153878742Y-42817276D01*
X153902552Y-42841085D01*
X153926361Y-42888704D01*
X153926361Y-43007752D01*
X153902552Y-43055371D01*
X153878742Y-43079180D01*
X153831123Y-43102990D01*
X153688266Y-43102990D01*
X153640647Y-43079180D01*
X153616838Y-43055371D01*
X154116838Y-42650609D02*
X154140647Y-42626800D01*
X154188266Y-42602990D01*
X154307314Y-42602990D01*
X154354933Y-42626800D01*
X154378742Y-42650609D01*
X154402552Y-42698228D01*
X154402552Y-42745847D01*
X154378742Y-42817276D01*
X154093028Y-43102990D01*
X154402552Y-43102990D01*
%TO.C,R22*%
X170925371Y-59255790D02*
X170758704Y-59017695D01*
X170639657Y-59255790D02*
X170639657Y-58755790D01*
X170830133Y-58755790D01*
X170877752Y-58779600D01*
X170901561Y-58803409D01*
X170925371Y-58851028D01*
X170925371Y-58922457D01*
X170901561Y-58970076D01*
X170877752Y-58993885D01*
X170830133Y-59017695D01*
X170639657Y-59017695D01*
X171115847Y-58803409D02*
X171139657Y-58779600D01*
X171187276Y-58755790D01*
X171306323Y-58755790D01*
X171353942Y-58779600D01*
X171377752Y-58803409D01*
X171401561Y-58851028D01*
X171401561Y-58898647D01*
X171377752Y-58970076D01*
X171092038Y-59255790D01*
X171401561Y-59255790D01*
X171592038Y-58803409D02*
X171615847Y-58779600D01*
X171663466Y-58755790D01*
X171782514Y-58755790D01*
X171830133Y-58779600D01*
X171853942Y-58803409D01*
X171877752Y-58851028D01*
X171877752Y-58898647D01*
X171853942Y-58970076D01*
X171568228Y-59255790D01*
X171877752Y-59255790D01*
%TO.C,M2*%
X166854238Y-39215190D02*
X166854238Y-38715190D01*
X167020904Y-39072333D01*
X167187571Y-38715190D01*
X167187571Y-39215190D01*
X167401857Y-38762809D02*
X167425666Y-38739000D01*
X167473285Y-38715190D01*
X167592333Y-38715190D01*
X167639952Y-38739000D01*
X167663761Y-38762809D01*
X167687571Y-38810428D01*
X167687571Y-38858047D01*
X167663761Y-38929476D01*
X167378047Y-39215190D01*
X167687571Y-39215190D01*
%TO.C,LED2*%
X143077476Y-33373190D02*
X142839380Y-33373190D01*
X142839380Y-32873190D01*
X143244142Y-33111285D02*
X143410809Y-33111285D01*
X143482238Y-33373190D02*
X143244142Y-33373190D01*
X143244142Y-32873190D01*
X143482238Y-32873190D01*
X143696523Y-33373190D02*
X143696523Y-32873190D01*
X143815571Y-32873190D01*
X143887000Y-32897000D01*
X143934619Y-32944619D01*
X143958428Y-32992238D01*
X143982238Y-33087476D01*
X143982238Y-33158904D01*
X143958428Y-33254142D01*
X143934619Y-33301761D01*
X143887000Y-33349380D01*
X143815571Y-33373190D01*
X143696523Y-33373190D01*
X144172714Y-32920809D02*
X144196523Y-32897000D01*
X144244142Y-32873190D01*
X144363190Y-32873190D01*
X144410809Y-32897000D01*
X144434619Y-32920809D01*
X144458428Y-32968428D01*
X144458428Y-33016047D01*
X144434619Y-33087476D01*
X144148904Y-33373190D01*
X144458428Y-33373190D01*
%TO.C,C1*%
X155110666Y-69901571D02*
X155086857Y-69925380D01*
X155015428Y-69949190D01*
X154967809Y-69949190D01*
X154896380Y-69925380D01*
X154848761Y-69877761D01*
X154824952Y-69830142D01*
X154801142Y-69734904D01*
X154801142Y-69663476D01*
X154824952Y-69568238D01*
X154848761Y-69520619D01*
X154896380Y-69473000D01*
X154967809Y-69449190D01*
X155015428Y-69449190D01*
X155086857Y-69473000D01*
X155110666Y-69496809D01*
X155586857Y-69949190D02*
X155301142Y-69949190D01*
X155444000Y-69949190D02*
X155444000Y-69449190D01*
X155396380Y-69520619D01*
X155348761Y-69568238D01*
X155301142Y-69592047D01*
%TO.C,BAT2*%
X169826857Y-90212285D02*
X169898285Y-90236095D01*
X169922095Y-90259904D01*
X169945904Y-90307523D01*
X169945904Y-90378952D01*
X169922095Y-90426571D01*
X169898285Y-90450380D01*
X169850666Y-90474190D01*
X169660190Y-90474190D01*
X169660190Y-89974190D01*
X169826857Y-89974190D01*
X169874476Y-89998000D01*
X169898285Y-90021809D01*
X169922095Y-90069428D01*
X169922095Y-90117047D01*
X169898285Y-90164666D01*
X169874476Y-90188476D01*
X169826857Y-90212285D01*
X169660190Y-90212285D01*
X170136380Y-90331333D02*
X170374476Y-90331333D01*
X170088761Y-90474190D02*
X170255428Y-89974190D01*
X170422095Y-90474190D01*
X170517333Y-89974190D02*
X170803047Y-89974190D01*
X170660190Y-90474190D02*
X170660190Y-89974190D01*
X170945904Y-90021809D02*
X170969714Y-89998000D01*
X171017333Y-89974190D01*
X171136380Y-89974190D01*
X171184000Y-89998000D01*
X171207809Y-90021809D01*
X171231619Y-90069428D01*
X171231619Y-90117047D01*
X171207809Y-90188476D01*
X170922095Y-90474190D01*
X171231619Y-90474190D01*
%TO.C,R11*%
X159806571Y-57630190D02*
X159639904Y-57392095D01*
X159520857Y-57630190D02*
X159520857Y-57130190D01*
X159711333Y-57130190D01*
X159758952Y-57154000D01*
X159782761Y-57177809D01*
X159806571Y-57225428D01*
X159806571Y-57296857D01*
X159782761Y-57344476D01*
X159758952Y-57368285D01*
X159711333Y-57392095D01*
X159520857Y-57392095D01*
X160282761Y-57630190D02*
X159997047Y-57630190D01*
X160139904Y-57630190D02*
X160139904Y-57130190D01*
X160092285Y-57201619D01*
X160044666Y-57249238D01*
X159997047Y-57273047D01*
X160758952Y-57630190D02*
X160473238Y-57630190D01*
X160616095Y-57630190D02*
X160616095Y-57130190D01*
X160568476Y-57201619D01*
X160520857Y-57249238D01*
X160473238Y-57273047D01*
%TO.C,LED1*%
X104342476Y-33373190D02*
X104104380Y-33373190D01*
X104104380Y-32873190D01*
X104509142Y-33111285D02*
X104675809Y-33111285D01*
X104747238Y-33373190D02*
X104509142Y-33373190D01*
X104509142Y-32873190D01*
X104747238Y-32873190D01*
X104961523Y-33373190D02*
X104961523Y-32873190D01*
X105080571Y-32873190D01*
X105152000Y-32897000D01*
X105199619Y-32944619D01*
X105223428Y-32992238D01*
X105247238Y-33087476D01*
X105247238Y-33158904D01*
X105223428Y-33254142D01*
X105199619Y-33301761D01*
X105152000Y-33349380D01*
X105080571Y-33373190D01*
X104961523Y-33373190D01*
X105723428Y-33373190D02*
X105437714Y-33373190D01*
X105580571Y-33373190D02*
X105580571Y-32873190D01*
X105532952Y-32944619D01*
X105485333Y-32992238D01*
X105437714Y-33016047D01*
%TO.C,R61*%
X184031771Y-61744990D02*
X183865104Y-61506895D01*
X183746057Y-61744990D02*
X183746057Y-61244990D01*
X183936533Y-61244990D01*
X183984152Y-61268800D01*
X184007961Y-61292609D01*
X184031771Y-61340228D01*
X184031771Y-61411657D01*
X184007961Y-61459276D01*
X183984152Y-61483085D01*
X183936533Y-61506895D01*
X183746057Y-61506895D01*
X184460342Y-61244990D02*
X184365104Y-61244990D01*
X184317485Y-61268800D01*
X184293676Y-61292609D01*
X184246057Y-61364038D01*
X184222247Y-61459276D01*
X184222247Y-61649752D01*
X184246057Y-61697371D01*
X184269866Y-61721180D01*
X184317485Y-61744990D01*
X184412723Y-61744990D01*
X184460342Y-61721180D01*
X184484152Y-61697371D01*
X184507961Y-61649752D01*
X184507961Y-61530704D01*
X184484152Y-61483085D01*
X184460342Y-61459276D01*
X184412723Y-61435466D01*
X184317485Y-61435466D01*
X184269866Y-61459276D01*
X184246057Y-61483085D01*
X184222247Y-61530704D01*
X184984152Y-61744990D02*
X184698438Y-61744990D01*
X184841295Y-61744990D02*
X184841295Y-61244990D01*
X184793676Y-61316419D01*
X184746057Y-61364038D01*
X184698438Y-61387847D01*
D12*
%TO.C,SW33*%
X142985800Y-41277400D02*
X142985800Y-45896400D01*
X142985800Y-41277400D02*
X142335800Y-41277400D01*
X139765800Y-41277400D02*
X139055800Y-41277400D01*
X142985800Y-45896400D02*
X142275800Y-45896400D01*
X142335800Y-39886400D02*
X142335800Y-41277400D01*
X139055800Y-41277400D02*
X139055800Y-45896400D01*
X139765800Y-45896400D02*
X139055800Y-45896400D01*
%TO.C,BOOT1*%
X144669200Y-47862800D02*
X147329200Y-47862800D01*
X144669200Y-42722800D02*
X144669200Y-47862800D01*
X144669200Y-41452800D02*
X144669200Y-40122800D01*
X147329200Y-42722800D02*
X147329200Y-47862800D01*
X144669200Y-40122800D02*
X145999200Y-40122800D01*
X144669200Y-42722800D02*
X147329200Y-42722800D01*
%TO.C,SW1*%
X171764000Y-102362000D02*
X171764000Y-104962000D01*
X169104000Y-99762000D02*
X170434000Y-99762000D01*
X169104000Y-102362000D02*
X171764000Y-102362000D01*
X169104000Y-102362000D02*
X169104000Y-104962000D01*
X169104000Y-104962000D02*
X171764000Y-104962000D01*
X169104000Y-101092000D02*
X169104000Y-99762000D01*
%TO.C,D1*%
X178332400Y-88598800D02*
X178332400Y-93998800D01*
X175032400Y-88598800D02*
X175032400Y-93998800D01*
X178332400Y-88598800D02*
X175032400Y-88598800D01*
D11*
%TO.C,MD2*%
X177703000Y-49314000D02*
X177703000Y-45174000D01*
X172563000Y-50244000D02*
X172563000Y-45174000D01*
D12*
%TO.C,U1*%
X159072000Y-64856000D02*
X159072000Y-63756000D01*
X158122000Y-64856000D02*
X159072000Y-64856000D01*
X168522000Y-66356000D02*
X168522000Y-64856000D01*
X158122000Y-66356000D02*
X158122000Y-64856000D01*
X168522000Y-64856000D02*
X167572000Y-64856000D01*
X167572000Y-64856000D02*
X167572000Y-59731000D01*
%TO.C,MCU1*%
X118261000Y-38942000D02*
X117881000Y-38942000D01*
X118261000Y-58267000D02*
X119261000Y-58267000D01*
X136501000Y-57487000D02*
X136501000Y-58267000D01*
X118261000Y-32522000D02*
X118261000Y-38942000D01*
X118261000Y-32522000D02*
X136501000Y-32522000D01*
X136501000Y-32522000D02*
X136501000Y-38942000D01*
X136501000Y-58267000D02*
X135501000Y-58267000D01*
X118261000Y-57487000D02*
X118261000Y-58267000D01*
%TO.C,R12*%
X156338000Y-60298359D02*
X156338000Y-60605641D01*
X157098000Y-60298359D02*
X157098000Y-60605641D01*
%TO.C,C41*%
X113485200Y-41550767D02*
X113485200Y-41258233D01*
X114505200Y-41550767D02*
X114505200Y-41258233D01*
%TO.C,C11*%
X167647000Y-53735000D02*
X167647000Y-54935000D01*
X163127000Y-57190563D02*
X163127000Y-57055000D01*
X162387000Y-54435000D02*
X162887000Y-54435000D01*
X163127000Y-57190563D02*
X164191437Y-58255000D01*
X163127000Y-54799437D02*
X163127000Y-54935000D01*
X162637000Y-54185000D02*
X162637000Y-54685000D01*
X164191437Y-58255000D02*
X167647000Y-58255000D01*
X164191437Y-53735000D02*
X167647000Y-53735000D01*
X163127000Y-54799437D02*
X164191437Y-53735000D01*
X167647000Y-58255000D02*
X167647000Y-57055000D01*
%TO.C,R62*%
X184733200Y-59538841D02*
X184733200Y-59231559D01*
X183973200Y-59538841D02*
X183973200Y-59231559D01*
%TO.C,IMU1*%
X132689600Y-65846000D02*
X131359600Y-65846000D01*
X133959600Y-63186000D02*
X141639600Y-63186000D01*
X133959600Y-65846000D02*
X141639600Y-65846000D01*
X141639600Y-65846000D02*
X141639600Y-63186000D01*
X133959600Y-65846000D02*
X133959600Y-63186000D01*
X131359600Y-65846000D02*
X131359600Y-64516000D01*
%TO.C,M3*%
X179065000Y-41843000D02*
X181665000Y-41843000D01*
X176465000Y-41843000D02*
X176465000Y-40513000D01*
X179065000Y-41843000D02*
X179065000Y-39183000D01*
X179065000Y-39183000D02*
X181665000Y-39183000D01*
X181665000Y-41843000D02*
X181665000Y-39183000D01*
X177795000Y-41843000D02*
X176465000Y-41843000D01*
%TO.C,R31*%
X153668759Y-51535600D02*
X153976041Y-51535600D01*
X153668759Y-50775600D02*
X153976041Y-50775600D01*
%TO.C,U0*%
X147466000Y-73696000D02*
X147466000Y-67686000D01*
X147466000Y-67686000D02*
X148726000Y-67686000D01*
X154286000Y-67686000D02*
X153026000Y-67686000D01*
X154286000Y-71446000D02*
X154286000Y-67686000D01*
%TO.C,C42*%
X117073000Y-40950335D02*
X117073000Y-40718665D01*
X116353000Y-40950335D02*
X116353000Y-40718665D01*
%TO.C,R21*%
X174776641Y-58673000D02*
X174469359Y-58673000D01*
X174776641Y-57913000D02*
X174469359Y-57913000D01*
%TO.C,SW31*%
X165475600Y-52205600D02*
X164475600Y-52205600D01*
X157275600Y-50205600D02*
X157275600Y-47605600D01*
X157475600Y-52155600D02*
X163275600Y-52155600D01*
X157375600Y-45655600D02*
X163375600Y-45655600D01*
X163475600Y-50205600D02*
X163475600Y-47605600D01*
X165475600Y-51205600D02*
X165475600Y-52205600D01*
%TO.C,M4*%
X122433000Y-71568000D02*
X119833000Y-71568000D01*
X123703000Y-71568000D02*
X125033000Y-71568000D01*
X125033000Y-71568000D02*
X125033000Y-72898000D01*
X122433000Y-71568000D02*
X122433000Y-74228000D01*
X119833000Y-71568000D02*
X119833000Y-74228000D01*
X122433000Y-74228000D02*
X119833000Y-74228000D01*
%TO.C,SW32*%
X157275600Y-42803600D02*
X157275600Y-40203600D01*
X165475600Y-43803600D02*
X165475600Y-44803600D01*
X157475600Y-44753600D02*
X163275600Y-44753600D01*
X163475600Y-42803600D02*
X163475600Y-40203600D01*
X157375600Y-38253600D02*
X163375600Y-38253600D01*
X165475600Y-44803600D02*
X164475600Y-44803600D01*
%TO.C,U2*%
X173550000Y-64856000D02*
X173550000Y-63756000D01*
X172600000Y-64856000D02*
X173550000Y-64856000D01*
X172600000Y-66356000D02*
X172600000Y-64856000D01*
X182050000Y-64856000D02*
X182050000Y-59731000D01*
X183000000Y-64856000D02*
X182050000Y-64856000D01*
X183000000Y-66356000D02*
X183000000Y-64856000D01*
%TO.C,CAM1*%
X104842000Y-41651000D02*
X104842000Y-40321000D01*
X104842000Y-40321000D02*
X106172000Y-40321000D01*
X104842000Y-45521000D02*
X107502000Y-45521000D01*
X107502000Y-42921000D02*
X107502000Y-45521000D01*
X104842000Y-42921000D02*
X104842000Y-45521000D01*
X104842000Y-42921000D02*
X107502000Y-42921000D01*
%TO.C,M1*%
X114935000Y-71568000D02*
X112335000Y-71568000D01*
X117535000Y-71568000D02*
X117535000Y-72898000D01*
X114935000Y-74228000D02*
X112335000Y-74228000D01*
X112335000Y-71568000D02*
X112335000Y-74228000D01*
X116205000Y-71568000D02*
X117535000Y-71568000D01*
X114935000Y-71568000D02*
X114935000Y-74228000D01*
%TO.C,C31*%
X117047600Y-43978565D02*
X117047600Y-44210235D01*
X116327600Y-43978565D02*
X116327600Y-44210235D01*
D11*
%TO.C,MD1*%
X116175000Y-64351000D02*
X116175000Y-68491000D01*
X121315000Y-63421000D02*
X121315000Y-68491000D01*
D12*
%TO.C,C2*%
X148931365Y-75848800D02*
X149163035Y-75848800D01*
X148931365Y-75128800D02*
X149163035Y-75128800D01*
%TO.C,C21*%
X178904437Y-53735000D02*
X182360000Y-53735000D01*
X177840000Y-57190563D02*
X178904437Y-58255000D01*
X177100000Y-54435000D02*
X177600000Y-54435000D01*
X177840000Y-54799437D02*
X177840000Y-54935000D01*
X177350000Y-54185000D02*
X177350000Y-54685000D01*
X177840000Y-54799437D02*
X178904437Y-53735000D01*
X182360000Y-53735000D02*
X182360000Y-54935000D01*
X178904437Y-58255000D02*
X182360000Y-58255000D01*
X182360000Y-58255000D02*
X182360000Y-57055000D01*
X177840000Y-57190563D02*
X177840000Y-57055000D01*
%TO.C,BAT1*%
X169104000Y-86101000D02*
X171764000Y-86101000D01*
X169104000Y-83501000D02*
X170434000Y-83501000D01*
X169104000Y-88701000D02*
X171764000Y-88701000D01*
X169104000Y-84831000D02*
X169104000Y-83501000D01*
X169104000Y-86101000D02*
X169104000Y-88701000D01*
X171764000Y-86101000D02*
X171764000Y-88701000D01*
%TO.C,R32*%
X153617959Y-43358800D02*
X153925241Y-43358800D01*
X153617959Y-44118800D02*
X153925241Y-44118800D01*
%TO.C,R22*%
X171626800Y-60247559D02*
X171626800Y-60554841D01*
X170866800Y-60247559D02*
X170866800Y-60554841D01*
%TO.C,M2*%
X171064000Y-41843000D02*
X171064000Y-39183000D01*
X169794000Y-41843000D02*
X168464000Y-41843000D01*
X168464000Y-41843000D02*
X168464000Y-40513000D01*
X173664000Y-41843000D02*
X173664000Y-39183000D01*
X171064000Y-41843000D02*
X173664000Y-41843000D01*
X171064000Y-39183000D02*
X173664000Y-39183000D01*
%TO.C,LED2*%
X148448000Y-33976000D02*
X148448000Y-36636000D01*
X143308000Y-33976000D02*
X143308000Y-36636000D01*
X151048000Y-33976000D02*
X151048000Y-35306000D01*
X149718000Y-33976000D02*
X151048000Y-33976000D01*
X148448000Y-36636000D02*
X143308000Y-36636000D01*
X148448000Y-33976000D02*
X143308000Y-33976000D01*
%TO.C,C1*%
X154834000Y-71131165D02*
X154834000Y-71362835D01*
X155554000Y-71131165D02*
X155554000Y-71362835D01*
%TO.C,BAT2*%
X169104000Y-93848000D02*
X171764000Y-93848000D01*
X169104000Y-92578000D02*
X169104000Y-91248000D01*
X169104000Y-91248000D02*
X170434000Y-91248000D01*
X169104000Y-96448000D02*
X171764000Y-96448000D01*
X169104000Y-93848000D02*
X169104000Y-96448000D01*
X171764000Y-93848000D02*
X171764000Y-96448000D01*
%TO.C,R11*%
X160300641Y-58673000D02*
X159993359Y-58673000D01*
X160300641Y-57913000D02*
X159993359Y-57913000D01*
%TO.C,LED1*%
X109713000Y-33976000D02*
X104573000Y-33976000D01*
X112313000Y-33976000D02*
X112313000Y-35306000D01*
X109713000Y-36636000D02*
X104573000Y-36636000D01*
X104573000Y-33976000D02*
X104573000Y-36636000D01*
X109713000Y-33976000D02*
X109713000Y-36636000D01*
X110983000Y-33976000D02*
X112313000Y-33976000D01*
%TO.C,R61*%
X183973200Y-63044041D02*
X183973200Y-62736759D01*
X184733200Y-63044041D02*
X184733200Y-62736759D01*
%TD*%
M02*
