%TF.GenerationSoftware,KiCad,Pcbnew,6.0.6-3a73a75311~116~ubuntu20.04.1*%
%TF.CreationDate,2022-07-05T17:12:33+08:00*%
%TF.ProjectId,ESP32_MAIN_V5,45535033-325f-44d4-9149-4e5f56352e6b,rev?*%
%TF.SameCoordinates,Original*%
%TF.FileFunction,Paste,Top*%
%TF.FilePolarity,Positive*%
%FSLAX46Y46*%
G04 Gerber Fmt 4.6, Leading zero omitted, Abs format (unit mm)*
G04 Created by KiCad (PCBNEW 6.0.6-3a73a75311~116~ubuntu20.04.1) date 2022-07-05 17:12:33*
%MOMM*%
%LPD*%
G01*
G04 APERTURE LIST*
G04 Aperture macros list*
%AMRoundRect*
0 Rectangle with rounded corners*
0 $1 Rounding radius*
0 $2 $3 $4 $5 $6 $7 $8 $9 X,Y pos of 4 corners*
0 Add a 4 corners polygon primitive as box body*
4,1,4,$2,$3,$4,$5,$6,$7,$8,$9,$2,$3,0*
0 Add four circle primitives for the rounded corners*
1,1,$1+$1,$2,$3*
1,1,$1+$1,$4,$5*
1,1,$1+$1,$6,$7*
1,1,$1+$1,$8,$9*
0 Add four rect primitives between the rounded corners*
20,1,$1+$1,$2,$3,$4,$5,0*
20,1,$1+$1,$4,$5,$6,$7,0*
20,1,$1+$1,$6,$7,$8,$9,0*
20,1,$1+$1,$8,$9,$2,$3,0*%
G04 Aperture macros list end*
%ADD10R,0.760000X1.250000*%
%ADD11R,1.800000X2.500000*%
%ADD12R,0.510000X1.100000*%
%ADD13R,5.250000X4.550000*%
%ADD14R,1.100000X4.600000*%
%ADD15R,5.000000X5.000000*%
%ADD16R,2.000000X0.900000*%
%ADD17R,0.900000X2.000000*%
%ADD18RoundRect,0.135000X-0.185000X0.135000X-0.185000X-0.135000X0.185000X-0.135000X0.185000X0.135000X0*%
%ADD19RoundRect,0.237500X0.237500X-0.300000X0.237500X0.300000X-0.237500X0.300000X-0.237500X-0.300000X0*%
%ADD20RoundRect,0.250000X-1.050000X-0.550000X1.050000X-0.550000X1.050000X0.550000X-1.050000X0.550000X0*%
%ADD21RoundRect,0.135000X0.185000X-0.135000X0.185000X0.135000X-0.185000X0.135000X-0.185000X-0.135000X0*%
%ADD22RoundRect,0.135000X-0.135000X-0.185000X0.135000X-0.185000X0.135000X0.185000X-0.135000X0.185000X0*%
%ADD23R,1.500000X2.000000*%
%ADD24R,3.800000X2.000000*%
%ADD25RoundRect,0.155000X0.155000X-0.212500X0.155000X0.212500X-0.155000X0.212500X-0.155000X-0.212500X0*%
%ADD26RoundRect,0.135000X0.135000X0.185000X-0.135000X0.185000X-0.135000X-0.185000X0.135000X-0.185000X0*%
%ADD27R,1.600000X1.400000*%
%ADD28RoundRect,0.155000X-0.155000X0.212500X-0.155000X-0.212500X0.155000X-0.212500X0.155000X0.212500X0*%
%ADD29RoundRect,0.155000X-0.212500X-0.155000X0.212500X-0.155000X0.212500X0.155000X-0.212500X0.155000X0*%
G04 APERTURE END LIST*
D10*
%TO.C,SW33*%
X141655800Y-40511400D03*
X140385800Y-40511400D03*
X140385800Y-46661400D03*
X141655800Y-46661400D03*
%TD*%
D11*
%TO.C,D1*%
X176682400Y-89998800D03*
X176682400Y-93998800D03*
%TD*%
D12*
%TO.C,MD2*%
X173133000Y-49794000D03*
X174133000Y-49794000D03*
X175133000Y-49794000D03*
X176133000Y-49794000D03*
X177133000Y-49794000D03*
X177133000Y-44694000D03*
X176133000Y-44694000D03*
X175133000Y-44694000D03*
X174133000Y-44694000D03*
X173133000Y-44694000D03*
%TD*%
D13*
%TO.C,U1*%
X166097000Y-73606000D03*
X160547000Y-73606000D03*
X160547000Y-68756000D03*
X166097000Y-68756000D03*
D14*
X166722000Y-62031000D03*
X165022000Y-62031000D03*
X163322000Y-62031000D03*
X161622000Y-62031000D03*
X159922000Y-62031000D03*
%TD*%
D15*
%TO.C,MCU1*%
X126381000Y-47632000D03*
D16*
X135881000Y-40132000D03*
X135881000Y-41402000D03*
X135881000Y-42672000D03*
X135881000Y-43942000D03*
X135881000Y-45212000D03*
X135881000Y-46482000D03*
X135881000Y-47752000D03*
X135881000Y-49022000D03*
X135881000Y-50292000D03*
X135881000Y-51562000D03*
X135881000Y-52832000D03*
X135881000Y-54102000D03*
X135881000Y-55372000D03*
X135881000Y-56642000D03*
D17*
X133096000Y-57642000D03*
X131826000Y-57642000D03*
X130556000Y-57642000D03*
X129286000Y-57642000D03*
X128016000Y-57642000D03*
X126746000Y-57642000D03*
X125476000Y-57642000D03*
X124206000Y-57642000D03*
X122936000Y-57642000D03*
X121666000Y-57642000D03*
D16*
X118881000Y-56642000D03*
X118881000Y-55372000D03*
X118881000Y-54102000D03*
X118881000Y-52832000D03*
X118881000Y-51562000D03*
X118881000Y-50292000D03*
X118881000Y-49022000D03*
X118881000Y-47752000D03*
X118881000Y-46482000D03*
X118881000Y-45212000D03*
X118881000Y-43942000D03*
X118881000Y-42672000D03*
X118881000Y-41402000D03*
X118881000Y-40132000D03*
%TD*%
D18*
%TO.C,R12*%
X156718000Y-59942000D03*
X156718000Y-60962000D03*
%TD*%
D19*
%TO.C,C41*%
X113995200Y-42267000D03*
X113995200Y-40542000D03*
%TD*%
D20*
%TO.C,C11*%
X163587000Y-55995000D03*
X167187000Y-55995000D03*
%TD*%
D21*
%TO.C,R62*%
X184353200Y-59895200D03*
X184353200Y-58875200D03*
%TD*%
D22*
%TO.C,R31*%
X153312400Y-51155600D03*
X154332400Y-51155600D03*
%TD*%
D23*
%TO.C,U0*%
X148576000Y-72746000D03*
X150876000Y-72746000D03*
D24*
X150876000Y-66446000D03*
D23*
X153176000Y-72746000D03*
%TD*%
D25*
%TO.C,C42*%
X116713000Y-41402000D03*
X116713000Y-40267000D03*
%TD*%
D26*
%TO.C,R21*%
X175133000Y-58293000D03*
X174113000Y-58293000D03*
%TD*%
D27*
%TO.C,SW31*%
X156375600Y-51155600D03*
X164375600Y-51155600D03*
X164375600Y-46655600D03*
X156375600Y-46655600D03*
%TD*%
%TO.C,SW32*%
X164375600Y-43753600D03*
X156375600Y-43753600D03*
X164375600Y-39253600D03*
X156375600Y-39253600D03*
%TD*%
D13*
%TO.C,U2*%
X180575000Y-68756000D03*
X175025000Y-73606000D03*
X180575000Y-73606000D03*
X175025000Y-68756000D03*
D14*
X181200000Y-62031000D03*
X179500000Y-62031000D03*
X177800000Y-62031000D03*
X176100000Y-62031000D03*
X174400000Y-62031000D03*
%TD*%
D28*
%TO.C,C31*%
X116687600Y-44661900D03*
X116687600Y-43526900D03*
%TD*%
D12*
%TO.C,MD1*%
X120745000Y-63871000D03*
X119745000Y-63871000D03*
X118745000Y-63871000D03*
X117745000Y-63871000D03*
X116745000Y-63871000D03*
X116745000Y-68971000D03*
X117745000Y-68971000D03*
X118745000Y-68971000D03*
X119745000Y-68971000D03*
X120745000Y-68971000D03*
%TD*%
D29*
%TO.C,C2*%
X148479700Y-75488800D03*
X149614700Y-75488800D03*
%TD*%
D20*
%TO.C,C21*%
X178300000Y-55995000D03*
X181900000Y-55995000D03*
%TD*%
D22*
%TO.C,R32*%
X153261600Y-43738800D03*
X154281600Y-43738800D03*
%TD*%
D18*
%TO.C,R22*%
X171246800Y-59891200D03*
X171246800Y-60911200D03*
%TD*%
D28*
%TO.C,C1*%
X155194000Y-71814500D03*
X155194000Y-70679500D03*
%TD*%
D26*
%TO.C,R11*%
X160657000Y-58293000D03*
X159637000Y-58293000D03*
%TD*%
D21*
%TO.C,R61*%
X184353200Y-63400400D03*
X184353200Y-62380400D03*
%TD*%
M02*
