%TF.GenerationSoftware,KiCad,Pcbnew,6.0.6-3a73a75311~116~ubuntu20.04.1*%
%TF.CreationDate,2022-07-28T16:32:40+08:00*%
%TF.ProjectId,Board1,426f6172-6431-42e6-9b69-6361645f7063,rev?*%
%TF.SameCoordinates,Original*%
%TF.FileFunction,Soldermask,Top*%
%TF.FilePolarity,Negative*%
%FSLAX46Y46*%
G04 Gerber Fmt 4.6, Leading zero omitted, Abs format (unit mm)*
G04 Created by KiCad (PCBNEW 6.0.6-3a73a75311~116~ubuntu20.04.1) date 2022-07-28 16:32:40*
%MOMM*%
%LPD*%
G01*
G04 APERTURE LIST*
G04 Aperture macros list*
%AMRoundRect*
0 Rectangle with rounded corners*
0 $1 Rounding radius*
0 $2 $3 $4 $5 $6 $7 $8 $9 X,Y pos of 4 corners*
0 Add a 4 corners polygon primitive as box body*
4,1,4,$2,$3,$4,$5,$6,$7,$8,$9,$2,$3,0*
0 Add four circle primitives for the rounded corners*
1,1,$1+$1,$2,$3*
1,1,$1+$1,$4,$5*
1,1,$1+$1,$6,$7*
1,1,$1+$1,$8,$9*
0 Add four rect primitives between the rounded corners*
20,1,$1+$1,$2,$3,$4,$5,0*
20,1,$1+$1,$4,$5,$6,$7,0*
20,1,$1+$1,$6,$7,$8,$9,0*
20,1,$1+$1,$8,$9,$2,$3,0*%
G04 Aperture macros list end*
%ADD10R,1.550000X1.300000*%
%ADD11C,3.800000*%
%ADD12R,1.700000X1.700000*%
%ADD13O,1.700000X1.700000*%
%ADD14RoundRect,0.135000X-0.135000X-0.185000X0.135000X-0.185000X0.135000X0.185000X-0.135000X0.185000X0*%
%ADD15RoundRect,0.135000X0.135000X0.185000X-0.135000X0.185000X-0.135000X-0.185000X0.135000X-0.185000X0*%
%ADD16RoundRect,0.100000X-0.100000X0.130000X-0.100000X-0.130000X0.100000X-0.130000X0.100000X0.130000X0*%
%ADD17RoundRect,0.100000X-0.130000X-0.100000X0.130000X-0.100000X0.130000X0.100000X-0.130000X0.100000X0*%
%ADD18RoundRect,0.100000X0.100000X-0.130000X0.100000X0.130000X-0.100000X0.130000X-0.100000X-0.130000X0*%
%ADD19R,2.000000X0.900000*%
%ADD20R,0.900000X2.000000*%
%ADD21R,5.000000X5.000000*%
%ADD22RoundRect,0.135000X0.185000X-0.135000X0.185000X0.135000X-0.185000X0.135000X-0.185000X-0.135000X0*%
%ADD23R,2.000000X1.500000*%
%ADD24R,2.000000X3.800000*%
G04 APERTURE END LIST*
D10*
%TO.C,SW76*%
X164565600Y-74204000D03*
X172525600Y-74204000D03*
X164565600Y-78704000D03*
X172525600Y-78704000D03*
%TD*%
%TO.C,SW75*%
X176932000Y-65024000D03*
X184892000Y-65024000D03*
X176932000Y-69524000D03*
X184892000Y-69524000D03*
%TD*%
%TO.C,SW74*%
X177426800Y-74204000D03*
X185386800Y-74204000D03*
X177426800Y-78704000D03*
X185386800Y-78704000D03*
%TD*%
%TO.C,SW73*%
X164301600Y-65024000D03*
X172261600Y-65024000D03*
X164301600Y-69524000D03*
X172261600Y-69524000D03*
%TD*%
%TO.C,SW72*%
X151671200Y-65024000D03*
X159631200Y-65024000D03*
X151671200Y-69524000D03*
X159631200Y-69524000D03*
%TD*%
%TO.C,SW71*%
X151874400Y-74204000D03*
X159834400Y-74204000D03*
X151874400Y-78704000D03*
X159834400Y-78704000D03*
%TD*%
%TO.C,SW64*%
X91371600Y-82941600D03*
X99331600Y-82941600D03*
X91371600Y-87441600D03*
X99331600Y-87441600D03*
%TD*%
%TO.C,SW63*%
X103995400Y-73340400D03*
X111955400Y-73340400D03*
X103995400Y-77840400D03*
X111955400Y-77840400D03*
%TD*%
%TO.C,SW62*%
X78747800Y-73289600D03*
X86707800Y-73289600D03*
X78747800Y-77789600D03*
X86707800Y-77789600D03*
%TD*%
%TO.C,SW61*%
X91371600Y-63637600D03*
X99331600Y-63637600D03*
X91371600Y-68137600D03*
X99331600Y-68137600D03*
%TD*%
%TO.C,SW51*%
X104198600Y-83043200D03*
X112158600Y-83043200D03*
X104198600Y-87543200D03*
X112158600Y-87543200D03*
%TD*%
%TO.C,SW31*%
X103995400Y-63637600D03*
X111955400Y-63637600D03*
X103995400Y-68137600D03*
X111955400Y-68137600D03*
%TD*%
D11*
%TO.C,H1*%
X67192097Y-82804098D03*
%TD*%
%TO.C,H2*%
X150012399Y-57239178D03*
%TD*%
%TO.C,H3*%
X191527600Y-82804000D03*
%TD*%
%TO.C,H4*%
X108254800Y-57556400D03*
%TD*%
D12*
%TO.C,J41*%
X184632200Y-85059200D03*
D13*
X184632200Y-87599200D03*
%TD*%
D14*
%TO.C,R41*%
X172260800Y-88747600D03*
X173280800Y-88747600D03*
%TD*%
%TO.C,R42*%
X176680400Y-88747600D03*
X177700400Y-88747600D03*
%TD*%
%TO.C,R74*%
X146200400Y-68701920D03*
X147220400Y-68701920D03*
%TD*%
D15*
%TO.C,R61*%
X117553200Y-78232000D03*
X116533200Y-78232000D03*
%TD*%
D16*
%TO.C,D82*%
X81432400Y-64880700D03*
X81432400Y-65520700D03*
%TD*%
D17*
%TO.C,C31*%
X117363200Y-75844400D03*
X116723200Y-75844400D03*
%TD*%
%TO.C,C11*%
X162290800Y-84124800D03*
X162930800Y-84124800D03*
%TD*%
D18*
%TO.C,C51*%
X140258800Y-84109600D03*
X140258800Y-84749600D03*
%TD*%
D17*
%TO.C,C12*%
X162290800Y-86563200D03*
X162930800Y-86563200D03*
%TD*%
D19*
%TO.C,U2*%
X120735200Y-67556200D03*
X120735200Y-68826200D03*
X120735200Y-70096200D03*
X120735200Y-71366200D03*
X120735200Y-72636200D03*
X120735200Y-73906200D03*
X120735200Y-75176200D03*
X120735200Y-76446200D03*
X120735200Y-77716200D03*
X120735200Y-78986200D03*
X120735200Y-80256200D03*
X120735200Y-81526200D03*
X120735200Y-82796200D03*
X120735200Y-84066200D03*
D20*
X123520200Y-85066200D03*
X124790200Y-85066200D03*
X126060200Y-85066200D03*
X127330200Y-85066200D03*
X128600200Y-85066200D03*
X129870200Y-85066200D03*
X131140200Y-85066200D03*
X132410200Y-85066200D03*
X133680200Y-85066200D03*
X134950200Y-85066200D03*
D19*
X137735200Y-84066200D03*
X137735200Y-82796200D03*
X137735200Y-81526200D03*
X137735200Y-80256200D03*
X137735200Y-78986200D03*
X137735200Y-77716200D03*
X137735200Y-76446200D03*
X137735200Y-75176200D03*
X137735200Y-73906200D03*
X137735200Y-72636200D03*
X137735200Y-71366200D03*
X137735200Y-70096200D03*
X137735200Y-68826200D03*
X137735200Y-67556200D03*
D21*
X128235200Y-75056200D03*
%TD*%
D14*
%TO.C,R73*%
X146200400Y-71404480D03*
X147220400Y-71404480D03*
%TD*%
D22*
%TO.C,R81*%
X85293200Y-69242400D03*
X85293200Y-68222400D03*
%TD*%
D15*
%TO.C,R62*%
X117553200Y-80721200D03*
X116533200Y-80721200D03*
%TD*%
D14*
%TO.C,R75*%
X146200400Y-65999360D03*
X147220400Y-65999360D03*
%TD*%
%TO.C,R31*%
X117553200Y-71170800D03*
X116533200Y-71170800D03*
%TD*%
D23*
%TO.C,U1*%
X159156800Y-83348800D03*
D24*
X152856800Y-85648800D03*
D23*
X159156800Y-85648800D03*
X159156800Y-87948800D03*
%TD*%
D13*
%TO.C,J51*%
X146685400Y-79842600D03*
X146685400Y-82382600D03*
D12*
X146685400Y-84922600D03*
%TD*%
D17*
%TO.C,C41*%
X117363200Y-68834000D03*
X116723200Y-68834000D03*
%TD*%
D14*
%TO.C,R76*%
X146200400Y-74107040D03*
X147220400Y-74107040D03*
%TD*%
D15*
%TO.C,R64*%
X117553200Y-85801200D03*
X116533200Y-85801200D03*
%TD*%
D14*
%TO.C,R71*%
X146200400Y-76809600D03*
X147220400Y-76809600D03*
%TD*%
%TO.C,R72*%
X146200400Y-63296800D03*
X147220400Y-63296800D03*
%TD*%
%TO.C,R51*%
X116533200Y-88290400D03*
X117553200Y-88290400D03*
%TD*%
D15*
%TO.C,R63*%
X117553200Y-83261200D03*
X116533200Y-83261200D03*
%TD*%
D22*
%TO.C,R82*%
X81432400Y-69191600D03*
X81432400Y-68171600D03*
%TD*%
D16*
%TO.C,D81*%
X85293200Y-64907200D03*
X85293200Y-65547200D03*
%TD*%
D17*
%TO.C,C42*%
X117363200Y-73507600D03*
X116723200Y-73507600D03*
%TD*%
M02*
