%TF.GenerationSoftware,KiCad,Pcbnew,6.0.6-3a73a75311~116~ubuntu20.04.1*%
%TF.CreationDate,2022-07-28T16:32:39+08:00*%
%TF.ProjectId,Board1,426f6172-6431-42e6-9b69-6361645f7063,rev?*%
%TF.SameCoordinates,Original*%
%TF.FileFunction,Copper,L2,Bot*%
%TF.FilePolarity,Positive*%
%FSLAX46Y46*%
G04 Gerber Fmt 4.6, Leading zero omitted, Abs format (unit mm)*
G04 Created by KiCad (PCBNEW 6.0.6-3a73a75311~116~ubuntu20.04.1) date 2022-07-28 16:32:39*
%MOMM*%
%LPD*%
G01*
G04 APERTURE LIST*
%TA.AperFunction,ComponentPad*%
%ADD10C,3.800000*%
%TD*%
%TA.AperFunction,ComponentPad*%
%ADD11R,1.700000X1.700000*%
%TD*%
%TA.AperFunction,ComponentPad*%
%ADD12O,1.700000X1.700000*%
%TD*%
%TA.AperFunction,ViaPad*%
%ADD13C,0.800000*%
%TD*%
%TA.AperFunction,Conductor*%
%ADD14C,0.180000*%
%TD*%
%TA.AperFunction,Conductor*%
%ADD15C,0.300000*%
%TD*%
%TA.AperFunction,Conductor*%
%ADD16C,0.200000*%
%TD*%
G04 APERTURE END LIST*
D10*
%TO.P,H1,1,1*%
%TO.N,GND*%
X67192097Y-82804098D03*
%TD*%
%TO.P,H2,1,1*%
%TO.N,GND*%
X150012399Y-57239178D03*
%TD*%
%TO.P,H3,1,1*%
%TO.N,GND*%
X191527600Y-82804000D03*
%TD*%
%TO.P,H4,1,1*%
%TO.N,GND*%
X108254800Y-57556400D03*
%TD*%
D11*
%TO.P,J41,1,Pin_1*%
%TO.N,VIN*%
X184632200Y-85059200D03*
D12*
%TO.P,J41,2,Pin_2*%
%TO.N,GND*%
X184632200Y-87599200D03*
%TD*%
%TO.P,J51,3,Pin_3*%
%TO.N,GND*%
X146685400Y-79842600D03*
%TO.P,J51,2,Pin_2*%
%TO.N,TX*%
X146685400Y-82382600D03*
D11*
%TO.P,J51,1,Pin_1*%
%TO.N,RX*%
X146685400Y-84922600D03*
%TD*%
D13*
%TO.N,19*%
X141122400Y-76454000D03*
%TO.N,GND*%
X145034000Y-71120000D03*
X148844000Y-71170800D03*
%TO.N,21*%
X139590600Y-73906200D03*
%TO.N,GND*%
X148336000Y-64008000D03*
X165049200Y-87833200D03*
%TO.N,3.3V*%
X80568800Y-73304400D03*
X84683600Y-73304400D03*
%TO.N,25*%
X84734400Y-77774800D03*
X80568800Y-77774800D03*
%TO.N,GND*%
X117957600Y-66954400D03*
X115011200Y-81330800D03*
X108508800Y-83058000D03*
X149047200Y-73914000D03*
X145084800Y-74422000D03*
X148793200Y-66903600D03*
%TO.N,3.3V*%
X117805200Y-89592100D03*
X146913600Y-89103200D03*
%TO.N,GND*%
X118516400Y-69240400D03*
X117754400Y-72390000D03*
%TO.N,BOOT*%
X127914400Y-89458800D03*
X123647200Y-89509600D03*
X131114800Y-89154000D03*
X134416800Y-89165700D03*
%TO.N,LED2*%
X128828800Y-88278700D03*
%TO.N,LED1*%
X129997200Y-87579200D03*
%TO.N,LED2*%
X133299200Y-88290400D03*
%TO.N,LED1*%
X132334000Y-87579200D03*
%TO.N,3.3V*%
X114960400Y-69252100D03*
X114147600Y-70764400D03*
%TO.N,21*%
X163982400Y-76250800D03*
X161899600Y-72796400D03*
%TO.N,17*%
X162306000Y-75793600D03*
X160477200Y-72542400D03*
%TO.N,25*%
X88188800Y-79705200D03*
X90424000Y-79705200D03*
X111150400Y-79705200D03*
X113030000Y-79705200D03*
%TO.N,21*%
X142240000Y-72694800D03*
%TO.N,22*%
X148793200Y-65227200D03*
X154330400Y-66649600D03*
%TO.N,19*%
X147624800Y-70002400D03*
X153111200Y-67404822D03*
%TO.N,16*%
X148132800Y-75488800D03*
X150368000Y-77216000D03*
%TO.N,GND*%
X114452400Y-77876400D03*
X115468400Y-74726800D03*
%TO.N,16*%
X144729200Y-77368400D03*
%TO.N,17*%
X144526000Y-76250800D03*
%TO.N,19*%
X143510000Y-74117200D03*
%TO.N,16*%
X140563600Y-81534000D03*
%TO.N,17*%
X140555800Y-80256200D03*
%TD*%
D14*
%TO.N,19*%
X143510000Y-74117200D02*
X141173200Y-76454000D01*
X141173200Y-76454000D02*
X141122400Y-76454000D01*
%TO.N,21*%
X139590600Y-73906200D02*
X141028600Y-73906200D01*
X141028600Y-73906200D02*
X142240000Y-72694800D01*
D15*
%TO.N,3.3V*%
X84683600Y-73304400D02*
X80568800Y-73304400D01*
D14*
%TO.N,25*%
X80568800Y-77774800D02*
X84734400Y-77774800D01*
D15*
%TO.N,3.3V*%
X146913600Y-89103200D02*
X146913600Y-89154000D01*
X146913600Y-89154000D02*
X145491200Y-90576400D01*
X145491200Y-90576400D02*
X118770400Y-90576400D01*
X118770400Y-90576400D02*
X117805200Y-89611200D01*
X117805200Y-89611200D02*
X117805200Y-89592100D01*
D16*
%TO.N,BOOT*%
X127914400Y-89458800D02*
X127863600Y-89509600D01*
X127863600Y-89509600D02*
X123647200Y-89509600D01*
%TO.N,LED2*%
X128828800Y-88278700D02*
X128829300Y-88279200D01*
X128829300Y-88279200D02*
X133288000Y-88279200D01*
X133288000Y-88279200D02*
X133299200Y-88290400D01*
%TO.N,BOOT*%
X131114800Y-89154000D02*
X131396200Y-89154000D01*
X131396200Y-89154000D02*
X131407900Y-89165700D01*
X131407900Y-89165700D02*
X134416800Y-89165700D01*
%TO.N,LED1*%
X132334000Y-87579200D02*
X129997200Y-87579200D01*
D15*
%TO.N,3.3V*%
X114147600Y-70764400D02*
X114960400Y-69951600D01*
X114960400Y-69951600D02*
X114960400Y-69252100D01*
D16*
%TO.N,21*%
X161899600Y-72796400D02*
X163017200Y-73914000D01*
X163017200Y-73914000D02*
X163017200Y-75285600D01*
X163017200Y-75285600D02*
X163982400Y-76250800D01*
%TO.N,17*%
X160477200Y-72542400D02*
X162306000Y-74371200D01*
X162306000Y-74371200D02*
X162306000Y-75793600D01*
%TO.N,19*%
X153111200Y-67404822D02*
X153104422Y-67411600D01*
X153104422Y-67411600D02*
X150215600Y-67411600D01*
X150215600Y-67411600D02*
X147624800Y-70002400D01*
%TO.N,22*%
X148793200Y-65227200D02*
X148844000Y-65227200D01*
X150266400Y-66649600D02*
X154330400Y-66649600D01*
X148844000Y-65227200D02*
X150266400Y-66649600D01*
%TO.N,25*%
X90424000Y-79705200D02*
X88188800Y-79705200D01*
X113030000Y-79705200D02*
X111150400Y-79705200D01*
%TO.N,16*%
X150368000Y-77216000D02*
X148640800Y-75488800D01*
X148640800Y-75488800D02*
X148132800Y-75488800D01*
%TO.N,17*%
X144526000Y-76250800D02*
X140555800Y-80221000D01*
X140555800Y-80221000D02*
X140555800Y-80256200D01*
%TO.N,16*%
X140563600Y-81534000D02*
X144729200Y-77368400D01*
%TD*%
%TA.AperFunction,Conductor*%
%TO.N,GND*%
G36*
X108407301Y-53751202D02*
G01*
X108642388Y-53751202D01*
X108652476Y-53751606D01*
X109121159Y-53789251D01*
X109131182Y-53790462D01*
X109453670Y-53842604D01*
X109595344Y-53865511D01*
X109605232Y-53867519D01*
X109819485Y-53920053D01*
X110061889Y-53979489D01*
X110071590Y-53982284D01*
X110517816Y-54130455D01*
X110527263Y-54134018D01*
X110960203Y-54317445D01*
X110969322Y-54321748D01*
X111386182Y-54539245D01*
X111394938Y-54544270D01*
X111793040Y-54794442D01*
X111801367Y-54800152D01*
X112178168Y-55081399D01*
X112186010Y-55087757D01*
X112539082Y-55398267D01*
X112546390Y-55405233D01*
X112873465Y-55743013D01*
X112880192Y-55750542D01*
X113179177Y-56113431D01*
X113185264Y-56121453D01*
X113240455Y-56200587D01*
X113454243Y-56507124D01*
X113459682Y-56515630D01*
X113696911Y-56921586D01*
X113701651Y-56930500D01*
X113905611Y-57354133D01*
X113909623Y-57363398D01*
X114079014Y-57802013D01*
X114082267Y-57811556D01*
X114216003Y-58262344D01*
X114218479Y-58272105D01*
X114297343Y-58645313D01*
X114315692Y-58732147D01*
X114317382Y-58742098D01*
X114377450Y-59208442D01*
X114377450Y-59208443D01*
X114378336Y-59218490D01*
X114399015Y-59649415D01*
X114397808Y-59673859D01*
X114397187Y-59678064D01*
X114397187Y-59678068D01*
X114395876Y-59686948D01*
X114397110Y-59695840D01*
X114399904Y-59715973D01*
X114401100Y-59733293D01*
X114401100Y-65929777D01*
X114401098Y-65930547D01*
X114400624Y-66008121D01*
X114404306Y-66021003D01*
X114408750Y-66036553D01*
X114412328Y-66053315D01*
X114416520Y-66082587D01*
X114420234Y-66090755D01*
X114420234Y-66090756D01*
X114427148Y-66105962D01*
X114433596Y-66123486D01*
X114440651Y-66148171D01*
X114445443Y-66155765D01*
X114445444Y-66155768D01*
X114456430Y-66173180D01*
X114464569Y-66188263D01*
X114476808Y-66215182D01*
X114482669Y-66221984D01*
X114493570Y-66234635D01*
X114504673Y-66249639D01*
X114518376Y-66271358D01*
X114525101Y-66277297D01*
X114525104Y-66277301D01*
X114540538Y-66290932D01*
X114552582Y-66303124D01*
X114566027Y-66318727D01*
X114566030Y-66318729D01*
X114571887Y-66325527D01*
X114579416Y-66330407D01*
X114579417Y-66330408D01*
X114593435Y-66339494D01*
X114608309Y-66350785D01*
X114620817Y-66361831D01*
X114627551Y-66367778D01*
X114654311Y-66380342D01*
X114669291Y-66388663D01*
X114686583Y-66399871D01*
X114686588Y-66399873D01*
X114694115Y-66404752D01*
X114702708Y-66407322D01*
X114702713Y-66407324D01*
X114718720Y-66412111D01*
X114736164Y-66418772D01*
X114751276Y-66425867D01*
X114751278Y-66425868D01*
X114759400Y-66429681D01*
X114768267Y-66431062D01*
X114768268Y-66431062D01*
X114770953Y-66431480D01*
X114788617Y-66434230D01*
X114805332Y-66438013D01*
X114825066Y-66443915D01*
X114825072Y-66443916D01*
X114833666Y-66446486D01*
X114842637Y-66446541D01*
X114842638Y-66446541D01*
X114852697Y-66446602D01*
X114868106Y-66446696D01*
X114868889Y-66446729D01*
X114869986Y-66446900D01*
X114900977Y-66446900D01*
X114901747Y-66446902D01*
X114975385Y-66447352D01*
X114975386Y-66447352D01*
X114979321Y-66447376D01*
X114980665Y-66446992D01*
X114982010Y-66446900D01*
X143501378Y-66446900D01*
X143502149Y-66446902D01*
X143579713Y-66447377D01*
X143608152Y-66439250D01*
X143624910Y-66435673D01*
X143645300Y-66432753D01*
X143645301Y-66432753D01*
X143654187Y-66431480D01*
X143662358Y-66427765D01*
X143662361Y-66427764D01*
X143677564Y-66420852D01*
X143695089Y-66414404D01*
X143703112Y-66412111D01*
X143719764Y-66407352D01*
X143744772Y-66391574D01*
X143759852Y-66383436D01*
X143786782Y-66371192D01*
X143806230Y-66354435D01*
X143821241Y-66343328D01*
X143835359Y-66334420D01*
X143835360Y-66334419D01*
X143842952Y-66329629D01*
X143848892Y-66322903D01*
X143848896Y-66322900D01*
X143862533Y-66307459D01*
X143874720Y-66295420D01*
X143897127Y-66276113D01*
X143902014Y-66268574D01*
X143911092Y-66254570D01*
X143922380Y-66239698D01*
X143933431Y-66227185D01*
X143939374Y-66220456D01*
X143945688Y-66207009D01*
X143951943Y-66193685D01*
X143960267Y-66178700D01*
X143971470Y-66161416D01*
X143976352Y-66153885D01*
X143978922Y-66145290D01*
X143978925Y-66145284D01*
X143983709Y-66129286D01*
X143990372Y-66111837D01*
X143992292Y-66107748D01*
X144001279Y-66088608D01*
X144002660Y-66079738D01*
X144002662Y-66079732D01*
X144005832Y-66059377D01*
X144009613Y-66042665D01*
X144011441Y-66036553D01*
X144018086Y-66014334D01*
X144018296Y-65979894D01*
X144018329Y-65979114D01*
X144018499Y-65978022D01*
X144018500Y-65947102D01*
X144018502Y-65946337D01*
X144018952Y-65872613D01*
X144018976Y-65868679D01*
X144018593Y-65867337D01*
X144018501Y-65865991D01*
X144018599Y-59741042D01*
X144020254Y-59720691D01*
X144023725Y-59699498D01*
X144022631Y-59690586D01*
X144022631Y-59690582D01*
X144021120Y-59678276D01*
X144020326Y-59656885D01*
X144038496Y-59278248D01*
X144041364Y-59218490D01*
X144042250Y-59208442D01*
X144042251Y-59208441D01*
X144054471Y-59113572D01*
X148502713Y-59113572D01*
X148511542Y-59125192D01*
X148716369Y-59274008D01*
X148723049Y-59278248D01*
X148981633Y-59420406D01*
X148988768Y-59423763D01*
X149263145Y-59532397D01*
X149270636Y-59534831D01*
X149556458Y-59608217D01*
X149564229Y-59609699D01*
X149856969Y-59646681D01*
X149864859Y-59647178D01*
X150159939Y-59647178D01*
X150167829Y-59646681D01*
X150460569Y-59609699D01*
X150468340Y-59608217D01*
X150754162Y-59534831D01*
X150761653Y-59532397D01*
X151036030Y-59423763D01*
X151043165Y-59420406D01*
X151301749Y-59278248D01*
X151308429Y-59274008D01*
X151513629Y-59124922D01*
X151522052Y-59113999D01*
X151515148Y-59101138D01*
X150025209Y-57611198D01*
X150011268Y-57603586D01*
X150009433Y-57603717D01*
X150002819Y-57607968D01*
X148509326Y-59101462D01*
X148502713Y-59113572D01*
X144054471Y-59113572D01*
X144102319Y-58742102D01*
X144104009Y-58732150D01*
X144201221Y-58272116D01*
X144203702Y-58262333D01*
X144337435Y-57811557D01*
X144340684Y-57802025D01*
X144510080Y-57363398D01*
X144514091Y-57354135D01*
X144567532Y-57243136D01*
X147599887Y-57243136D01*
X147618414Y-57537614D01*
X147619407Y-57545475D01*
X147674695Y-57835306D01*
X147676666Y-57842983D01*
X147767845Y-58123602D01*
X147770760Y-58130965D01*
X147896392Y-58397948D01*
X147900204Y-58404881D01*
X148058308Y-58654013D01*
X148062962Y-58660419D01*
X148127920Y-58738939D01*
X148140439Y-58747395D01*
X148151177Y-58741189D01*
X149640379Y-57251988D01*
X149646756Y-57240309D01*
X150376807Y-57240309D01*
X150376938Y-57242144D01*
X150381189Y-57248758D01*
X151872518Y-58740086D01*
X151885780Y-58747328D01*
X151895884Y-58740140D01*
X151961836Y-58660419D01*
X151966490Y-58654013D01*
X152124594Y-58404881D01*
X152128406Y-58397948D01*
X152254038Y-58130965D01*
X152256953Y-58123602D01*
X152348132Y-57842983D01*
X152350103Y-57835306D01*
X152405391Y-57545475D01*
X152406384Y-57537614D01*
X152424911Y-57243136D01*
X152424911Y-57235220D01*
X152406384Y-56940742D01*
X152405391Y-56932881D01*
X152350103Y-56643050D01*
X152348132Y-56635373D01*
X152256953Y-56354754D01*
X152254038Y-56347391D01*
X152128406Y-56080408D01*
X152124594Y-56073475D01*
X151966490Y-55824343D01*
X151961836Y-55817937D01*
X151896878Y-55739417D01*
X151884359Y-55730961D01*
X151873621Y-55737167D01*
X150384419Y-57226368D01*
X150376807Y-57240309D01*
X149646756Y-57240309D01*
X149647991Y-57238047D01*
X149647860Y-57236212D01*
X149643609Y-57229598D01*
X148152280Y-55738270D01*
X148139018Y-55731028D01*
X148128914Y-55738216D01*
X148062962Y-55817937D01*
X148058308Y-55824343D01*
X147900204Y-56073475D01*
X147896392Y-56080408D01*
X147770760Y-56347391D01*
X147767845Y-56354754D01*
X147676666Y-56635373D01*
X147674695Y-56643050D01*
X147619407Y-56932881D01*
X147618414Y-56940742D01*
X147599887Y-57235220D01*
X147599887Y-57243136D01*
X144567532Y-57243136D01*
X144718052Y-56930502D01*
X144722792Y-56921588D01*
X144960021Y-56515633D01*
X144965460Y-56507127D01*
X145234431Y-56121467D01*
X145240534Y-56113424D01*
X145531745Y-55759974D01*
X145539516Y-55750542D01*
X145546238Y-55743019D01*
X145549726Y-55739417D01*
X145873319Y-55405233D01*
X145880622Y-55398272D01*
X145910706Y-55371815D01*
X145919186Y-55364357D01*
X148502746Y-55364357D01*
X148509650Y-55377218D01*
X149999589Y-56867158D01*
X150013530Y-56874770D01*
X150015365Y-56874639D01*
X150021979Y-56870388D01*
X151515472Y-55376894D01*
X151522085Y-55364784D01*
X151513256Y-55353164D01*
X151308429Y-55204348D01*
X151301749Y-55200108D01*
X151043165Y-55057950D01*
X151036030Y-55054593D01*
X150761653Y-54945959D01*
X150754162Y-54943525D01*
X150468340Y-54870139D01*
X150460569Y-54868657D01*
X150167829Y-54831675D01*
X150159939Y-54831178D01*
X149864859Y-54831178D01*
X149856969Y-54831675D01*
X149564229Y-54868657D01*
X149556458Y-54870139D01*
X149270636Y-54943525D01*
X149263145Y-54945959D01*
X148988768Y-55054593D01*
X148981633Y-55057950D01*
X148723049Y-55200108D01*
X148716369Y-55204348D01*
X148511169Y-55353434D01*
X148502746Y-55364357D01*
X145919186Y-55364357D01*
X146101127Y-55204348D01*
X146233694Y-55087762D01*
X146241537Y-55081404D01*
X146618338Y-54800158D01*
X146626664Y-54794448D01*
X147024761Y-54544280D01*
X147033517Y-54539255D01*
X147450375Y-54321758D01*
X147459506Y-54317450D01*
X147675973Y-54225738D01*
X147892450Y-54134022D01*
X147901876Y-54130467D01*
X148348116Y-53982291D01*
X148357818Y-53979496D01*
X148814465Y-53867530D01*
X148824359Y-53865520D01*
X149288521Y-53790471D01*
X149298544Y-53789261D01*
X149767227Y-53751615D01*
X149777315Y-53751210D01*
X150012401Y-53751211D01*
X150247487Y-53751211D01*
X150257575Y-53751615D01*
X150726258Y-53789260D01*
X150736281Y-53790471D01*
X151058769Y-53842613D01*
X151200443Y-53865520D01*
X151210331Y-53867528D01*
X151424584Y-53920062D01*
X151666988Y-53979498D01*
X151676689Y-53982293D01*
X152122926Y-54130467D01*
X152132351Y-54134022D01*
X152348829Y-54225738D01*
X152565296Y-54317451D01*
X152574427Y-54321759D01*
X152991285Y-54539256D01*
X153000041Y-54544281D01*
X153398137Y-54794449D01*
X153406463Y-54800159D01*
X153783264Y-55081405D01*
X153791107Y-55087763D01*
X153987802Y-55260747D01*
X154119870Y-55376894D01*
X154144179Y-55398273D01*
X154151481Y-55405233D01*
X154475074Y-55739417D01*
X154478563Y-55743020D01*
X154485290Y-55750549D01*
X154784267Y-56113426D01*
X154790370Y-56121469D01*
X155059341Y-56507128D01*
X155064780Y-56515634D01*
X155302009Y-56921590D01*
X155306749Y-56930504D01*
X155510709Y-57354137D01*
X155514719Y-57363398D01*
X155684117Y-57802027D01*
X155687366Y-57811559D01*
X155821102Y-58262346D01*
X155823578Y-58272107D01*
X155912109Y-58691063D01*
X155920791Y-58732149D01*
X155922481Y-58742100D01*
X155982550Y-59208443D01*
X155982550Y-59208444D01*
X155983436Y-59218490D01*
X156004116Y-59649408D01*
X156002909Y-59673849D01*
X156000975Y-59686949D01*
X156002209Y-59695840D01*
X156002209Y-59695843D01*
X156004693Y-59713740D01*
X156005887Y-59731834D01*
X156005825Y-59741944D01*
X156005721Y-59758886D01*
X156008189Y-59767522D01*
X156013468Y-59785996D01*
X156017122Y-59803295D01*
X156020998Y-59831223D01*
X156024678Y-59839410D01*
X156024678Y-59839411D01*
X156032089Y-59855900D01*
X156038313Y-59872931D01*
X156045745Y-59898937D01*
X156050536Y-59906531D01*
X156050537Y-59906533D01*
X156060790Y-59922785D01*
X156069150Y-59938359D01*
X156080710Y-59964079D01*
X156089695Y-59974598D01*
X156098280Y-59984650D01*
X156109033Y-59999249D01*
X156118677Y-60014535D01*
X156118680Y-60014539D01*
X156123467Y-60022126D01*
X156130189Y-60028063D01*
X156130194Y-60028069D01*
X156144598Y-60040790D01*
X156156994Y-60053393D01*
X156175309Y-60074836D01*
X156197947Y-60089649D01*
X156212362Y-60100641D01*
X156225906Y-60112603D01*
X156225909Y-60112605D01*
X156232639Y-60118549D01*
X156258157Y-60130530D01*
X156273598Y-60139151D01*
X156297192Y-60154590D01*
X156322111Y-60162160D01*
X156323085Y-60162456D01*
X156340006Y-60168960D01*
X156364487Y-60180455D01*
X156391575Y-60184674D01*
X156392340Y-60184793D01*
X156409571Y-60188732D01*
X156427970Y-60194321D01*
X156427974Y-60194322D01*
X156436560Y-60196930D01*
X156445533Y-60197024D01*
X156445534Y-60197024D01*
X156471343Y-60197294D01*
X156473107Y-60197371D01*
X156475072Y-60197677D01*
X156504259Y-60197678D01*
X156507482Y-60197678D01*
X156508794Y-60197685D01*
X156575955Y-60198387D01*
X156575960Y-60198387D01*
X156582211Y-60198452D01*
X156584433Y-60197828D01*
X156586669Y-60197680D01*
X162777972Y-60197836D01*
X188443103Y-60198484D01*
X188511223Y-60218488D01*
X188557715Y-60272145D01*
X188569100Y-60324484D01*
X188569102Y-76294365D01*
X188569090Y-76296127D01*
X188568093Y-76367411D01*
X188576638Y-76398225D01*
X188579942Y-76414008D01*
X188584522Y-76445987D01*
X188592265Y-76463017D01*
X188594183Y-76467235D01*
X188600900Y-76485716D01*
X188607016Y-76507772D01*
X188611746Y-76515401D01*
X188611747Y-76515403D01*
X188623748Y-76534760D01*
X188631360Y-76549001D01*
X188641094Y-76570410D01*
X188644810Y-76578582D01*
X188660151Y-76596386D01*
X188671779Y-76612230D01*
X188683768Y-76631567D01*
X188690450Y-76637562D01*
X188690451Y-76637564D01*
X188707263Y-76652649D01*
X188718567Y-76664182D01*
X188731384Y-76679056D01*
X188739889Y-76688927D01*
X188747421Y-76693809D01*
X188759726Y-76701785D01*
X188775344Y-76713737D01*
X188792181Y-76728844D01*
X188820517Y-76742421D01*
X188834600Y-76750316D01*
X188862117Y-76768152D01*
X188870712Y-76770722D01*
X188870718Y-76770725D01*
X188884870Y-76774957D01*
X188903212Y-76782044D01*
X188908142Y-76784406D01*
X188923538Y-76791783D01*
X188932395Y-76793234D01*
X188932396Y-76793234D01*
X188954461Y-76796848D01*
X188970189Y-76800472D01*
X189001668Y-76809886D01*
X189010647Y-76809941D01*
X189025462Y-76810032D01*
X189045051Y-76811686D01*
X189058419Y-76813875D01*
X189058421Y-76813875D01*
X189067281Y-76815326D01*
X189076193Y-76814232D01*
X189076194Y-76814232D01*
X189088503Y-76812721D01*
X189109894Y-76811927D01*
X189548283Y-76832964D01*
X189558340Y-76833851D01*
X190024680Y-76893917D01*
X190034634Y-76895607D01*
X190214188Y-76933549D01*
X190494672Y-76992819D01*
X190504451Y-76995299D01*
X190955219Y-77129028D01*
X190964760Y-77132279D01*
X191402200Y-77301216D01*
X191403376Y-77301670D01*
X191412637Y-77305679D01*
X191836302Y-77509654D01*
X191845202Y-77514387D01*
X191980205Y-77593279D01*
X192251156Y-77751615D01*
X192259662Y-77757054D01*
X192275694Y-77768235D01*
X192645334Y-78026033D01*
X192653356Y-78032120D01*
X192671740Y-78047266D01*
X193016243Y-78331105D01*
X193023771Y-78337831D01*
X193143398Y-78453666D01*
X193361571Y-78664924D01*
X193368515Y-78672211D01*
X193679036Y-79025292D01*
X193685385Y-79033123D01*
X193966637Y-79409932D01*
X193972347Y-79418258D01*
X194222516Y-79816355D01*
X194227541Y-79825111D01*
X194445039Y-80241970D01*
X194449347Y-80251101D01*
X194632772Y-80684036D01*
X194636335Y-80693483D01*
X194784506Y-81139710D01*
X194787301Y-81149411D01*
X194824983Y-81303092D01*
X194884802Y-81547057D01*
X194899270Y-81606065D01*
X194901279Y-81615956D01*
X194917128Y-81713975D01*
X194976328Y-82080119D01*
X194977539Y-82090142D01*
X195015184Y-82558826D01*
X195015588Y-82568914D01*
X195015588Y-83039088D01*
X195015183Y-83049176D01*
X194977537Y-83517860D01*
X194976327Y-83527883D01*
X194901279Y-83992042D01*
X194899269Y-84001937D01*
X194787300Y-84458591D01*
X194784505Y-84468292D01*
X194660059Y-84843070D01*
X194636334Y-84914518D01*
X194632771Y-84923965D01*
X194449346Y-85356900D01*
X194445038Y-85366031D01*
X194227540Y-85782890D01*
X194222515Y-85791646D01*
X193972346Y-86189743D01*
X193966636Y-86198070D01*
X193685388Y-86574871D01*
X193679030Y-86582713D01*
X193541762Y-86738796D01*
X193383960Y-86918229D01*
X193368513Y-86935793D01*
X193361550Y-86943097D01*
X193264214Y-87037348D01*
X193023777Y-87270164D01*
X193016249Y-87276891D01*
X192653354Y-87575881D01*
X192645332Y-87581968D01*
X192423260Y-87736848D01*
X192259660Y-87850947D01*
X192251154Y-87856386D01*
X192133518Y-87925129D01*
X191845200Y-88093614D01*
X191836300Y-88098347D01*
X191424968Y-88296383D01*
X191412639Y-88302319D01*
X191403374Y-88306330D01*
X190964769Y-88475716D01*
X190955213Y-88478973D01*
X190504450Y-88612701D01*
X190494663Y-88615183D01*
X190034633Y-88712393D01*
X190024680Y-88714083D01*
X189990528Y-88718482D01*
X189558327Y-88774152D01*
X189548290Y-88775037D01*
X189117360Y-88795715D01*
X189092918Y-88794508D01*
X189088713Y-88793887D01*
X189088710Y-88793887D01*
X189079831Y-88792576D01*
X189070938Y-88793810D01*
X189052287Y-88796398D01*
X189034220Y-88797592D01*
X189016775Y-88797488D01*
X189016773Y-88797488D01*
X189007800Y-88797435D01*
X188999167Y-88799904D01*
X188981434Y-88804975D01*
X188964108Y-88808636D01*
X188944446Y-88811364D01*
X188944443Y-88811365D01*
X188935556Y-88812598D01*
X188910204Y-88823992D01*
X188893202Y-88830207D01*
X188876384Y-88835016D01*
X188876380Y-88835018D01*
X188867756Y-88837484D01*
X188860166Y-88842275D01*
X188860165Y-88842275D01*
X188844517Y-88852151D01*
X188828922Y-88860524D01*
X188817556Y-88865633D01*
X188802700Y-88872310D01*
X188781635Y-88890302D01*
X188767059Y-88901041D01*
X188744581Y-88915228D01*
X188738640Y-88921957D01*
X188726321Y-88935910D01*
X188713699Y-88948326D01*
X188698771Y-88961076D01*
X188698767Y-88961080D01*
X188691943Y-88966909D01*
X188687028Y-88974421D01*
X188676846Y-88989981D01*
X188665866Y-89004384D01*
X188648178Y-89024418D01*
X188636389Y-89049539D01*
X188627761Y-89064995D01*
X188612189Y-89088792D01*
X188609578Y-89097385D01*
X188609578Y-89097386D01*
X188604223Y-89115013D01*
X188597727Y-89131918D01*
X188590111Y-89148145D01*
X188590109Y-89148151D01*
X188586296Y-89156276D01*
X188584917Y-89165144D01*
X188584916Y-89165146D01*
X188582003Y-89183874D01*
X188578059Y-89201131D01*
X188572458Y-89219567D01*
X188572457Y-89219571D01*
X188569848Y-89228160D01*
X188569754Y-89237136D01*
X188569754Y-89237138D01*
X188569483Y-89263070D01*
X188569404Y-89264874D01*
X188569094Y-89266865D01*
X188569095Y-89271724D01*
X188569099Y-89299168D01*
X188569092Y-89300485D01*
X188568968Y-89312396D01*
X188568573Y-89350206D01*
X188568326Y-89373810D01*
X188568960Y-89376067D01*
X188569111Y-89378346D01*
X188569309Y-90653608D01*
X188549318Y-90721732D01*
X188495669Y-90768234D01*
X188443414Y-90779628D01*
X177853543Y-90788453D01*
X146488565Y-90814591D01*
X146420428Y-90794646D01*
X146373890Y-90741029D01*
X146363728Y-90670763D01*
X146393167Y-90606158D01*
X146399364Y-90599496D01*
X146954848Y-90044011D01*
X147017746Y-90009859D01*
X147195888Y-89971994D01*
X147321532Y-89916054D01*
X147364322Y-89897003D01*
X147364324Y-89897002D01*
X147370352Y-89894318D01*
X147388690Y-89880995D01*
X147467232Y-89823930D01*
X147524853Y-89782066D01*
X147531936Y-89774200D01*
X147648221Y-89645052D01*
X147648222Y-89645051D01*
X147652640Y-89640144D01*
X147722426Y-89519271D01*
X147744823Y-89480479D01*
X147744824Y-89480478D01*
X147748127Y-89474756D01*
X147807142Y-89293128D01*
X147809692Y-89268872D01*
X147826414Y-89109765D01*
X147827104Y-89103200D01*
X147823595Y-89069818D01*
X147807832Y-88919835D01*
X147807832Y-88919833D01*
X147807142Y-88913272D01*
X147748127Y-88731644D01*
X147737013Y-88712393D01*
X147696944Y-88642992D01*
X147652640Y-88566256D01*
X147623934Y-88534374D01*
X147529275Y-88429245D01*
X147529274Y-88429244D01*
X147524853Y-88424334D01*
X147370352Y-88312082D01*
X147364324Y-88309398D01*
X147364322Y-88309397D01*
X147201919Y-88237091D01*
X147201918Y-88237091D01*
X147195888Y-88234406D01*
X147102488Y-88214553D01*
X147015544Y-88196072D01*
X147015539Y-88196072D01*
X147009087Y-88194700D01*
X146818113Y-88194700D01*
X146811661Y-88196072D01*
X146811656Y-88196072D01*
X146724712Y-88214553D01*
X146631312Y-88234406D01*
X146625282Y-88237091D01*
X146625281Y-88237091D01*
X146462878Y-88309397D01*
X146462876Y-88309398D01*
X146456848Y-88312082D01*
X146302347Y-88424334D01*
X146297926Y-88429244D01*
X146297925Y-88429245D01*
X146203267Y-88534374D01*
X146174560Y-88566256D01*
X146130256Y-88642992D01*
X146090188Y-88712393D01*
X146079073Y-88731644D01*
X146020058Y-88913272D01*
X146019368Y-88919833D01*
X146019368Y-88919835D01*
X146013082Y-88979643D01*
X146003117Y-89074462D01*
X146000879Y-89095751D01*
X145973866Y-89161408D01*
X145964664Y-89171677D01*
X145605369Y-89530971D01*
X145255344Y-89880996D01*
X145193032Y-89915021D01*
X145166249Y-89917900D01*
X135245023Y-89917900D01*
X135176902Y-89897898D01*
X135130409Y-89844242D01*
X135120305Y-89773968D01*
X135148557Y-89713630D01*
X135147541Y-89712892D01*
X135151370Y-89707622D01*
X135151383Y-89707594D01*
X135151421Y-89707552D01*
X135151422Y-89707551D01*
X135155840Y-89702644D01*
X135223453Y-89585535D01*
X135248023Y-89542979D01*
X135248024Y-89542978D01*
X135251327Y-89537256D01*
X135310342Y-89355628D01*
X135312262Y-89337365D01*
X135329614Y-89172265D01*
X135330304Y-89165700D01*
X135328459Y-89148145D01*
X135311032Y-88982335D01*
X135311032Y-88982333D01*
X135310342Y-88975772D01*
X135251327Y-88794144D01*
X135155840Y-88628756D01*
X135130939Y-88601100D01*
X135032475Y-88491745D01*
X135032474Y-88491744D01*
X135028053Y-88486834D01*
X134873552Y-88374582D01*
X134867524Y-88371898D01*
X134867522Y-88371897D01*
X134705119Y-88299591D01*
X134705118Y-88299591D01*
X134699088Y-88296906D01*
X134605688Y-88277053D01*
X134518744Y-88258572D01*
X134518739Y-88258572D01*
X134512287Y-88257200D01*
X134322666Y-88257200D01*
X134254545Y-88237198D01*
X134208052Y-88183542D01*
X134197356Y-88144371D01*
X134193432Y-88107035D01*
X134193432Y-88107033D01*
X134192742Y-88100472D01*
X134133727Y-87918844D01*
X134122259Y-87898980D01*
X134103891Y-87867166D01*
X183300457Y-87867166D01*
X183330765Y-88001646D01*
X183333845Y-88011475D01*
X183413970Y-88208803D01*
X183418613Y-88217994D01*
X183529894Y-88399588D01*
X183535977Y-88407899D01*
X183675413Y-88568867D01*
X183682780Y-88576083D01*
X183846634Y-88712116D01*
X183855081Y-88718031D01*
X184038956Y-88825479D01*
X184048242Y-88829929D01*
X184247201Y-88905903D01*
X184257099Y-88908779D01*
X184360450Y-88929806D01*
X184374499Y-88928610D01*
X184378200Y-88918265D01*
X184378200Y-88917717D01*
X184886200Y-88917717D01*
X184890264Y-88931559D01*
X184903678Y-88933593D01*
X184910384Y-88932734D01*
X184920462Y-88930592D01*
X185124455Y-88869391D01*
X185134042Y-88865633D01*
X185325295Y-88771939D01*
X185334145Y-88766664D01*
X185507528Y-88642992D01*
X185515400Y-88636339D01*
X185666252Y-88486012D01*
X185672930Y-88478165D01*
X185797203Y-88305220D01*
X185802513Y-88296383D01*
X185896870Y-88105467D01*
X185900669Y-88095872D01*
X185962577Y-87892110D01*
X185964755Y-87882037D01*
X185966186Y-87871162D01*
X185963975Y-87856978D01*
X185950817Y-87853200D01*
X184904315Y-87853200D01*
X184889076Y-87857675D01*
X184887871Y-87859065D01*
X184886200Y-87866748D01*
X184886200Y-88917717D01*
X184378200Y-88917717D01*
X184378200Y-87871315D01*
X184373725Y-87856076D01*
X184372335Y-87854871D01*
X184364652Y-87853200D01*
X183315425Y-87853200D01*
X183301894Y-87857173D01*
X183300457Y-87867166D01*
X134103891Y-87867166D01*
X134084463Y-87833517D01*
X134038240Y-87753456D01*
X133910453Y-87611534D01*
X133811357Y-87539536D01*
X133761294Y-87503163D01*
X133761293Y-87503162D01*
X133755952Y-87499282D01*
X133749924Y-87496598D01*
X133749922Y-87496597D01*
X133587519Y-87424291D01*
X133587518Y-87424291D01*
X133581488Y-87421606D01*
X133488088Y-87401753D01*
X133401144Y-87383272D01*
X133401139Y-87383272D01*
X133394687Y-87381900D01*
X133316691Y-87381900D01*
X133248570Y-87361898D01*
X133202077Y-87308242D01*
X133196858Y-87294836D01*
X133170569Y-87213928D01*
X133170568Y-87213926D01*
X133168527Y-87207644D01*
X133073040Y-87042256D01*
X132980589Y-86939578D01*
X132949675Y-86905245D01*
X132949674Y-86905244D01*
X132945253Y-86900334D01*
X132790752Y-86788082D01*
X132784724Y-86785398D01*
X132784722Y-86785397D01*
X132622319Y-86713091D01*
X132622318Y-86713091D01*
X132616288Y-86710406D01*
X132522888Y-86690553D01*
X132435944Y-86672072D01*
X132435939Y-86672072D01*
X132429487Y-86670700D01*
X132238513Y-86670700D01*
X132232061Y-86672072D01*
X132232056Y-86672072D01*
X132145112Y-86690553D01*
X132051712Y-86710406D01*
X132045682Y-86713091D01*
X132045681Y-86713091D01*
X131883278Y-86785397D01*
X131883276Y-86785398D01*
X131877248Y-86788082D01*
X131722747Y-86900334D01*
X131718334Y-86905236D01*
X131718332Y-86905237D01*
X131696926Y-86929011D01*
X131636480Y-86966250D01*
X131603290Y-86970700D01*
X130727910Y-86970700D01*
X130659789Y-86950698D01*
X130634274Y-86929011D01*
X130612868Y-86905237D01*
X130612866Y-86905236D01*
X130608453Y-86900334D01*
X130453952Y-86788082D01*
X130447924Y-86785398D01*
X130447922Y-86785397D01*
X130285519Y-86713091D01*
X130285518Y-86713091D01*
X130279488Y-86710406D01*
X130186088Y-86690553D01*
X130099144Y-86672072D01*
X130099139Y-86672072D01*
X130092687Y-86670700D01*
X129901713Y-86670700D01*
X129895261Y-86672072D01*
X129895256Y-86672072D01*
X129808312Y-86690553D01*
X129714912Y-86710406D01*
X129708882Y-86713091D01*
X129708881Y-86713091D01*
X129546478Y-86785397D01*
X129546476Y-86785398D01*
X129540448Y-86788082D01*
X129385947Y-86900334D01*
X129381526Y-86905244D01*
X129381525Y-86905245D01*
X129350612Y-86939578D01*
X129258160Y-87042256D01*
X129162673Y-87207644D01*
X129147852Y-87253259D01*
X129132925Y-87299198D01*
X129092851Y-87357803D01*
X129027454Y-87385440D01*
X128986895Y-87383507D01*
X128930753Y-87371573D01*
X128930740Y-87371572D01*
X128924287Y-87370200D01*
X128733313Y-87370200D01*
X128726861Y-87371572D01*
X128726856Y-87371572D01*
X128643587Y-87389272D01*
X128546512Y-87409906D01*
X128540482Y-87412591D01*
X128540481Y-87412591D01*
X128378078Y-87484897D01*
X128378076Y-87484898D01*
X128372048Y-87487582D01*
X128366707Y-87491462D01*
X128366706Y-87491463D01*
X128317578Y-87527157D01*
X128217547Y-87599834D01*
X128213126Y-87604744D01*
X128213125Y-87604745D01*
X128210509Y-87607651D01*
X128089760Y-87741756D01*
X128086459Y-87747474D01*
X128008769Y-87882037D01*
X127994273Y-87907144D01*
X127935258Y-88088772D01*
X127934568Y-88095333D01*
X127934568Y-88095335D01*
X127916261Y-88269520D01*
X127915296Y-88278700D01*
X127928876Y-88407899D01*
X127929379Y-88412689D01*
X127916607Y-88482528D01*
X127868105Y-88534374D01*
X127819872Y-88550300D01*
X127818913Y-88550300D01*
X127812460Y-88551672D01*
X127812457Y-88551672D01*
X127749887Y-88564972D01*
X127632112Y-88590006D01*
X127626082Y-88592691D01*
X127626081Y-88592691D01*
X127463678Y-88664997D01*
X127463676Y-88664998D01*
X127457648Y-88667682D01*
X127303147Y-88779934D01*
X127231586Y-88859411D01*
X127171142Y-88896650D01*
X127137951Y-88901100D01*
X124377910Y-88901100D01*
X124309789Y-88881098D01*
X124284274Y-88859411D01*
X124262868Y-88835637D01*
X124262866Y-88835636D01*
X124258453Y-88830734D01*
X124213812Y-88798300D01*
X124109294Y-88722363D01*
X124109293Y-88722362D01*
X124103952Y-88718482D01*
X124097924Y-88715798D01*
X124097922Y-88715797D01*
X123935519Y-88643491D01*
X123935518Y-88643491D01*
X123929488Y-88640806D01*
X123836088Y-88620953D01*
X123749144Y-88602472D01*
X123749139Y-88602472D01*
X123742687Y-88601100D01*
X123551713Y-88601100D01*
X123545261Y-88602472D01*
X123545256Y-88602472D01*
X123458312Y-88620953D01*
X123364912Y-88640806D01*
X123358882Y-88643491D01*
X123358881Y-88643491D01*
X123196478Y-88715797D01*
X123196476Y-88715798D01*
X123190448Y-88718482D01*
X123185107Y-88722362D01*
X123185106Y-88722363D01*
X123135043Y-88758736D01*
X123035947Y-88830734D01*
X123031526Y-88835644D01*
X123031525Y-88835645D01*
X122913335Y-88966909D01*
X122908160Y-88972656D01*
X122893969Y-88997236D01*
X122836581Y-89096635D01*
X122812673Y-89138044D01*
X122753658Y-89319672D01*
X122752968Y-89326233D01*
X122752968Y-89326235D01*
X122747968Y-89373810D01*
X122733696Y-89509600D01*
X122734386Y-89516165D01*
X122747417Y-89640144D01*
X122753658Y-89699528D01*
X122771021Y-89752966D01*
X122773049Y-89823930D01*
X122736387Y-89884729D01*
X122672675Y-89916054D01*
X122651188Y-89917900D01*
X119095350Y-89917900D01*
X119027229Y-89897898D01*
X119006255Y-89880995D01*
X118750413Y-89625153D01*
X118716387Y-89562841D01*
X118714198Y-89549228D01*
X118699432Y-89408735D01*
X118699432Y-89408733D01*
X118698742Y-89402172D01*
X118639727Y-89220544D01*
X118634364Y-89211254D01*
X118595177Y-89143382D01*
X118544240Y-89055156D01*
X118539175Y-89049530D01*
X118420875Y-88918145D01*
X118420874Y-88918144D01*
X118416453Y-88913234D01*
X118313804Y-88838655D01*
X118267294Y-88804863D01*
X118267293Y-88804862D01*
X118261952Y-88800982D01*
X118255924Y-88798298D01*
X118255922Y-88798297D01*
X118093519Y-88725991D01*
X118093518Y-88725991D01*
X118087488Y-88723306D01*
X117994087Y-88703453D01*
X117907144Y-88684972D01*
X117907139Y-88684972D01*
X117900687Y-88683600D01*
X117709713Y-88683600D01*
X117703261Y-88684972D01*
X117703256Y-88684972D01*
X117616313Y-88703453D01*
X117522912Y-88723306D01*
X117516882Y-88725991D01*
X117516881Y-88725991D01*
X117354478Y-88798297D01*
X117354476Y-88798298D01*
X117348448Y-88800982D01*
X117343107Y-88804862D01*
X117343106Y-88804863D01*
X117296596Y-88838655D01*
X117193947Y-88913234D01*
X117189526Y-88918144D01*
X117189525Y-88918145D01*
X117071226Y-89049530D01*
X117066160Y-89055156D01*
X117015223Y-89143382D01*
X116976037Y-89211254D01*
X116970673Y-89220544D01*
X116911658Y-89402172D01*
X116910968Y-89408733D01*
X116910968Y-89408735D01*
X116898690Y-89525556D01*
X116891696Y-89592100D01*
X116892386Y-89598665D01*
X116904392Y-89712892D01*
X116911658Y-89782028D01*
X116970673Y-89963656D01*
X117066160Y-90129044D01*
X117193947Y-90270966D01*
X117348448Y-90383218D01*
X117354476Y-90385902D01*
X117354478Y-90385903D01*
X117516881Y-90458209D01*
X117522912Y-90460894D01*
X117616313Y-90480747D01*
X117703256Y-90499228D01*
X117703261Y-90499228D01*
X117709713Y-90500600D01*
X117716315Y-90500600D01*
X117722882Y-90501290D01*
X117722601Y-90503962D01*
X117779271Y-90520602D01*
X117800245Y-90537505D01*
X117877545Y-90614805D01*
X117911571Y-90677117D01*
X117906506Y-90747932D01*
X117863959Y-90804768D01*
X117797439Y-90829579D01*
X117788450Y-90829900D01*
X69925604Y-90829900D01*
X69857483Y-90809898D01*
X69810990Y-90756242D01*
X69799604Y-90703919D01*
X69799479Y-89880995D01*
X69799393Y-89315150D01*
X69799423Y-89312396D01*
X69800707Y-89253677D01*
X69800707Y-89253676D01*
X69800903Y-89244702D01*
X69798572Y-89236033D01*
X69798572Y-89236030D01*
X69791911Y-89211254D01*
X69788865Y-89196422D01*
X69785402Y-89172265D01*
X69783950Y-89162136D01*
X69777587Y-89148145D01*
X69775420Y-89143382D01*
X69768435Y-89123931D01*
X69765416Y-89112703D01*
X69763087Y-89104039D01*
X69745068Y-89074459D01*
X69737985Y-89061083D01*
X69727357Y-89037718D01*
X69723642Y-89029550D01*
X69717782Y-89022751D01*
X69717780Y-89022748D01*
X69710193Y-89013945D01*
X69698029Y-88997236D01*
X69691983Y-88987311D01*
X69687312Y-88979643D01*
X69661710Y-88956304D01*
X69651161Y-88945457D01*
X69634409Y-88926022D01*
X69634408Y-88926022D01*
X69628546Y-88919220D01*
X69611258Y-88908018D01*
X69594889Y-88895390D01*
X69586308Y-88887567D01*
X69586307Y-88887566D01*
X69579669Y-88881515D01*
X69571603Y-88877572D01*
X69571600Y-88877570D01*
X69548559Y-88866307D01*
X69535378Y-88858851D01*
X69513836Y-88844892D01*
X69513835Y-88844891D01*
X69506306Y-88840013D01*
X69486560Y-88834111D01*
X69467312Y-88826588D01*
X69448811Y-88817544D01*
X69414669Y-88811676D01*
X69399953Y-88808225D01*
X69366749Y-88798300D01*
X69346148Y-88798178D01*
X69325550Y-88796358D01*
X69314108Y-88794391D01*
X69314106Y-88794391D01*
X69305258Y-88792870D01*
X69290987Y-88794508D01*
X69283999Y-88795310D01*
X69262615Y-88795936D01*
X69127889Y-88788421D01*
X68825574Y-88771558D01*
X68815551Y-88770596D01*
X68350830Y-88707156D01*
X68340914Y-88705396D01*
X68058274Y-88643491D01*
X67882747Y-88605046D01*
X67873017Y-88602504D01*
X67509261Y-88491745D01*
X67424322Y-88465882D01*
X67414813Y-88462566D01*
X66978469Y-88290549D01*
X66969255Y-88286484D01*
X66548037Y-88080166D01*
X66539178Y-88075378D01*
X66135800Y-87836091D01*
X66127350Y-87830611D01*
X65744354Y-87559861D01*
X65736370Y-87553724D01*
X65376229Y-87253259D01*
X65368760Y-87246503D01*
X65033759Y-86918229D01*
X65026853Y-86910899D01*
X64719144Y-86556927D01*
X64712846Y-86549069D01*
X64434380Y-86171641D01*
X64428730Y-86163304D01*
X64181313Y-85764868D01*
X64176346Y-85756108D01*
X63970666Y-85356900D01*
X63961523Y-85339154D01*
X63957273Y-85330027D01*
X63891675Y-85173039D01*
X63776437Y-84897253D01*
X63772932Y-84887821D01*
X63754334Y-84830908D01*
X63708202Y-84689744D01*
X63704525Y-84678492D01*
X65682411Y-84678492D01*
X65691240Y-84690112D01*
X65896067Y-84838928D01*
X65902747Y-84843168D01*
X66161331Y-84985326D01*
X66168466Y-84988683D01*
X66442843Y-85097317D01*
X66450334Y-85099751D01*
X66736156Y-85173137D01*
X66743927Y-85174619D01*
X67036667Y-85211601D01*
X67044557Y-85212098D01*
X67339637Y-85212098D01*
X67347527Y-85211601D01*
X67640267Y-85174619D01*
X67648038Y-85173137D01*
X67933860Y-85099751D01*
X67941351Y-85097317D01*
X68215728Y-84988683D01*
X68222863Y-84985326D01*
X68481447Y-84843168D01*
X68488127Y-84838928D01*
X68693327Y-84689842D01*
X68701750Y-84678919D01*
X68694846Y-84666058D01*
X67204907Y-83176118D01*
X67190966Y-83168506D01*
X67189131Y-83168637D01*
X67182517Y-83172888D01*
X65689024Y-84666382D01*
X65682411Y-84678492D01*
X63704525Y-84678492D01*
X63627241Y-84441999D01*
X63624498Y-84432310D01*
X63559295Y-84161066D01*
X63514874Y-83976275D01*
X63512915Y-83966404D01*
X63511171Y-83955309D01*
X63440062Y-83503061D01*
X63438897Y-83493058D01*
X63403281Y-83025394D01*
X63402918Y-83015330D01*
X63403734Y-82808056D01*
X64779585Y-82808056D01*
X64798112Y-83102534D01*
X64799105Y-83110395D01*
X64854393Y-83400226D01*
X64856364Y-83407903D01*
X64947543Y-83688522D01*
X64950458Y-83695885D01*
X65076090Y-83962868D01*
X65079902Y-83969801D01*
X65238006Y-84218933D01*
X65242660Y-84225339D01*
X65307618Y-84303859D01*
X65320137Y-84312315D01*
X65330875Y-84306109D01*
X66820077Y-82816908D01*
X66826454Y-82805229D01*
X67556505Y-82805229D01*
X67556636Y-82807064D01*
X67560887Y-82813678D01*
X69052216Y-84305006D01*
X69065478Y-84312248D01*
X69075582Y-84305060D01*
X69141534Y-84225339D01*
X69146188Y-84218933D01*
X69304292Y-83969801D01*
X69308104Y-83962868D01*
X69433736Y-83695885D01*
X69436651Y-83688522D01*
X69527830Y-83407903D01*
X69529801Y-83400226D01*
X69585089Y-83110395D01*
X69586082Y-83102534D01*
X69604609Y-82808056D01*
X69604609Y-82800140D01*
X69586082Y-82505662D01*
X69585089Y-82497801D01*
X69529801Y-82207970D01*
X69527830Y-82200293D01*
X69436651Y-81919674D01*
X69433736Y-81912311D01*
X69308104Y-81645328D01*
X69304292Y-81638395D01*
X69146188Y-81389263D01*
X69141534Y-81382857D01*
X69076576Y-81304337D01*
X69064057Y-81295881D01*
X69053319Y-81302087D01*
X67564117Y-82791288D01*
X67556505Y-82805229D01*
X66826454Y-82805229D01*
X66827689Y-82802967D01*
X66827558Y-82801132D01*
X66823307Y-82794518D01*
X65331978Y-81303190D01*
X65318716Y-81295948D01*
X65308612Y-81303136D01*
X65242660Y-81382857D01*
X65238006Y-81389263D01*
X65079902Y-81638395D01*
X65076090Y-81645328D01*
X64950458Y-81912311D01*
X64947543Y-81919674D01*
X64856364Y-82200293D01*
X64854393Y-82207970D01*
X64799105Y-82497801D01*
X64798112Y-82505662D01*
X64779585Y-82800140D01*
X64779585Y-82808056D01*
X63403734Y-82808056D01*
X63404764Y-82546307D01*
X63405206Y-82536246D01*
X63444505Y-82068872D01*
X63445749Y-82058878D01*
X63522249Y-81596121D01*
X63524284Y-81586271D01*
X63637503Y-81131081D01*
X63640310Y-81121458D01*
X63704793Y-80929277D01*
X65682444Y-80929277D01*
X65689348Y-80942138D01*
X67179287Y-82432078D01*
X67193228Y-82439690D01*
X67195063Y-82439559D01*
X67201677Y-82435308D01*
X68695170Y-80941814D01*
X68701783Y-80929704D01*
X68692954Y-80918084D01*
X68488127Y-80769268D01*
X68481447Y-80765028D01*
X68222863Y-80622870D01*
X68215728Y-80619513D01*
X67941351Y-80510879D01*
X67933860Y-80508445D01*
X67648038Y-80435059D01*
X67640267Y-80433577D01*
X67347527Y-80396595D01*
X67339637Y-80396098D01*
X67044557Y-80396098D01*
X67036667Y-80396595D01*
X66743927Y-80433577D01*
X66736156Y-80435059D01*
X66450334Y-80508445D01*
X66442843Y-80510879D01*
X66168466Y-80619513D01*
X66161331Y-80622870D01*
X65902747Y-80765028D01*
X65896067Y-80769268D01*
X65690867Y-80918354D01*
X65682444Y-80929277D01*
X63704793Y-80929277D01*
X63744054Y-80812267D01*
X63789516Y-80676776D01*
X63793099Y-80667364D01*
X63977328Y-80236051D01*
X63981650Y-80226955D01*
X64048131Y-80100378D01*
X64199759Y-79811688D01*
X64204772Y-79803004D01*
X64266578Y-79705200D01*
X87275296Y-79705200D01*
X87275986Y-79711765D01*
X87293555Y-79878921D01*
X87295258Y-79895128D01*
X87354273Y-80076756D01*
X87449760Y-80242144D01*
X87577547Y-80384066D01*
X87732048Y-80496318D01*
X87738076Y-80499002D01*
X87738078Y-80499003D01*
X87900481Y-80571309D01*
X87906512Y-80573994D01*
X87999913Y-80593847D01*
X88086856Y-80612328D01*
X88086861Y-80612328D01*
X88093313Y-80613700D01*
X88284287Y-80613700D01*
X88290739Y-80612328D01*
X88290744Y-80612328D01*
X88377687Y-80593847D01*
X88471088Y-80573994D01*
X88477119Y-80571309D01*
X88639522Y-80499003D01*
X88639524Y-80499002D01*
X88645552Y-80496318D01*
X88705992Y-80452406D01*
X88783627Y-80396000D01*
X88800053Y-80384066D01*
X88825874Y-80355389D01*
X88886320Y-80318150D01*
X88919510Y-80313700D01*
X89693290Y-80313700D01*
X89761411Y-80333702D01*
X89786926Y-80355389D01*
X89812747Y-80384066D01*
X89829173Y-80396000D01*
X89906809Y-80452406D01*
X89967248Y-80496318D01*
X89973276Y-80499002D01*
X89973278Y-80499003D01*
X90135681Y-80571309D01*
X90141712Y-80573994D01*
X90235113Y-80593847D01*
X90322056Y-80612328D01*
X90322061Y-80612328D01*
X90328513Y-80613700D01*
X90519487Y-80613700D01*
X90525939Y-80612328D01*
X90525944Y-80612328D01*
X90612887Y-80593847D01*
X90706288Y-80573994D01*
X90712319Y-80571309D01*
X90874722Y-80499003D01*
X90874724Y-80499002D01*
X90880752Y-80496318D01*
X91035253Y-80384066D01*
X91163040Y-80242144D01*
X91258527Y-80076756D01*
X91317542Y-79895128D01*
X91319246Y-79878921D01*
X91336814Y-79711765D01*
X91337504Y-79705200D01*
X110236896Y-79705200D01*
X110237586Y-79711765D01*
X110255155Y-79878921D01*
X110256858Y-79895128D01*
X110315873Y-80076756D01*
X110411360Y-80242144D01*
X110539147Y-80384066D01*
X110693648Y-80496318D01*
X110699676Y-80499002D01*
X110699678Y-80499003D01*
X110862081Y-80571309D01*
X110868112Y-80573994D01*
X110961513Y-80593847D01*
X111048456Y-80612328D01*
X111048461Y-80612328D01*
X111054913Y-80613700D01*
X111245887Y-80613700D01*
X111252339Y-80612328D01*
X111252344Y-80612328D01*
X111339287Y-80593847D01*
X111432688Y-80573994D01*
X111438719Y-80571309D01*
X111601122Y-80499003D01*
X111601124Y-80499002D01*
X111607152Y-80496318D01*
X111667592Y-80452406D01*
X111745227Y-80396000D01*
X111761653Y-80384066D01*
X111787474Y-80355389D01*
X111847920Y-80318150D01*
X111881110Y-80313700D01*
X112299290Y-80313700D01*
X112367411Y-80333702D01*
X112392926Y-80355389D01*
X112418747Y-80384066D01*
X112435173Y-80396000D01*
X112512809Y-80452406D01*
X112573248Y-80496318D01*
X112579276Y-80499002D01*
X112579278Y-80499003D01*
X112741681Y-80571309D01*
X112747712Y-80573994D01*
X112841113Y-80593847D01*
X112928056Y-80612328D01*
X112928061Y-80612328D01*
X112934513Y-80613700D01*
X113125487Y-80613700D01*
X113131939Y-80612328D01*
X113131944Y-80612328D01*
X113218887Y-80593847D01*
X113312288Y-80573994D01*
X113318319Y-80571309D01*
X113480722Y-80499003D01*
X113480724Y-80499002D01*
X113486752Y-80496318D01*
X113641253Y-80384066D01*
X113756384Y-80256200D01*
X139642296Y-80256200D01*
X139642986Y-80262765D01*
X139661095Y-80435059D01*
X139662258Y-80446128D01*
X139721273Y-80627756D01*
X139724576Y-80633478D01*
X139724577Y-80633479D01*
X139744141Y-80667364D01*
X139816760Y-80793144D01*
X139836550Y-80815123D01*
X139867266Y-80879129D01*
X139858501Y-80949582D01*
X139836548Y-80983741D01*
X139824560Y-80997056D01*
X139821258Y-81002775D01*
X139821256Y-81002778D01*
X139732377Y-81156721D01*
X139729073Y-81162444D01*
X139670058Y-81344072D01*
X139669368Y-81350633D01*
X139669368Y-81350635D01*
X139659468Y-81444830D01*
X139650096Y-81534000D01*
X139650786Y-81540565D01*
X139661787Y-81645230D01*
X139670058Y-81723928D01*
X139729073Y-81905556D01*
X139732376Y-81911278D01*
X139732377Y-81911279D01*
X139732916Y-81912213D01*
X139824560Y-82070944D01*
X139952347Y-82212866D01*
X140106848Y-82325118D01*
X140112876Y-82327802D01*
X140112878Y-82327803D01*
X140172731Y-82354451D01*
X140281312Y-82402794D01*
X140374712Y-82422647D01*
X140461656Y-82441128D01*
X140461661Y-82441128D01*
X140468113Y-82442500D01*
X140659087Y-82442500D01*
X140665539Y-82441128D01*
X140665544Y-82441128D01*
X140752488Y-82422647D01*
X140845888Y-82402794D01*
X140954469Y-82354451D01*
X140966050Y-82349295D01*
X145322651Y-82349295D01*
X145322948Y-82354448D01*
X145322948Y-82354451D01*
X145328411Y-82449190D01*
X145335510Y-82572315D01*
X145336647Y-82577361D01*
X145336648Y-82577367D01*
X145356519Y-82665539D01*
X145384622Y-82790239D01*
X145468666Y-82997216D01*
X145494325Y-83039088D01*
X145576318Y-83172888D01*
X145585387Y-83187688D01*
X145731650Y-83356538D01*
X145735630Y-83359842D01*
X145740381Y-83363787D01*
X145780016Y-83422690D01*
X145781513Y-83493671D01*
X145744397Y-83554193D01*
X145704124Y-83578712D01*
X145588695Y-83621985D01*
X145472139Y-83709339D01*
X145384785Y-83825895D01*
X145333655Y-83962284D01*
X145326900Y-84024466D01*
X145326900Y-85820734D01*
X145333655Y-85882916D01*
X145384785Y-86019305D01*
X145472139Y-86135861D01*
X145588695Y-86223215D01*
X145725084Y-86274345D01*
X145787266Y-86281100D01*
X147583534Y-86281100D01*
X147645716Y-86274345D01*
X147782105Y-86223215D01*
X147898661Y-86135861D01*
X147986015Y-86019305D01*
X148009247Y-85957334D01*
X183273700Y-85957334D01*
X183280455Y-86019516D01*
X183331585Y-86155905D01*
X183418939Y-86272461D01*
X183535495Y-86359815D01*
X183543904Y-86362967D01*
X183543905Y-86362968D01*
X183653160Y-86403926D01*
X183709925Y-86446567D01*
X183734625Y-86513129D01*
X183719418Y-86582478D01*
X183700025Y-86608959D01*
X183576790Y-86737917D01*
X183570304Y-86745927D01*
X183450298Y-86921849D01*
X183445200Y-86930823D01*
X183355538Y-87123983D01*
X183351975Y-87133670D01*
X183296589Y-87333383D01*
X183298112Y-87341807D01*
X183310492Y-87345200D01*
X185950544Y-87345200D01*
X185964075Y-87341227D01*
X185965380Y-87332147D01*
X185923414Y-87165075D01*
X185920094Y-87155324D01*
X185835172Y-86960014D01*
X185830305Y-86950939D01*
X185714626Y-86772126D01*
X185708336Y-86763957D01*
X185564493Y-86605877D01*
X185533441Y-86542031D01*
X185541835Y-86471533D01*
X185587012Y-86416764D01*
X185613456Y-86403095D01*
X185720497Y-86362967D01*
X185728905Y-86359815D01*
X185845461Y-86272461D01*
X185932815Y-86155905D01*
X185983945Y-86019516D01*
X185990700Y-85957334D01*
X185990700Y-84678394D01*
X190017914Y-84678394D01*
X190026743Y-84690014D01*
X190231570Y-84838830D01*
X190238250Y-84843070D01*
X190496834Y-84985228D01*
X190503969Y-84988585D01*
X190778346Y-85097219D01*
X190785837Y-85099653D01*
X191071659Y-85173039D01*
X191079430Y-85174521D01*
X191372170Y-85211503D01*
X191380060Y-85212000D01*
X191675140Y-85212000D01*
X191683030Y-85211503D01*
X191975770Y-85174521D01*
X191983541Y-85173039D01*
X192269363Y-85099653D01*
X192276854Y-85097219D01*
X192551231Y-84988585D01*
X192558366Y-84985228D01*
X192816950Y-84843070D01*
X192823630Y-84838830D01*
X193028830Y-84689744D01*
X193037253Y-84678821D01*
X193030349Y-84665960D01*
X191540410Y-83176020D01*
X191526469Y-83168408D01*
X191524634Y-83168539D01*
X191518020Y-83172790D01*
X190024527Y-84666284D01*
X190017914Y-84678394D01*
X185990700Y-84678394D01*
X185990700Y-84161066D01*
X185983945Y-84098884D01*
X185932815Y-83962495D01*
X185845461Y-83845939D01*
X185728905Y-83758585D01*
X185592516Y-83707455D01*
X185530334Y-83700700D01*
X183734066Y-83700700D01*
X183671884Y-83707455D01*
X183535495Y-83758585D01*
X183418939Y-83845939D01*
X183331585Y-83962495D01*
X183280455Y-84098884D01*
X183273700Y-84161066D01*
X183273700Y-85957334D01*
X148009247Y-85957334D01*
X148037145Y-85882916D01*
X148043900Y-85820734D01*
X148043900Y-84024466D01*
X148037145Y-83962284D01*
X147986015Y-83825895D01*
X147898661Y-83709339D01*
X147782105Y-83621985D01*
X147769532Y-83617272D01*
X147663603Y-83577560D01*
X147606839Y-83534918D01*
X147582139Y-83468356D01*
X147597347Y-83399008D01*
X147618893Y-83370327D01*
X147719835Y-83269737D01*
X147723496Y-83266089D01*
X147782994Y-83183289D01*
X147850835Y-83088877D01*
X147853853Y-83084677D01*
X147876385Y-83039088D01*
X147950536Y-82889053D01*
X147950537Y-82889051D01*
X147952830Y-82884411D01*
X147976058Y-82807958D01*
X189115088Y-82807958D01*
X189133615Y-83102436D01*
X189134608Y-83110297D01*
X189189896Y-83400128D01*
X189191867Y-83407805D01*
X189283046Y-83688424D01*
X189285961Y-83695787D01*
X189411593Y-83962770D01*
X189415405Y-83969703D01*
X189573509Y-84218835D01*
X189578163Y-84225241D01*
X189643121Y-84303761D01*
X189655640Y-84312217D01*
X189666378Y-84306011D01*
X191155580Y-82816810D01*
X191161957Y-82805131D01*
X191892008Y-82805131D01*
X191892139Y-82806966D01*
X191896390Y-82813580D01*
X193387719Y-84304908D01*
X193400981Y-84312150D01*
X193411085Y-84304962D01*
X193477037Y-84225241D01*
X193481691Y-84218835D01*
X193639795Y-83969703D01*
X193643607Y-83962770D01*
X193769239Y-83695787D01*
X193772154Y-83688424D01*
X193863333Y-83407805D01*
X193865304Y-83400128D01*
X193920592Y-83110297D01*
X193921585Y-83102436D01*
X193940112Y-82807958D01*
X193940112Y-82800042D01*
X193921585Y-82505564D01*
X193920592Y-82497703D01*
X193865304Y-82207872D01*
X193863333Y-82200195D01*
X193772154Y-81919576D01*
X193769239Y-81912213D01*
X193643607Y-81645230D01*
X193639795Y-81638297D01*
X193481691Y-81389165D01*
X193477037Y-81382759D01*
X193412079Y-81304239D01*
X193399560Y-81295783D01*
X193388822Y-81301989D01*
X191899620Y-82791190D01*
X191892008Y-82805131D01*
X191161957Y-82805131D01*
X191163192Y-82802869D01*
X191163061Y-82801034D01*
X191158810Y-82794420D01*
X189667481Y-81303092D01*
X189654219Y-81295850D01*
X189644115Y-81303038D01*
X189578163Y-81382759D01*
X189573509Y-81389165D01*
X189415405Y-81638297D01*
X189411593Y-81645230D01*
X189285961Y-81912213D01*
X189283046Y-81919576D01*
X189191867Y-82200195D01*
X189189896Y-82207872D01*
X189134608Y-82497703D01*
X189133615Y-82505564D01*
X189115088Y-82800042D01*
X189115088Y-82807958D01*
X147976058Y-82807958D01*
X148017770Y-82670669D01*
X148046929Y-82449190D01*
X148047011Y-82445840D01*
X148048474Y-82385965D01*
X148048474Y-82385961D01*
X148048556Y-82382600D01*
X148030252Y-82159961D01*
X147975831Y-81943302D01*
X147886754Y-81738440D01*
X147765414Y-81550877D01*
X147615070Y-81385651D01*
X147611019Y-81382452D01*
X147611015Y-81382448D01*
X147443814Y-81250400D01*
X147443810Y-81250398D01*
X147439759Y-81247198D01*
X147397969Y-81224129D01*
X147347998Y-81173697D01*
X147333226Y-81104254D01*
X147358342Y-81037848D01*
X147385694Y-81011241D01*
X147500742Y-80929179D01*
X190017947Y-80929179D01*
X190024851Y-80942040D01*
X191514790Y-82431980D01*
X191528731Y-82439592D01*
X191530566Y-82439461D01*
X191537180Y-82435210D01*
X193030673Y-80941716D01*
X193037286Y-80929606D01*
X193028457Y-80917986D01*
X192823630Y-80769170D01*
X192816950Y-80764930D01*
X192558366Y-80622772D01*
X192551231Y-80619415D01*
X192276854Y-80510781D01*
X192269363Y-80508347D01*
X191983541Y-80434961D01*
X191975770Y-80433479D01*
X191683030Y-80396497D01*
X191675140Y-80396000D01*
X191380060Y-80396000D01*
X191372170Y-80396497D01*
X191079430Y-80433479D01*
X191071659Y-80434961D01*
X190785837Y-80508347D01*
X190778346Y-80510781D01*
X190503969Y-80619415D01*
X190496834Y-80622772D01*
X190238250Y-80764930D01*
X190231570Y-80769170D01*
X190026370Y-80918256D01*
X190017947Y-80929179D01*
X147500742Y-80929179D01*
X147560728Y-80886392D01*
X147568600Y-80879739D01*
X147719452Y-80729412D01*
X147726130Y-80721565D01*
X147850403Y-80548620D01*
X147855713Y-80539783D01*
X147950070Y-80348867D01*
X147953869Y-80339272D01*
X148015777Y-80135510D01*
X148017955Y-80125437D01*
X148019386Y-80114562D01*
X148017175Y-80100378D01*
X148004017Y-80096600D01*
X145368625Y-80096600D01*
X145355094Y-80100573D01*
X145353657Y-80110566D01*
X145383965Y-80245046D01*
X145387045Y-80254875D01*
X145467170Y-80452203D01*
X145471813Y-80461394D01*
X145583094Y-80642988D01*
X145589177Y-80651299D01*
X145728613Y-80812267D01*
X145735980Y-80819483D01*
X145899834Y-80955516D01*
X145908281Y-80961431D01*
X145977369Y-81001803D01*
X146026093Y-81053442D01*
X146039164Y-81123225D01*
X146012433Y-81188996D01*
X145971984Y-81222352D01*
X145959007Y-81229107D01*
X145954874Y-81232210D01*
X145954871Y-81232212D01*
X145784500Y-81360130D01*
X145780365Y-81363235D01*
X145761614Y-81382857D01*
X145662971Y-81486081D01*
X145626029Y-81524738D01*
X145623115Y-81529010D01*
X145623114Y-81529011D01*
X145610804Y-81547057D01*
X145500143Y-81709280D01*
X145406088Y-81911905D01*
X145346389Y-82127170D01*
X145322651Y-82349295D01*
X140966050Y-82349295D01*
X141014322Y-82327803D01*
X141014324Y-82327802D01*
X141020352Y-82325118D01*
X141174853Y-82212866D01*
X141302640Y-82070944D01*
X141394284Y-81912213D01*
X141394823Y-81911279D01*
X141394824Y-81911278D01*
X141398127Y-81905556D01*
X141457142Y-81723928D01*
X141465414Y-81645230D01*
X141476414Y-81540565D01*
X141477104Y-81534000D01*
X141476916Y-81532214D01*
X141496416Y-81465804D01*
X141513319Y-81444830D01*
X143381366Y-79576783D01*
X145349789Y-79576783D01*
X145351312Y-79585207D01*
X145363692Y-79588600D01*
X146413285Y-79588600D01*
X146428524Y-79584125D01*
X146429729Y-79582735D01*
X146431400Y-79575052D01*
X146431400Y-79570485D01*
X146939400Y-79570485D01*
X146943875Y-79585724D01*
X146945265Y-79586929D01*
X146952948Y-79588600D01*
X148003744Y-79588600D01*
X148017275Y-79584627D01*
X148018580Y-79575547D01*
X147976614Y-79408475D01*
X147973294Y-79398724D01*
X147888372Y-79203414D01*
X147883505Y-79194339D01*
X147767826Y-79015526D01*
X147761536Y-79007357D01*
X147618206Y-78849840D01*
X147610673Y-78842815D01*
X147443539Y-78710822D01*
X147434952Y-78705117D01*
X147248517Y-78602199D01*
X147239105Y-78597969D01*
X147038359Y-78526880D01*
X147028388Y-78524246D01*
X146957237Y-78511572D01*
X146943940Y-78513032D01*
X146939400Y-78527589D01*
X146939400Y-79570485D01*
X146431400Y-79570485D01*
X146431400Y-78525702D01*
X146427482Y-78512358D01*
X146413206Y-78510371D01*
X146374724Y-78516260D01*
X146364688Y-78518651D01*
X146162268Y-78584812D01*
X146152759Y-78588809D01*
X145963863Y-78687142D01*
X145955138Y-78692636D01*
X145784833Y-78820505D01*
X145777126Y-78827348D01*
X145629990Y-78981317D01*
X145623504Y-78989327D01*
X145503498Y-79165249D01*
X145498400Y-79174223D01*
X145408738Y-79367383D01*
X145405175Y-79377070D01*
X145349789Y-79576783D01*
X143381366Y-79576783D01*
X144644344Y-78313805D01*
X144706656Y-78279779D01*
X144733439Y-78276900D01*
X144824687Y-78276900D01*
X144831139Y-78275528D01*
X144831144Y-78275528D01*
X144918088Y-78257047D01*
X145011488Y-78237194D01*
X145017519Y-78234509D01*
X145179922Y-78162203D01*
X145179924Y-78162202D01*
X145185952Y-78159518D01*
X145212719Y-78140071D01*
X145334914Y-78051290D01*
X145340453Y-78047266D01*
X145359221Y-78026422D01*
X145463821Y-77910252D01*
X145463822Y-77910251D01*
X145468240Y-77905344D01*
X145526514Y-77804410D01*
X145560423Y-77745679D01*
X145560424Y-77745678D01*
X145563727Y-77739956D01*
X145622742Y-77558328D01*
X145639450Y-77399365D01*
X145642014Y-77374965D01*
X145642704Y-77368400D01*
X145637911Y-77322794D01*
X145623432Y-77185035D01*
X145623432Y-77185033D01*
X145622742Y-77178472D01*
X145563727Y-76996844D01*
X145468240Y-76831456D01*
X145387840Y-76742162D01*
X145357124Y-76678157D01*
X145361644Y-76618918D01*
X145419542Y-76440728D01*
X145421208Y-76424882D01*
X145438814Y-76257365D01*
X145439504Y-76250800D01*
X145437299Y-76229819D01*
X145420232Y-76067435D01*
X145420232Y-76067433D01*
X145419542Y-76060872D01*
X145360527Y-75879244D01*
X145265040Y-75713856D01*
X145239064Y-75685006D01*
X145141675Y-75576845D01*
X145141674Y-75576844D01*
X145137253Y-75571934D01*
X145022829Y-75488800D01*
X147219296Y-75488800D01*
X147219986Y-75495365D01*
X147237593Y-75662882D01*
X147239258Y-75678728D01*
X147298273Y-75860356D01*
X147393760Y-76025744D01*
X147398178Y-76030651D01*
X147398179Y-76030652D01*
X147425389Y-76060872D01*
X147521547Y-76167666D01*
X147607093Y-76229819D01*
X147645007Y-76257365D01*
X147676048Y-76279918D01*
X147682076Y-76282602D01*
X147682078Y-76282603D01*
X147844479Y-76354908D01*
X147850512Y-76357594D01*
X147937383Y-76376059D01*
X148030856Y-76395928D01*
X148030861Y-76395928D01*
X148037313Y-76397300D01*
X148228287Y-76397300D01*
X148234739Y-76395928D01*
X148234744Y-76395928D01*
X148373460Y-76366442D01*
X148415088Y-76357594D01*
X148497863Y-76320741D01*
X148568227Y-76311307D01*
X148632524Y-76341413D01*
X148638204Y-76346753D01*
X149418281Y-77126830D01*
X149452307Y-77189142D01*
X149454841Y-77212716D01*
X149454496Y-77216000D01*
X149455186Y-77222565D01*
X149469894Y-77362500D01*
X149474458Y-77405928D01*
X149533473Y-77587556D01*
X149628960Y-77752944D01*
X149756747Y-77894866D01*
X149911248Y-78007118D01*
X149917276Y-78009802D01*
X149917278Y-78009803D01*
X150010460Y-78051290D01*
X150085712Y-78084794D01*
X150179113Y-78104647D01*
X150266056Y-78123128D01*
X150266061Y-78123128D01*
X150272513Y-78124500D01*
X150463487Y-78124500D01*
X150469939Y-78123128D01*
X150469944Y-78123128D01*
X150556887Y-78104647D01*
X150650288Y-78084794D01*
X150725540Y-78051290D01*
X150818722Y-78009803D01*
X150818724Y-78009802D01*
X150824752Y-78007118D01*
X150979253Y-77894866D01*
X151107040Y-77752944D01*
X151202527Y-77587556D01*
X151261542Y-77405928D01*
X151266107Y-77362500D01*
X151280814Y-77222565D01*
X151281504Y-77216000D01*
X151278681Y-77189142D01*
X151262232Y-77032635D01*
X151262232Y-77032633D01*
X151261542Y-77026072D01*
X151202527Y-76844444D01*
X151196406Y-76833841D01*
X151135785Y-76728844D01*
X151107040Y-76679056D01*
X151093648Y-76664182D01*
X150983675Y-76542045D01*
X150983674Y-76542044D01*
X150979253Y-76537134D01*
X150862074Y-76451998D01*
X150830094Y-76428763D01*
X150830093Y-76428762D01*
X150824752Y-76424882D01*
X150818724Y-76422198D01*
X150818722Y-76422197D01*
X150656319Y-76349891D01*
X150656318Y-76349891D01*
X150650288Y-76347206D01*
X150525781Y-76320741D01*
X150469944Y-76308872D01*
X150469939Y-76308872D01*
X150463487Y-76307500D01*
X150372239Y-76307500D01*
X150304118Y-76287498D01*
X150283144Y-76270595D01*
X149105115Y-75092566D01*
X149094248Y-75080175D01*
X149079813Y-75061363D01*
X149074787Y-75054813D01*
X149042875Y-75030326D01*
X149042872Y-75030323D01*
X148954229Y-74962304D01*
X148954227Y-74962303D01*
X148947676Y-74957276D01*
X148940049Y-74954117D01*
X148940044Y-74954114D01*
X148860858Y-74921315D01*
X148815438Y-74889216D01*
X148748472Y-74814842D01*
X148744053Y-74809934D01*
X148724966Y-74796066D01*
X148594894Y-74701563D01*
X148594893Y-74701562D01*
X148589552Y-74697682D01*
X148583524Y-74694998D01*
X148583522Y-74694997D01*
X148421119Y-74622691D01*
X148421118Y-74622691D01*
X148415088Y-74620006D01*
X148321688Y-74600153D01*
X148234744Y-74581672D01*
X148234739Y-74581672D01*
X148228287Y-74580300D01*
X148037313Y-74580300D01*
X148030861Y-74581672D01*
X148030856Y-74581672D01*
X147943912Y-74600153D01*
X147850512Y-74620006D01*
X147844482Y-74622691D01*
X147844481Y-74622691D01*
X147682078Y-74694997D01*
X147682076Y-74694998D01*
X147676048Y-74697682D01*
X147521547Y-74809934D01*
X147517128Y-74814842D01*
X147517125Y-74814845D01*
X147431084Y-74910404D01*
X147393760Y-74951856D01*
X147298273Y-75117244D01*
X147239258Y-75298872D01*
X147238568Y-75305433D01*
X147238568Y-75305435D01*
X147230520Y-75382006D01*
X147219296Y-75488800D01*
X145022829Y-75488800D01*
X144988094Y-75463563D01*
X144988093Y-75463562D01*
X144982752Y-75459682D01*
X144976724Y-75456998D01*
X144976722Y-75456997D01*
X144814319Y-75384691D01*
X144814318Y-75384691D01*
X144808288Y-75382006D01*
X144714888Y-75362153D01*
X144627944Y-75343672D01*
X144627939Y-75343672D01*
X144621487Y-75342300D01*
X144430513Y-75342300D01*
X144424061Y-75343672D01*
X144424056Y-75343672D01*
X144337112Y-75362153D01*
X144243712Y-75382006D01*
X144237682Y-75384691D01*
X144237681Y-75384691D01*
X144075278Y-75456997D01*
X144075276Y-75456998D01*
X144069248Y-75459682D01*
X144063907Y-75463562D01*
X144063906Y-75463563D01*
X144029171Y-75488800D01*
X143914747Y-75571934D01*
X143910326Y-75576844D01*
X143910325Y-75576845D01*
X143812937Y-75685006D01*
X143786960Y-75713856D01*
X143691473Y-75879244D01*
X143632458Y-76060872D01*
X143631768Y-76067433D01*
X143631768Y-76067435D01*
X143614701Y-76229819D01*
X143612496Y-76250800D01*
X143612684Y-76252586D01*
X143593184Y-76318996D01*
X143576281Y-76339970D01*
X140605456Y-79310795D01*
X140543144Y-79344821D01*
X140516361Y-79347700D01*
X140460313Y-79347700D01*
X140453861Y-79349072D01*
X140453856Y-79349072D01*
X140367712Y-79367383D01*
X140273512Y-79387406D01*
X140267482Y-79390091D01*
X140267481Y-79390091D01*
X140105078Y-79462397D01*
X140105076Y-79462398D01*
X140099048Y-79465082D01*
X139944547Y-79577334D01*
X139940126Y-79582244D01*
X139940125Y-79582245D01*
X139936993Y-79585724D01*
X139816760Y-79719256D01*
X139721273Y-79884644D01*
X139662258Y-80066272D01*
X139661568Y-80072833D01*
X139661568Y-80072835D01*
X139654981Y-80135510D01*
X139642296Y-80256200D01*
X113756384Y-80256200D01*
X113769040Y-80242144D01*
X113864527Y-80076756D01*
X113923542Y-79895128D01*
X113925246Y-79878921D01*
X113942814Y-79711765D01*
X113943504Y-79705200D01*
X113930947Y-79585724D01*
X113924232Y-79521835D01*
X113924232Y-79521833D01*
X113923542Y-79515272D01*
X113864527Y-79333644D01*
X113769040Y-79168256D01*
X113641253Y-79026334D01*
X113486752Y-78914082D01*
X113480724Y-78911398D01*
X113480722Y-78911397D01*
X113318319Y-78839091D01*
X113318318Y-78839091D01*
X113312288Y-78836406D01*
X113218888Y-78816553D01*
X113131944Y-78798072D01*
X113131939Y-78798072D01*
X113125487Y-78796700D01*
X112934513Y-78796700D01*
X112928061Y-78798072D01*
X112928056Y-78798072D01*
X112841112Y-78816553D01*
X112747712Y-78836406D01*
X112741682Y-78839091D01*
X112741681Y-78839091D01*
X112579278Y-78911397D01*
X112579276Y-78911398D01*
X112573248Y-78914082D01*
X112567907Y-78917962D01*
X112567906Y-78917963D01*
X112444866Y-79007357D01*
X112418747Y-79026334D01*
X112414334Y-79031236D01*
X112414332Y-79031237D01*
X112392926Y-79055011D01*
X112332480Y-79092250D01*
X112299290Y-79096700D01*
X111881110Y-79096700D01*
X111812989Y-79076698D01*
X111787474Y-79055011D01*
X111766068Y-79031237D01*
X111766066Y-79031236D01*
X111761653Y-79026334D01*
X111735534Y-79007357D01*
X111612494Y-78917963D01*
X111612493Y-78917962D01*
X111607152Y-78914082D01*
X111601124Y-78911398D01*
X111601122Y-78911397D01*
X111438719Y-78839091D01*
X111438718Y-78839091D01*
X111432688Y-78836406D01*
X111339288Y-78816553D01*
X111252344Y-78798072D01*
X111252339Y-78798072D01*
X111245887Y-78796700D01*
X111054913Y-78796700D01*
X111048461Y-78798072D01*
X111048456Y-78798072D01*
X110961512Y-78816553D01*
X110868112Y-78836406D01*
X110862082Y-78839091D01*
X110862081Y-78839091D01*
X110699678Y-78911397D01*
X110699676Y-78911398D01*
X110693648Y-78914082D01*
X110539147Y-79026334D01*
X110411360Y-79168256D01*
X110315873Y-79333644D01*
X110256858Y-79515272D01*
X110256168Y-79521833D01*
X110256168Y-79521835D01*
X110249453Y-79585724D01*
X110236896Y-79705200D01*
X91337504Y-79705200D01*
X91324947Y-79585724D01*
X91318232Y-79521835D01*
X91318232Y-79521833D01*
X91317542Y-79515272D01*
X91258527Y-79333644D01*
X91163040Y-79168256D01*
X91035253Y-79026334D01*
X90880752Y-78914082D01*
X90874724Y-78911398D01*
X90874722Y-78911397D01*
X90712319Y-78839091D01*
X90712318Y-78839091D01*
X90706288Y-78836406D01*
X90612888Y-78816553D01*
X90525944Y-78798072D01*
X90525939Y-78798072D01*
X90519487Y-78796700D01*
X90328513Y-78796700D01*
X90322061Y-78798072D01*
X90322056Y-78798072D01*
X90235112Y-78816553D01*
X90141712Y-78836406D01*
X90135682Y-78839091D01*
X90135681Y-78839091D01*
X89973278Y-78911397D01*
X89973276Y-78911398D01*
X89967248Y-78914082D01*
X89961907Y-78917962D01*
X89961906Y-78917963D01*
X89838866Y-79007357D01*
X89812747Y-79026334D01*
X89808334Y-79031236D01*
X89808332Y-79031237D01*
X89786926Y-79055011D01*
X89726480Y-79092250D01*
X89693290Y-79096700D01*
X88919510Y-79096700D01*
X88851389Y-79076698D01*
X88825874Y-79055011D01*
X88804468Y-79031237D01*
X88804466Y-79031236D01*
X88800053Y-79026334D01*
X88773934Y-79007357D01*
X88650894Y-78917963D01*
X88650893Y-78917962D01*
X88645552Y-78914082D01*
X88639524Y-78911398D01*
X88639522Y-78911397D01*
X88477119Y-78839091D01*
X88477118Y-78839091D01*
X88471088Y-78836406D01*
X88377688Y-78816553D01*
X88290744Y-78798072D01*
X88290739Y-78798072D01*
X88284287Y-78796700D01*
X88093313Y-78796700D01*
X88086861Y-78798072D01*
X88086856Y-78798072D01*
X87999912Y-78816553D01*
X87906512Y-78836406D01*
X87900482Y-78839091D01*
X87900481Y-78839091D01*
X87738078Y-78911397D01*
X87738076Y-78911398D01*
X87732048Y-78914082D01*
X87577547Y-79026334D01*
X87449760Y-79168256D01*
X87354273Y-79333644D01*
X87295258Y-79515272D01*
X87294568Y-79521833D01*
X87294568Y-79521835D01*
X87287853Y-79585724D01*
X87275296Y-79705200D01*
X64266578Y-79705200D01*
X64455337Y-79406503D01*
X64461049Y-79398216D01*
X64742483Y-79022986D01*
X64748843Y-79015178D01*
X65017656Y-78710822D01*
X65059329Y-78663639D01*
X65066288Y-78656367D01*
X65078108Y-78644966D01*
X65272407Y-78457545D01*
X65403859Y-78330747D01*
X65411381Y-78324051D01*
X65773887Y-78026422D01*
X65781911Y-78020354D01*
X66125691Y-77781365D01*
X66135135Y-77774800D01*
X79655296Y-77774800D01*
X79655986Y-77781365D01*
X79669017Y-77905344D01*
X79675258Y-77964728D01*
X79734273Y-78146356D01*
X79829760Y-78311744D01*
X79834178Y-78316651D01*
X79834179Y-78316652D01*
X79853249Y-78337831D01*
X79957547Y-78453666D01*
X80112048Y-78565918D01*
X80118076Y-78568602D01*
X80118078Y-78568603D01*
X80280481Y-78640909D01*
X80286512Y-78643594D01*
X80363056Y-78659864D01*
X80466856Y-78681928D01*
X80466861Y-78681928D01*
X80473313Y-78683300D01*
X80664287Y-78683300D01*
X80670739Y-78681928D01*
X80670744Y-78681928D01*
X80774544Y-78659864D01*
X80851088Y-78643594D01*
X80857119Y-78640909D01*
X81019522Y-78568603D01*
X81019524Y-78568602D01*
X81025552Y-78565918D01*
X81080905Y-78525702D01*
X81158471Y-78469346D01*
X81180053Y-78453666D01*
X81214878Y-78414989D01*
X81275324Y-78377750D01*
X81308514Y-78373300D01*
X83994686Y-78373300D01*
X84062807Y-78393302D01*
X84088322Y-78414989D01*
X84123147Y-78453666D01*
X84144729Y-78469346D01*
X84222296Y-78525702D01*
X84277648Y-78565918D01*
X84283676Y-78568602D01*
X84283678Y-78568603D01*
X84446081Y-78640909D01*
X84452112Y-78643594D01*
X84528656Y-78659864D01*
X84632456Y-78681928D01*
X84632461Y-78681928D01*
X84638913Y-78683300D01*
X84829887Y-78683300D01*
X84836339Y-78681928D01*
X84836344Y-78681928D01*
X84940144Y-78659864D01*
X85016688Y-78643594D01*
X85022719Y-78640909D01*
X85185122Y-78568603D01*
X85185124Y-78568602D01*
X85191152Y-78565918D01*
X85345653Y-78453666D01*
X85449951Y-78337831D01*
X85469021Y-78316652D01*
X85469022Y-78316651D01*
X85473440Y-78311744D01*
X85568927Y-78146356D01*
X85627942Y-77964728D01*
X85634184Y-77905344D01*
X85647214Y-77781365D01*
X85647904Y-77774800D01*
X85645467Y-77751615D01*
X85628632Y-77591435D01*
X85628632Y-77591433D01*
X85627942Y-77584872D01*
X85568927Y-77403244D01*
X85545020Y-77361835D01*
X85479183Y-77247803D01*
X85473440Y-77237856D01*
X85419971Y-77178472D01*
X85350075Y-77100845D01*
X85350074Y-77100844D01*
X85345653Y-77095934D01*
X85240856Y-77019794D01*
X85196494Y-76987563D01*
X85196493Y-76987562D01*
X85191152Y-76983682D01*
X85185124Y-76980998D01*
X85185122Y-76980997D01*
X85022719Y-76908691D01*
X85022718Y-76908691D01*
X85016688Y-76906006D01*
X84923288Y-76886153D01*
X84836344Y-76867672D01*
X84836339Y-76867672D01*
X84829887Y-76866300D01*
X84638913Y-76866300D01*
X84632461Y-76867672D01*
X84632456Y-76867672D01*
X84545512Y-76886153D01*
X84452112Y-76906006D01*
X84446082Y-76908691D01*
X84446081Y-76908691D01*
X84283678Y-76980997D01*
X84283676Y-76980998D01*
X84277648Y-76983682D01*
X84272307Y-76987562D01*
X84272306Y-76987563D01*
X84219303Y-77026072D01*
X84123147Y-77095934D01*
X84118734Y-77100836D01*
X84118732Y-77100837D01*
X84088322Y-77134611D01*
X84027876Y-77171850D01*
X83994686Y-77176300D01*
X81308514Y-77176300D01*
X81240393Y-77156298D01*
X81214878Y-77134611D01*
X81184468Y-77100837D01*
X81184466Y-77100836D01*
X81180053Y-77095934D01*
X81083897Y-77026072D01*
X81030894Y-76987563D01*
X81030893Y-76987562D01*
X81025552Y-76983682D01*
X81019524Y-76980998D01*
X81019522Y-76980997D01*
X80857119Y-76908691D01*
X80857118Y-76908691D01*
X80851088Y-76906006D01*
X80757688Y-76886153D01*
X80670744Y-76867672D01*
X80670739Y-76867672D01*
X80664287Y-76866300D01*
X80473313Y-76866300D01*
X80466861Y-76867672D01*
X80466856Y-76867672D01*
X80379912Y-76886153D01*
X80286512Y-76906006D01*
X80280482Y-76908691D01*
X80280481Y-76908691D01*
X80118078Y-76980997D01*
X80118076Y-76980998D01*
X80112048Y-76983682D01*
X80106707Y-76987562D01*
X80106706Y-76987563D01*
X80062344Y-77019794D01*
X79957547Y-77095934D01*
X79953126Y-77100844D01*
X79953125Y-77100845D01*
X79883230Y-77178472D01*
X79829760Y-77237856D01*
X79824017Y-77247803D01*
X79758181Y-77361835D01*
X79734273Y-77403244D01*
X79675258Y-77584872D01*
X79674568Y-77591433D01*
X79674568Y-77591435D01*
X79657733Y-77751615D01*
X79655296Y-77774800D01*
X66135135Y-77774800D01*
X66167029Y-77752628D01*
X66175521Y-77747215D01*
X66454167Y-77584872D01*
X66580785Y-77511103D01*
X66589666Y-77506393D01*
X67012506Y-77303394D01*
X67021750Y-77299403D01*
X67459421Y-77130833D01*
X67468956Y-77127591D01*
X67646288Y-77075118D01*
X67918721Y-76994505D01*
X67928474Y-76992038D01*
X68224378Y-76929666D01*
X68387426Y-76895298D01*
X68397355Y-76893617D01*
X68609939Y-76866300D01*
X68862549Y-76833840D01*
X68872564Y-76832958D01*
X69079790Y-76823035D01*
X69302323Y-76812379D01*
X69326748Y-76813586D01*
X69330982Y-76814211D01*
X69330987Y-76814211D01*
X69339867Y-76815522D01*
X69348759Y-76814288D01*
X69348761Y-76814288D01*
X69366670Y-76811803D01*
X69384756Y-76810609D01*
X69399100Y-76810696D01*
X69411818Y-76810774D01*
X69420449Y-76808307D01*
X69420451Y-76808307D01*
X69438911Y-76803031D01*
X69456214Y-76799376D01*
X69484142Y-76795500D01*
X69501045Y-76787903D01*
X69508825Y-76784406D01*
X69525854Y-76778182D01*
X69543236Y-76773214D01*
X69551868Y-76770747D01*
X69559460Y-76765957D01*
X69559462Y-76765956D01*
X69575709Y-76755705D01*
X69591284Y-76747344D01*
X69616997Y-76735787D01*
X69623821Y-76729958D01*
X69623825Y-76729956D01*
X69637571Y-76718215D01*
X69652161Y-76707467D01*
X69675055Y-76693022D01*
X69682340Y-76684774D01*
X69687390Y-76679056D01*
X69693714Y-76671895D01*
X69706322Y-76659494D01*
X69708008Y-76658054D01*
X69727755Y-76641188D01*
X69732670Y-76633676D01*
X69732674Y-76633672D01*
X69742575Y-76618541D01*
X69753567Y-76604124D01*
X69765531Y-76590577D01*
X69771475Y-76583847D01*
X69783457Y-76558326D01*
X69792073Y-76542894D01*
X69802594Y-76526815D01*
X69807508Y-76519305D01*
X69811012Y-76507772D01*
X69815376Y-76493411D01*
X69821878Y-76476496D01*
X69829563Y-76460126D01*
X69829565Y-76460120D01*
X69833378Y-76451998D01*
X69837715Y-76424146D01*
X69841655Y-76406908D01*
X69842467Y-76404238D01*
X69849849Y-76379938D01*
X69850163Y-76349891D01*
X69850213Y-76345154D01*
X69850291Y-76343380D01*
X69850597Y-76341412D01*
X69850597Y-76309003D01*
X69850604Y-76307686D01*
X69851306Y-76240554D01*
X69851306Y-76240548D01*
X69851371Y-76234287D01*
X69850745Y-76232061D01*
X69850597Y-76229819D01*
X69850597Y-73304400D01*
X79655296Y-73304400D01*
X79655986Y-73310965D01*
X79671708Y-73460548D01*
X79675258Y-73494328D01*
X79734273Y-73675956D01*
X79737576Y-73681678D01*
X79737577Y-73681679D01*
X79761339Y-73722835D01*
X79829760Y-73841344D01*
X79834178Y-73846251D01*
X79834179Y-73846252D01*
X79894068Y-73912765D01*
X79957547Y-73983266D01*
X80112048Y-74095518D01*
X80118076Y-74098202D01*
X80118078Y-74098203D01*
X80175492Y-74123765D01*
X80286512Y-74173194D01*
X80379912Y-74193047D01*
X80466856Y-74211528D01*
X80466861Y-74211528D01*
X80473313Y-74212900D01*
X80664287Y-74212900D01*
X80670739Y-74211528D01*
X80670744Y-74211528D01*
X80757688Y-74193047D01*
X80851088Y-74173194D01*
X80962108Y-74123765D01*
X81019522Y-74098203D01*
X81019524Y-74098202D01*
X81025552Y-74095518D01*
X81174963Y-73986964D01*
X81241831Y-73963106D01*
X81249024Y-73962900D01*
X84003376Y-73962900D01*
X84071497Y-73982902D01*
X84077434Y-73986962D01*
X84226848Y-74095518D01*
X84232876Y-74098202D01*
X84232878Y-74098203D01*
X84290292Y-74123765D01*
X84401312Y-74173194D01*
X84494712Y-74193047D01*
X84581656Y-74211528D01*
X84581661Y-74211528D01*
X84588113Y-74212900D01*
X84779087Y-74212900D01*
X84785539Y-74211528D01*
X84785544Y-74211528D01*
X84872488Y-74193047D01*
X84965888Y-74173194D01*
X85076908Y-74123765D01*
X85134322Y-74098203D01*
X85134324Y-74098202D01*
X85140352Y-74095518D01*
X85294853Y-73983266D01*
X85358332Y-73912765D01*
X85364243Y-73906200D01*
X138677096Y-73906200D01*
X138677786Y-73912765D01*
X138685585Y-73986964D01*
X138697058Y-74096128D01*
X138756073Y-74277756D01*
X138759376Y-74283478D01*
X138759377Y-74283479D01*
X138784221Y-74326509D01*
X138851560Y-74443144D01*
X138855978Y-74448051D01*
X138855979Y-74448052D01*
X138894085Y-74490373D01*
X138979347Y-74585066D01*
X139133848Y-74697318D01*
X139139876Y-74700002D01*
X139139878Y-74700003D01*
X139143382Y-74701563D01*
X139308312Y-74774994D01*
X139401712Y-74794847D01*
X139488656Y-74813328D01*
X139488661Y-74813328D01*
X139495113Y-74814700D01*
X139686087Y-74814700D01*
X139692539Y-74813328D01*
X139692544Y-74813328D01*
X139779488Y-74794847D01*
X139872888Y-74774994D01*
X140037818Y-74701563D01*
X140041322Y-74700003D01*
X140041324Y-74700002D01*
X140047352Y-74697318D01*
X140100021Y-74659052D01*
X140180271Y-74600746D01*
X140201853Y-74585066D01*
X140236678Y-74546389D01*
X140297124Y-74509150D01*
X140330314Y-74504700D01*
X140981118Y-74504700D01*
X140997565Y-74505778D01*
X141028600Y-74509864D01*
X141067823Y-74504700D01*
X141067828Y-74504700D01*
X141176654Y-74490373D01*
X141176656Y-74490372D01*
X141184840Y-74489295D01*
X141270126Y-74453968D01*
X141310063Y-74437426D01*
X141322801Y-74432150D01*
X141322802Y-74432149D01*
X141330432Y-74428989D01*
X141424067Y-74357140D01*
X141426284Y-74360030D01*
X141426285Y-74360029D01*
X141424068Y-74357139D01*
X141448909Y-74338078D01*
X141455455Y-74333055D01*
X141474513Y-74308218D01*
X141485380Y-74295827D01*
X141802852Y-73978355D01*
X142141001Y-73640205D01*
X142203314Y-73606180D01*
X142230097Y-73603300D01*
X142335487Y-73603300D01*
X142341939Y-73601928D01*
X142341944Y-73601928D01*
X142480660Y-73572442D01*
X142522288Y-73563594D01*
X142528323Y-73560907D01*
X142528560Y-73560830D01*
X142599528Y-73558802D01*
X142660326Y-73595464D01*
X142691652Y-73659175D01*
X142683560Y-73729709D01*
X142681316Y-73734218D01*
X142678777Y-73739921D01*
X142675473Y-73745644D01*
X142616458Y-73927272D01*
X142615768Y-73933833D01*
X142615768Y-73933835D01*
X142599183Y-74091637D01*
X142596496Y-74117200D01*
X142597186Y-74123765D01*
X142597186Y-74130370D01*
X142594349Y-74130370D01*
X142583851Y-74187930D01*
X142560381Y-74220412D01*
X141272198Y-75508595D01*
X141209886Y-75542621D01*
X141183103Y-75545500D01*
X141026913Y-75545500D01*
X141020461Y-75546872D01*
X141020456Y-75546872D01*
X140933513Y-75565353D01*
X140840112Y-75585206D01*
X140834082Y-75587891D01*
X140834081Y-75587891D01*
X140671678Y-75660197D01*
X140671676Y-75660198D01*
X140665648Y-75662882D01*
X140511147Y-75775134D01*
X140506726Y-75780044D01*
X140506725Y-75780045D01*
X140478642Y-75811235D01*
X140383360Y-75917056D01*
X140344982Y-75983528D01*
X140300328Y-76060872D01*
X140287873Y-76082444D01*
X140228858Y-76264072D01*
X140228168Y-76270633D01*
X140228168Y-76270635D01*
X140213097Y-76414026D01*
X140208896Y-76454000D01*
X140209586Y-76460565D01*
X140225528Y-76612241D01*
X140228858Y-76643928D01*
X140287873Y-76825556D01*
X140383360Y-76990944D01*
X140387778Y-76995851D01*
X140387779Y-76995852D01*
X140410245Y-77020803D01*
X140511147Y-77132866D01*
X140545642Y-77157928D01*
X140655653Y-77237856D01*
X140665648Y-77245118D01*
X140671676Y-77247802D01*
X140671678Y-77247803D01*
X140796761Y-77303493D01*
X140840112Y-77322794D01*
X140913918Y-77338482D01*
X141020456Y-77361128D01*
X141020461Y-77361128D01*
X141026913Y-77362500D01*
X141217887Y-77362500D01*
X141224339Y-77361128D01*
X141224344Y-77361128D01*
X141330882Y-77338482D01*
X141404688Y-77322794D01*
X141448039Y-77303493D01*
X141573122Y-77247803D01*
X141573124Y-77247802D01*
X141579152Y-77245118D01*
X141589148Y-77237856D01*
X141699158Y-77157928D01*
X141733653Y-77132866D01*
X141834555Y-77020803D01*
X141857021Y-76995852D01*
X141857022Y-76995851D01*
X141861440Y-76990944D01*
X141956927Y-76825556D01*
X142015942Y-76643928D01*
X142019273Y-76612241D01*
X142031762Y-76493411D01*
X142033154Y-76480162D01*
X142060167Y-76414506D01*
X142069369Y-76404238D01*
X143411001Y-75062605D01*
X143473313Y-75028580D01*
X143500096Y-75025700D01*
X143605487Y-75025700D01*
X143611939Y-75024328D01*
X143611944Y-75024328D01*
X143698888Y-75005847D01*
X143792288Y-74985994D01*
X143798319Y-74983309D01*
X143960722Y-74911003D01*
X143960724Y-74911002D01*
X143966752Y-74908318D01*
X144121253Y-74796066D01*
X144206344Y-74701563D01*
X144244621Y-74659052D01*
X144244622Y-74659051D01*
X144249040Y-74654144D01*
X144332340Y-74509864D01*
X144341223Y-74494479D01*
X144341224Y-74494478D01*
X144344527Y-74488756D01*
X144403542Y-74307128D01*
X144423504Y-74117200D01*
X144420817Y-74091637D01*
X144404232Y-73933835D01*
X144404232Y-73933833D01*
X144403542Y-73927272D01*
X144344527Y-73745644D01*
X144323945Y-73709994D01*
X144252341Y-73585974D01*
X144249040Y-73580256D01*
X144234038Y-73563594D01*
X144125675Y-73443245D01*
X144125674Y-73443244D01*
X144121253Y-73438334D01*
X144019420Y-73364348D01*
X143972094Y-73329963D01*
X143972093Y-73329962D01*
X143966752Y-73326082D01*
X143960724Y-73323398D01*
X143960722Y-73323397D01*
X143798319Y-73251091D01*
X143798318Y-73251091D01*
X143792288Y-73248406D01*
X143682873Y-73225149D01*
X143611944Y-73210072D01*
X143611939Y-73210072D01*
X143605487Y-73208700D01*
X143414513Y-73208700D01*
X143408061Y-73210072D01*
X143408056Y-73210072D01*
X143303743Y-73232245D01*
X143227712Y-73248406D01*
X143221677Y-73251093D01*
X143221440Y-73251170D01*
X143150472Y-73253198D01*
X143089674Y-73216536D01*
X143058348Y-73152825D01*
X143066440Y-73082291D01*
X143068684Y-73077782D01*
X143071224Y-73072078D01*
X143074527Y-73066356D01*
X143133542Y-72884728D01*
X143146384Y-72762548D01*
X143152814Y-72701365D01*
X143153504Y-72694800D01*
X143152814Y-72688235D01*
X143137486Y-72542400D01*
X159563696Y-72542400D01*
X159564386Y-72548965D01*
X159574553Y-72645694D01*
X159583658Y-72732328D01*
X159642673Y-72913956D01*
X159738160Y-73079344D01*
X159742578Y-73084251D01*
X159742579Y-73084252D01*
X159855868Y-73210072D01*
X159865947Y-73221266D01*
X159927533Y-73266011D01*
X160006518Y-73323397D01*
X160020448Y-73333518D01*
X160026476Y-73336202D01*
X160026478Y-73336203D01*
X160100717Y-73369256D01*
X160194912Y-73411194D01*
X160288312Y-73431047D01*
X160375256Y-73449528D01*
X160375261Y-73449528D01*
X160381713Y-73450900D01*
X160472961Y-73450900D01*
X160541082Y-73470902D01*
X160562056Y-73487805D01*
X161660595Y-74586344D01*
X161694621Y-74648656D01*
X161697500Y-74675439D01*
X161697500Y-75063310D01*
X161677498Y-75131431D01*
X161665136Y-75147620D01*
X161566960Y-75256656D01*
X161471473Y-75422044D01*
X161412458Y-75603672D01*
X161411768Y-75610233D01*
X161411768Y-75610235D01*
X161401393Y-75708948D01*
X161392496Y-75793600D01*
X161393186Y-75800165D01*
X161406073Y-75922774D01*
X161412458Y-75983528D01*
X161471473Y-76165156D01*
X161566960Y-76330544D01*
X161571378Y-76335451D01*
X161571379Y-76335452D01*
X161677124Y-76452894D01*
X161694747Y-76472466D01*
X161759215Y-76519305D01*
X161840803Y-76578582D01*
X161849248Y-76584718D01*
X161855276Y-76587402D01*
X161855278Y-76587403D01*
X161996337Y-76650206D01*
X162023712Y-76662394D01*
X162106339Y-76679957D01*
X162204056Y-76700728D01*
X162204061Y-76700728D01*
X162210513Y-76702100D01*
X162401487Y-76702100D01*
X162407939Y-76700728D01*
X162407944Y-76700728D01*
X162505661Y-76679957D01*
X162588288Y-76662394D01*
X162615663Y-76650206D01*
X162756722Y-76587403D01*
X162756724Y-76587402D01*
X162762752Y-76584718D01*
X162768094Y-76580837D01*
X162911909Y-76476349D01*
X162911911Y-76476347D01*
X162917253Y-76472466D01*
X162917586Y-76472925D01*
X162977577Y-76444132D01*
X163048031Y-76452894D01*
X163102564Y-76498355D01*
X163117718Y-76529549D01*
X163147873Y-76622356D01*
X163151176Y-76628078D01*
X163151177Y-76628079D01*
X163162112Y-76647018D01*
X163243360Y-76787744D01*
X163247778Y-76792651D01*
X163247779Y-76792652D01*
X163251557Y-76796848D01*
X163371147Y-76929666D01*
X163460391Y-76994506D01*
X163504455Y-77026520D01*
X163525648Y-77041918D01*
X163531676Y-77044602D01*
X163531678Y-77044603D01*
X163694081Y-77116909D01*
X163700112Y-77119594D01*
X163793512Y-77139447D01*
X163880456Y-77157928D01*
X163880461Y-77157928D01*
X163886913Y-77159300D01*
X164077887Y-77159300D01*
X164084339Y-77157928D01*
X164084344Y-77157928D01*
X164171288Y-77139447D01*
X164264688Y-77119594D01*
X164270719Y-77116909D01*
X164433122Y-77044603D01*
X164433124Y-77044602D01*
X164439152Y-77041918D01*
X164460346Y-77026520D01*
X164504409Y-76994506D01*
X164593653Y-76929666D01*
X164713243Y-76796848D01*
X164717021Y-76792652D01*
X164717022Y-76792651D01*
X164721440Y-76787744D01*
X164802688Y-76647018D01*
X164813623Y-76628079D01*
X164813624Y-76628078D01*
X164816927Y-76622356D01*
X164875942Y-76440728D01*
X164877608Y-76424882D01*
X164895214Y-76257365D01*
X164895904Y-76250800D01*
X164893699Y-76229819D01*
X164876632Y-76067435D01*
X164876632Y-76067433D01*
X164875942Y-76060872D01*
X164816927Y-75879244D01*
X164721440Y-75713856D01*
X164695464Y-75685006D01*
X164598075Y-75576845D01*
X164598074Y-75576844D01*
X164593653Y-75571934D01*
X164479229Y-75488800D01*
X164444494Y-75463563D01*
X164444493Y-75463562D01*
X164439152Y-75459682D01*
X164433124Y-75456998D01*
X164433122Y-75456997D01*
X164270719Y-75384691D01*
X164270718Y-75384691D01*
X164264688Y-75382006D01*
X164171288Y-75362153D01*
X164084344Y-75343672D01*
X164084339Y-75343672D01*
X164077887Y-75342300D01*
X163986639Y-75342300D01*
X163918518Y-75322298D01*
X163897543Y-75305395D01*
X163662604Y-75070455D01*
X163628579Y-75008143D01*
X163625700Y-74981360D01*
X163625700Y-73962136D01*
X163626778Y-73945690D01*
X163629872Y-73922188D01*
X163630950Y-73914000D01*
X163625700Y-73874120D01*
X163625700Y-73874115D01*
X163610038Y-73755150D01*
X163607889Y-73749961D01*
X163603731Y-73739921D01*
X163570284Y-73659175D01*
X163548724Y-73607124D01*
X163528108Y-73580256D01*
X163475683Y-73511936D01*
X163475677Y-73511928D01*
X163475674Y-73511925D01*
X163451187Y-73480013D01*
X163444632Y-73474983D01*
X163425821Y-73460548D01*
X163413430Y-73449681D01*
X162849319Y-72885570D01*
X162815293Y-72823258D01*
X162812759Y-72799684D01*
X162813104Y-72796400D01*
X162810062Y-72767456D01*
X162793832Y-72613035D01*
X162793832Y-72613033D01*
X162793142Y-72606472D01*
X162734127Y-72424844D01*
X162638640Y-72259456D01*
X162558854Y-72170844D01*
X162515275Y-72122445D01*
X162515274Y-72122444D01*
X162510853Y-72117534D01*
X162356352Y-72005282D01*
X162350324Y-72002598D01*
X162350322Y-72002597D01*
X162187919Y-71930291D01*
X162187918Y-71930291D01*
X162181888Y-71927606D01*
X162087594Y-71907563D01*
X162001544Y-71889272D01*
X162001539Y-71889272D01*
X161995087Y-71887900D01*
X161804113Y-71887900D01*
X161797661Y-71889272D01*
X161797656Y-71889272D01*
X161711606Y-71907563D01*
X161617312Y-71927606D01*
X161611282Y-71930291D01*
X161611281Y-71930291D01*
X161448878Y-72002597D01*
X161448876Y-72002598D01*
X161442848Y-72005282D01*
X161395824Y-72039447D01*
X161328959Y-72063304D01*
X161259807Y-72047224D01*
X161219828Y-72011570D01*
X161219545Y-72011181D01*
X161216240Y-72005456D01*
X161088453Y-71863534D01*
X160933952Y-71751282D01*
X160927924Y-71748598D01*
X160927922Y-71748597D01*
X160765519Y-71676291D01*
X160765518Y-71676291D01*
X160759488Y-71673606D01*
X160666088Y-71653753D01*
X160579144Y-71635272D01*
X160579139Y-71635272D01*
X160572687Y-71633900D01*
X160381713Y-71633900D01*
X160375261Y-71635272D01*
X160375256Y-71635272D01*
X160288312Y-71653753D01*
X160194912Y-71673606D01*
X160188882Y-71676291D01*
X160188881Y-71676291D01*
X160026478Y-71748597D01*
X160026476Y-71748598D01*
X160020448Y-71751282D01*
X159865947Y-71863534D01*
X159861526Y-71868444D01*
X159861525Y-71868445D01*
X159829798Y-71903682D01*
X159738160Y-72005456D01*
X159679886Y-72106390D01*
X159650172Y-72157856D01*
X159642673Y-72170844D01*
X159583658Y-72352472D01*
X159582968Y-72359033D01*
X159582968Y-72359035D01*
X159566756Y-72513282D01*
X159563696Y-72542400D01*
X143137486Y-72542400D01*
X143134232Y-72511435D01*
X143134232Y-72511433D01*
X143133542Y-72504872D01*
X143074527Y-72323244D01*
X142979040Y-72157856D01*
X142851253Y-72015934D01*
X142733376Y-71930291D01*
X142702094Y-71907563D01*
X142702093Y-71907562D01*
X142696752Y-71903682D01*
X142690724Y-71900998D01*
X142690722Y-71900997D01*
X142528319Y-71828691D01*
X142528318Y-71828691D01*
X142522288Y-71826006D01*
X142428888Y-71806153D01*
X142341944Y-71787672D01*
X142341939Y-71787672D01*
X142335487Y-71786300D01*
X142144513Y-71786300D01*
X142138061Y-71787672D01*
X142138056Y-71787672D01*
X142051112Y-71806153D01*
X141957712Y-71826006D01*
X141951682Y-71828691D01*
X141951681Y-71828691D01*
X141789278Y-71900997D01*
X141789276Y-71900998D01*
X141783248Y-71903682D01*
X141777907Y-71907562D01*
X141777906Y-71907563D01*
X141746624Y-71930291D01*
X141628747Y-72015934D01*
X141500960Y-72157856D01*
X141405473Y-72323244D01*
X141346458Y-72504872D01*
X141345768Y-72511433D01*
X141345768Y-72511435D01*
X141327186Y-72688235D01*
X141326496Y-72694800D01*
X141327186Y-72701365D01*
X141327186Y-72707970D01*
X141324349Y-72707970D01*
X141313851Y-72765530D01*
X141290381Y-72798012D01*
X140817598Y-73270795D01*
X140755286Y-73304821D01*
X140728503Y-73307700D01*
X140330314Y-73307700D01*
X140262193Y-73287698D01*
X140236678Y-73266011D01*
X140206268Y-73232237D01*
X140206266Y-73232236D01*
X140201853Y-73227334D01*
X140047352Y-73115082D01*
X140041324Y-73112398D01*
X140041322Y-73112397D01*
X139878919Y-73040091D01*
X139878918Y-73040091D01*
X139872888Y-73037406D01*
X139779488Y-73017553D01*
X139692544Y-72999072D01*
X139692539Y-72999072D01*
X139686087Y-72997700D01*
X139495113Y-72997700D01*
X139488661Y-72999072D01*
X139488656Y-72999072D01*
X139401712Y-73017553D01*
X139308312Y-73037406D01*
X139302282Y-73040091D01*
X139302281Y-73040091D01*
X139139878Y-73112397D01*
X139139876Y-73112398D01*
X139133848Y-73115082D01*
X138979347Y-73227334D01*
X138974926Y-73232244D01*
X138974925Y-73232245D01*
X138883739Y-73333518D01*
X138851560Y-73369256D01*
X138798852Y-73460548D01*
X138779350Y-73494328D01*
X138756073Y-73534644D01*
X138697058Y-73716272D01*
X138696368Y-73722833D01*
X138696368Y-73722835D01*
X138683397Y-73846252D01*
X138677096Y-73906200D01*
X85364243Y-73906200D01*
X85418221Y-73846252D01*
X85418222Y-73846251D01*
X85422640Y-73841344D01*
X85491061Y-73722835D01*
X85514823Y-73681679D01*
X85514824Y-73681678D01*
X85518127Y-73675956D01*
X85577142Y-73494328D01*
X85580693Y-73460548D01*
X85596414Y-73310965D01*
X85597104Y-73304400D01*
X85589520Y-73232245D01*
X85577832Y-73121035D01*
X85577832Y-73121033D01*
X85577142Y-73114472D01*
X85518127Y-72932844D01*
X85422640Y-72767456D01*
X85396664Y-72738606D01*
X85299275Y-72630445D01*
X85299274Y-72630444D01*
X85294853Y-72625534D01*
X85180429Y-72542400D01*
X85145694Y-72517163D01*
X85145693Y-72517162D01*
X85140352Y-72513282D01*
X85134324Y-72510598D01*
X85134322Y-72510597D01*
X84971919Y-72438291D01*
X84971918Y-72438291D01*
X84965888Y-72435606D01*
X84872488Y-72415753D01*
X84785544Y-72397272D01*
X84785539Y-72397272D01*
X84779087Y-72395900D01*
X84588113Y-72395900D01*
X84581661Y-72397272D01*
X84581656Y-72397272D01*
X84494712Y-72415753D01*
X84401312Y-72435606D01*
X84395282Y-72438291D01*
X84395281Y-72438291D01*
X84232878Y-72510597D01*
X84232876Y-72510598D01*
X84226848Y-72513282D01*
X84221507Y-72517162D01*
X84221506Y-72517163D01*
X84177735Y-72548965D01*
X84077692Y-72621651D01*
X84077437Y-72621836D01*
X84010569Y-72645694D01*
X84003376Y-72645900D01*
X81249024Y-72645900D01*
X81180903Y-72625898D01*
X81174963Y-72621836D01*
X81174709Y-72621651D01*
X81074665Y-72548965D01*
X81030894Y-72517163D01*
X81030893Y-72517162D01*
X81025552Y-72513282D01*
X81019524Y-72510598D01*
X81019522Y-72510597D01*
X80857119Y-72438291D01*
X80857118Y-72438291D01*
X80851088Y-72435606D01*
X80757688Y-72415753D01*
X80670744Y-72397272D01*
X80670739Y-72397272D01*
X80664287Y-72395900D01*
X80473313Y-72395900D01*
X80466861Y-72397272D01*
X80466856Y-72397272D01*
X80379912Y-72415753D01*
X80286512Y-72435606D01*
X80280482Y-72438291D01*
X80280481Y-72438291D01*
X80118078Y-72510597D01*
X80118076Y-72510598D01*
X80112048Y-72513282D01*
X80106707Y-72517162D01*
X80106706Y-72517163D01*
X80071971Y-72542400D01*
X79957547Y-72625534D01*
X79953126Y-72630444D01*
X79953125Y-72630445D01*
X79855737Y-72738606D01*
X79829760Y-72767456D01*
X79734273Y-72932844D01*
X79675258Y-73114472D01*
X79674568Y-73121033D01*
X79674568Y-73121035D01*
X79662880Y-73232245D01*
X79655296Y-73304400D01*
X69850597Y-73304400D01*
X69850597Y-70764400D01*
X113234096Y-70764400D01*
X113234786Y-70770965D01*
X113249494Y-70910900D01*
X113254058Y-70954328D01*
X113313073Y-71135956D01*
X113408560Y-71301344D01*
X113536347Y-71443266D01*
X113690848Y-71555518D01*
X113696876Y-71558202D01*
X113696878Y-71558203D01*
X113859281Y-71630509D01*
X113865312Y-71633194D01*
X113958712Y-71653047D01*
X114045656Y-71671528D01*
X114045661Y-71671528D01*
X114052113Y-71672900D01*
X114243087Y-71672900D01*
X114249539Y-71671528D01*
X114249544Y-71671528D01*
X114336488Y-71653047D01*
X114429888Y-71633194D01*
X114435919Y-71630509D01*
X114598322Y-71558203D01*
X114598324Y-71558202D01*
X114604352Y-71555518D01*
X114758853Y-71443266D01*
X114886640Y-71301344D01*
X114982127Y-71135956D01*
X115041142Y-70954328D01*
X115054355Y-70828613D01*
X115081368Y-70762958D01*
X115090570Y-70752690D01*
X115368005Y-70475255D01*
X115376785Y-70467265D01*
X115376787Y-70467263D01*
X115383480Y-70463016D01*
X115432005Y-70411342D01*
X115434759Y-70408501D01*
X115455327Y-70387933D01*
X115458047Y-70384426D01*
X115465753Y-70375404D01*
X115491944Y-70347513D01*
X115497372Y-70341733D01*
X115501194Y-70334781D01*
X115507703Y-70322942D01*
X115518557Y-70306418D01*
X115526845Y-70295732D01*
X115531704Y-70289468D01*
X115534852Y-70282194D01*
X115550054Y-70247065D01*
X115555276Y-70236405D01*
X115573705Y-70202884D01*
X115573706Y-70202882D01*
X115577524Y-70195937D01*
X115582859Y-70175159D01*
X115589258Y-70156469D01*
X115597780Y-70136776D01*
X115605006Y-70091152D01*
X115607413Y-70079529D01*
X115616928Y-70042468D01*
X115618900Y-70034788D01*
X115618900Y-70013341D01*
X115619761Y-70002400D01*
X146711296Y-70002400D01*
X146711986Y-70008965D01*
X146719626Y-70081651D01*
X146731258Y-70192328D01*
X146790273Y-70373956D01*
X146793576Y-70379678D01*
X146793577Y-70379679D01*
X146799964Y-70390741D01*
X146885760Y-70539344D01*
X146890178Y-70544251D01*
X146890179Y-70544252D01*
X146917389Y-70574472D01*
X147013547Y-70681266D01*
X147111853Y-70752690D01*
X147137007Y-70770965D01*
X147168048Y-70793518D01*
X147174076Y-70796202D01*
X147174078Y-70796203D01*
X147246875Y-70828614D01*
X147342512Y-70871194D01*
X147435912Y-70891047D01*
X147522856Y-70909528D01*
X147522861Y-70909528D01*
X147529313Y-70910900D01*
X147720287Y-70910900D01*
X147726739Y-70909528D01*
X147726744Y-70909528D01*
X147813688Y-70891047D01*
X147907088Y-70871194D01*
X148002725Y-70828614D01*
X148075522Y-70796203D01*
X148075524Y-70796202D01*
X148081552Y-70793518D01*
X148112594Y-70770965D01*
X148137747Y-70752690D01*
X148236053Y-70681266D01*
X148332211Y-70574472D01*
X148359421Y-70544252D01*
X148359422Y-70544251D01*
X148363840Y-70539344D01*
X148449636Y-70390741D01*
X148456023Y-70379679D01*
X148456024Y-70379678D01*
X148459327Y-70373956D01*
X148518342Y-70192328D01*
X148529975Y-70081651D01*
X148537614Y-70008965D01*
X148538304Y-70002400D01*
X148538116Y-70000614D01*
X148557616Y-69934204D01*
X148574519Y-69913230D01*
X150430744Y-68057005D01*
X150493056Y-68022979D01*
X150519839Y-68020100D01*
X152386593Y-68020100D01*
X152454714Y-68040102D01*
X152480229Y-68061789D01*
X152499947Y-68083688D01*
X152654448Y-68195940D01*
X152660476Y-68198624D01*
X152660478Y-68198625D01*
X152822881Y-68270931D01*
X152828912Y-68273616D01*
X152922313Y-68293469D01*
X153009256Y-68311950D01*
X153009261Y-68311950D01*
X153015713Y-68313322D01*
X153206687Y-68313322D01*
X153213139Y-68311950D01*
X153213144Y-68311950D01*
X153300087Y-68293469D01*
X153393488Y-68273616D01*
X153399519Y-68270931D01*
X153561922Y-68198625D01*
X153561924Y-68198624D01*
X153567952Y-68195940D01*
X153722453Y-68083688D01*
X153742171Y-68061789D01*
X153845821Y-67946674D01*
X153845822Y-67946673D01*
X153850240Y-67941766D01*
X153945727Y-67776378D01*
X153995692Y-67622603D01*
X154035766Y-67563997D01*
X154101162Y-67536360D01*
X154141721Y-67538292D01*
X154218388Y-67554588D01*
X154234913Y-67558100D01*
X154425887Y-67558100D01*
X154432339Y-67556728D01*
X154432344Y-67556728D01*
X154528165Y-67536360D01*
X154612688Y-67518394D01*
X154646453Y-67503361D01*
X154781122Y-67443403D01*
X154781124Y-67443402D01*
X154787152Y-67440718D01*
X154941653Y-67328466D01*
X155069440Y-67186544D01*
X155164927Y-67021156D01*
X155223942Y-66839528D01*
X155243904Y-66649600D01*
X155223942Y-66459672D01*
X155164927Y-66278044D01*
X155159460Y-66268574D01*
X155108576Y-66180442D01*
X155069440Y-66112656D01*
X155054438Y-66095994D01*
X154946075Y-65975645D01*
X154946074Y-65975644D01*
X154941653Y-65970734D01*
X154787152Y-65858482D01*
X154781124Y-65855798D01*
X154781122Y-65855797D01*
X154618719Y-65783491D01*
X154618718Y-65783491D01*
X154612688Y-65780806D01*
X154507399Y-65758426D01*
X154432344Y-65742472D01*
X154432339Y-65742472D01*
X154425887Y-65741100D01*
X154234913Y-65741100D01*
X154228461Y-65742472D01*
X154228456Y-65742472D01*
X154153401Y-65758426D01*
X154048112Y-65780806D01*
X154042082Y-65783491D01*
X154042081Y-65783491D01*
X153879678Y-65855797D01*
X153879676Y-65855798D01*
X153873648Y-65858482D01*
X153868307Y-65862362D01*
X153868306Y-65862363D01*
X153774459Y-65930547D01*
X153719147Y-65970734D01*
X153714734Y-65975636D01*
X153714732Y-65975637D01*
X153693326Y-65999411D01*
X153632880Y-66036650D01*
X153599690Y-66041100D01*
X150570639Y-66041100D01*
X150502518Y-66021098D01*
X150481544Y-66004195D01*
X149738508Y-65261159D01*
X149704482Y-65198847D01*
X149702293Y-65185234D01*
X149687432Y-65043835D01*
X149687432Y-65043833D01*
X149686742Y-65037272D01*
X149627727Y-64855644D01*
X149532240Y-64690256D01*
X149404453Y-64548334D01*
X149249952Y-64436082D01*
X149243924Y-64433398D01*
X149243922Y-64433397D01*
X149081519Y-64361091D01*
X149081518Y-64361091D01*
X149075488Y-64358406D01*
X148982088Y-64338553D01*
X148895144Y-64320072D01*
X148895139Y-64320072D01*
X148888687Y-64318700D01*
X148697713Y-64318700D01*
X148691261Y-64320072D01*
X148691256Y-64320072D01*
X148604312Y-64338553D01*
X148510912Y-64358406D01*
X148504882Y-64361091D01*
X148504881Y-64361091D01*
X148342478Y-64433397D01*
X148342476Y-64433398D01*
X148336448Y-64436082D01*
X148181947Y-64548334D01*
X148054160Y-64690256D01*
X147958673Y-64855644D01*
X147899658Y-65037272D01*
X147879696Y-65227200D01*
X147899658Y-65417128D01*
X147958673Y-65598756D01*
X148054160Y-65764144D01*
X148058578Y-65769051D01*
X148058579Y-65769052D01*
X148151826Y-65872613D01*
X148181947Y-65906066D01*
X148238428Y-65947102D01*
X148330965Y-66014334D01*
X148336448Y-66018318D01*
X148342476Y-66021002D01*
X148342478Y-66021003D01*
X148499147Y-66090756D01*
X148510912Y-66095994D01*
X148597905Y-66114485D01*
X148691256Y-66134328D01*
X148691261Y-66134328D01*
X148697713Y-66135700D01*
X148839761Y-66135700D01*
X148907882Y-66155702D01*
X148928856Y-66172605D01*
X149672356Y-66916105D01*
X149706382Y-66978417D01*
X149701317Y-67049232D01*
X149672356Y-67094295D01*
X147709656Y-69056995D01*
X147647344Y-69091021D01*
X147620561Y-69093900D01*
X147529313Y-69093900D01*
X147522861Y-69095272D01*
X147522856Y-69095272D01*
X147435912Y-69113753D01*
X147342512Y-69133606D01*
X147336482Y-69136291D01*
X147336481Y-69136291D01*
X147174078Y-69208597D01*
X147174076Y-69208598D01*
X147168048Y-69211282D01*
X147013547Y-69323534D01*
X147009126Y-69328444D01*
X147009125Y-69328445D01*
X146906855Y-69442028D01*
X146885760Y-69465456D01*
X146882459Y-69471174D01*
X146798052Y-69617371D01*
X146790273Y-69630844D01*
X146731258Y-69812472D01*
X146730568Y-69819033D01*
X146730568Y-69819035D01*
X146716332Y-69954481D01*
X146711296Y-70002400D01*
X115619761Y-70002400D01*
X115620451Y-69993631D01*
X115622566Y-69980277D01*
X115623806Y-69972448D01*
X115620507Y-69937552D01*
X115634009Y-69867853D01*
X115652312Y-69841385D01*
X115695021Y-69793952D01*
X115695022Y-69793951D01*
X115699440Y-69789044D01*
X115769365Y-69667931D01*
X115791623Y-69629379D01*
X115791624Y-69629378D01*
X115794927Y-69623656D01*
X115853942Y-69442028D01*
X115873904Y-69252100D01*
X115853942Y-69062172D01*
X115794927Y-68880544D01*
X115699440Y-68715156D01*
X115571653Y-68573234D01*
X115417152Y-68460982D01*
X115411124Y-68458298D01*
X115411122Y-68458297D01*
X115248719Y-68385991D01*
X115248718Y-68385991D01*
X115242688Y-68383306D01*
X115149288Y-68363453D01*
X115062344Y-68344972D01*
X115062339Y-68344972D01*
X115055887Y-68343600D01*
X114864913Y-68343600D01*
X114858461Y-68344972D01*
X114858456Y-68344972D01*
X114771512Y-68363453D01*
X114678112Y-68383306D01*
X114672082Y-68385991D01*
X114672081Y-68385991D01*
X114509678Y-68458297D01*
X114509676Y-68458298D01*
X114503648Y-68460982D01*
X114349147Y-68573234D01*
X114221360Y-68715156D01*
X114125873Y-68880544D01*
X114066858Y-69062172D01*
X114046896Y-69252100D01*
X114066858Y-69442028D01*
X114125873Y-69623656D01*
X114133652Y-69637129D01*
X114151435Y-69667931D01*
X114168172Y-69736927D01*
X114144951Y-69804018D01*
X114089143Y-69847905D01*
X114056854Y-69855900D01*
X114052113Y-69855900D01*
X113865312Y-69895606D01*
X113859282Y-69898291D01*
X113859281Y-69898291D01*
X113696878Y-69970597D01*
X113696876Y-69970598D01*
X113690848Y-69973282D01*
X113685507Y-69977162D01*
X113685506Y-69977163D01*
X113650874Y-70002325D01*
X113536347Y-70085534D01*
X113531926Y-70090444D01*
X113531925Y-70090445D01*
X113434537Y-70198606D01*
X113408560Y-70227456D01*
X113400384Y-70241618D01*
X113317717Y-70384801D01*
X113313073Y-70392844D01*
X113254058Y-70574472D01*
X113253368Y-70581033D01*
X113253368Y-70581035D01*
X113235327Y-70752690D01*
X113234096Y-70764400D01*
X69850597Y-70764400D01*
X69850599Y-60324482D01*
X69870601Y-60256361D01*
X69924257Y-60209868D01*
X69976596Y-60198482D01*
X98313069Y-60197767D01*
X101897672Y-60197676D01*
X101899430Y-60197688D01*
X101970710Y-60198685D01*
X102001640Y-60190108D01*
X102017432Y-60186802D01*
X102025071Y-60185708D01*
X102040313Y-60183525D01*
X102040314Y-60183525D01*
X102049199Y-60182252D01*
X102070279Y-60172667D01*
X102088754Y-60165952D01*
X102111071Y-60159763D01*
X102138344Y-60142854D01*
X102152581Y-60135245D01*
X102173619Y-60125678D01*
X102173620Y-60125677D01*
X102181793Y-60121961D01*
X102199334Y-60106846D01*
X102215189Y-60095210D01*
X102227242Y-60087737D01*
X102234866Y-60083010D01*
X102248323Y-60068012D01*
X102256295Y-60059128D01*
X102267828Y-60047825D01*
X102285335Y-60032740D01*
X102285338Y-60032737D01*
X102292136Y-60026879D01*
X102304733Y-60007443D01*
X102316678Y-59991834D01*
X102332143Y-59974598D01*
X102336020Y-59966508D01*
X102336024Y-59966501D01*
X102346008Y-59945664D01*
X102353901Y-59931585D01*
X102366472Y-59912188D01*
X102366475Y-59912182D01*
X102371357Y-59904649D01*
X102373928Y-59896053D01*
X102373929Y-59896050D01*
X102377991Y-59882465D01*
X102385079Y-59864120D01*
X102385486Y-59863270D01*
X102395083Y-59843241D01*
X102397051Y-59831223D01*
X102400269Y-59811577D01*
X102403894Y-59795845D01*
X102410516Y-59773699D01*
X102410516Y-59773697D01*
X102413088Y-59765097D01*
X102413181Y-59749907D01*
X102413229Y-59741944D01*
X102414884Y-59722346D01*
X102417174Y-59708362D01*
X102418626Y-59699498D01*
X102417532Y-59690586D01*
X102417532Y-59690582D01*
X102416021Y-59678275D01*
X102415227Y-59656885D01*
X102425515Y-59442495D01*
X102426076Y-59430794D01*
X106745114Y-59430794D01*
X106753943Y-59442414D01*
X106958770Y-59591230D01*
X106965450Y-59595470D01*
X107224034Y-59737628D01*
X107231169Y-59740985D01*
X107505546Y-59849619D01*
X107513037Y-59852053D01*
X107798859Y-59925439D01*
X107806630Y-59926921D01*
X108099370Y-59963903D01*
X108107260Y-59964400D01*
X108402340Y-59964400D01*
X108410230Y-59963903D01*
X108702970Y-59926921D01*
X108710741Y-59925439D01*
X108996563Y-59852053D01*
X109004054Y-59849619D01*
X109278431Y-59740985D01*
X109285566Y-59737628D01*
X109544150Y-59595470D01*
X109550830Y-59591230D01*
X109756030Y-59442144D01*
X109764453Y-59431221D01*
X109757549Y-59418360D01*
X108267610Y-57928420D01*
X108253669Y-57920808D01*
X108251834Y-57920939D01*
X108245220Y-57925190D01*
X106751727Y-59418684D01*
X106745114Y-59430794D01*
X102426076Y-59430794D01*
X102436264Y-59218488D01*
X102437150Y-59208441D01*
X102439159Y-59192850D01*
X102497219Y-58742098D01*
X102498909Y-58732145D01*
X102569529Y-58397948D01*
X102596122Y-58272103D01*
X102598600Y-58262333D01*
X102732333Y-57811555D01*
X102735585Y-57802015D01*
X102828912Y-57560358D01*
X105842288Y-57560358D01*
X105860815Y-57854836D01*
X105861808Y-57862697D01*
X105917096Y-58152528D01*
X105919067Y-58160205D01*
X106010246Y-58440824D01*
X106013161Y-58448187D01*
X106138793Y-58715170D01*
X106142605Y-58722103D01*
X106300709Y-58971235D01*
X106305363Y-58977641D01*
X106370321Y-59056161D01*
X106382840Y-59064617D01*
X106393578Y-59058411D01*
X107882780Y-57569210D01*
X107889157Y-57557531D01*
X108619208Y-57557531D01*
X108619339Y-57559366D01*
X108623590Y-57565980D01*
X110114919Y-59057308D01*
X110128181Y-59064550D01*
X110138285Y-59057362D01*
X110204237Y-58977641D01*
X110208891Y-58971235D01*
X110366995Y-58722103D01*
X110370807Y-58715170D01*
X110496439Y-58448187D01*
X110499354Y-58440824D01*
X110590533Y-58160205D01*
X110592504Y-58152528D01*
X110647792Y-57862697D01*
X110648785Y-57854836D01*
X110667312Y-57560358D01*
X110667312Y-57552442D01*
X110648785Y-57257964D01*
X110647792Y-57250103D01*
X110592504Y-56960272D01*
X110590533Y-56952595D01*
X110499354Y-56671976D01*
X110496439Y-56664613D01*
X110370807Y-56397630D01*
X110366995Y-56390697D01*
X110208891Y-56141565D01*
X110204237Y-56135159D01*
X110139279Y-56056639D01*
X110126760Y-56048183D01*
X110116022Y-56054389D01*
X108626820Y-57543590D01*
X108619208Y-57557531D01*
X107889157Y-57557531D01*
X107890392Y-57555269D01*
X107890261Y-57553434D01*
X107886010Y-57546820D01*
X106394681Y-56055492D01*
X106381419Y-56048250D01*
X106371315Y-56055438D01*
X106305363Y-56135159D01*
X106300709Y-56141565D01*
X106142605Y-56390697D01*
X106138793Y-56397630D01*
X106013161Y-56664613D01*
X106010246Y-56671976D01*
X105919067Y-56952595D01*
X105917096Y-56960272D01*
X105861808Y-57250103D01*
X105860815Y-57257964D01*
X105842288Y-57552442D01*
X105842288Y-57560358D01*
X102828912Y-57560358D01*
X102904978Y-57363398D01*
X102908985Y-57354142D01*
X103112957Y-56930481D01*
X103117694Y-56921574D01*
X103149494Y-56867158D01*
X103354919Y-56515628D01*
X103360358Y-56507122D01*
X103629329Y-56121462D01*
X103635432Y-56113419D01*
X103934408Y-55750542D01*
X103941135Y-55743013D01*
X104000622Y-55681579D01*
X106745147Y-55681579D01*
X106752051Y-55694440D01*
X108241990Y-57184380D01*
X108255931Y-57191992D01*
X108257766Y-57191861D01*
X108264380Y-57187610D01*
X109757873Y-55694116D01*
X109764486Y-55682006D01*
X109755657Y-55670386D01*
X109550830Y-55521570D01*
X109544150Y-55517330D01*
X109285566Y-55375172D01*
X109278431Y-55371815D01*
X109004054Y-55263181D01*
X108996563Y-55260747D01*
X108710741Y-55187361D01*
X108702970Y-55185879D01*
X108410230Y-55148897D01*
X108402340Y-55148400D01*
X108107260Y-55148400D01*
X108099370Y-55148897D01*
X107806630Y-55185879D01*
X107798859Y-55187361D01*
X107513037Y-55260747D01*
X107505546Y-55263181D01*
X107231169Y-55371815D01*
X107224034Y-55375172D01*
X106965450Y-55517330D01*
X106958770Y-55521570D01*
X106753570Y-55670656D01*
X106745147Y-55681579D01*
X104000622Y-55681579D01*
X104268218Y-55405226D01*
X104275526Y-55398261D01*
X104628584Y-55087762D01*
X104636427Y-55081403D01*
X105013236Y-54800151D01*
X105021562Y-54794441D01*
X105419659Y-54544272D01*
X105428415Y-54539247D01*
X105845273Y-54321750D01*
X105854404Y-54317442D01*
X106070871Y-54225730D01*
X106287349Y-54134013D01*
X106296774Y-54130458D01*
X106640736Y-54016245D01*
X106743012Y-53982284D01*
X106752713Y-53979489D01*
X106994885Y-53920110D01*
X107209370Y-53867519D01*
X107219257Y-53865511D01*
X107361552Y-53842504D01*
X107683420Y-53790462D01*
X107693443Y-53789252D01*
X108162126Y-53751606D01*
X108172214Y-53751201D01*
X108407301Y-53751202D01*
G37*
%TD.AperFunction*%
%TD*%
M02*
