M48
; DRILL file {KiCad 6.0.6-3a73a75311~116~ubuntu20.04.1} date Thu Jul 28 16:32:43 2022
; FORMAT={-:-/ absolute / inch / decimal}
; #@! TF.CreationDate,2022-07-28T16:32:43+08:00
; #@! TF.GenerationSoftware,Kicad,Pcbnew,6.0.6-3a73a75311~116~ubuntu20.04.1
; #@! TF.FileFunction,Plated,1,2,PTH
FMAT,2
INCH
; #@! TA.AperFunction,Plated,PTH,ViaDrill
T1C0.0157
; #@! TA.AperFunction,Plated,PTH,ComponentDrill
T2C0.0394
; #@! TA.AperFunction,Plated,PTH,ComponentDrill
T3C0.0866
%
G90
G05
T1
X3.172Y-2.886
X3.172Y-3.062
X3.334Y-2.886
X3.336Y-3.062
X3.472Y-3.138
X3.56Y-3.138
X4.272Y-3.27
X4.376Y-3.138
X4.45Y-3.138
X4.494Y-2.786
X4.506Y-3.066
X4.526Y-2.7265
X4.528Y-3.202
X4.546Y-2.942
X4.636Y-2.85
X4.638Y-3.5272
X4.644Y-2.636
X4.666Y-2.726
X4.868Y-3.524
X5.036Y-3.522
X5.072Y-3.4755
X5.118Y-3.448
X5.162Y-3.51
X5.21Y-3.448
X5.248Y-3.476
X5.292Y-3.5105
X5.4957Y-2.9097
X5.5337Y-3.1597
X5.534Y-3.21
X5.556Y-3.01
X5.6Y-2.862
X5.65Y-2.918
X5.69Y-3.002
X5.698Y-3.046
X5.71Y-2.8
X5.712Y-2.93
X5.784Y-3.508
X5.812Y-2.756
X5.832Y-2.972
X5.84Y-2.52
X5.858Y-2.568
X5.858Y-2.634
X5.86Y-2.802
X5.868Y-2.91
X5.92Y-3.04
X6.028Y-2.6537
X6.076Y-2.624
X6.318Y-2.856
X6.374Y-2.866
X6.39Y-2.984
X6.456Y-3.002
X6.498Y-3.458
T2
X5.775Y-3.1434
X5.775Y-3.2434
X5.775Y-3.3434
X7.269Y-3.3488
X7.269Y-3.4488
T3
X2.6454Y-3.26
X4.262Y-2.266
X5.906Y-2.2535
X7.5405Y-3.26
T0
M30
