M48
; DRILL file {KiCad 6.0.6-3a73a75311~116~ubuntu20.04.1} date Tue Jul  5 17:12:35 2022
; FORMAT={-:-/ absolute / inch / decimal}
; #@! TF.CreationDate,2022-07-05T17:12:35+08:00
; #@! TF.GenerationSoftware,Kicad,Pcbnew,6.0.6-3a73a75311~116~ubuntu20.04.1
; #@! TF.FileFunction,Plated,1,2,PTH
FMAT,2
INCH
; #@! TA.AperFunction,Plated,PTH,ViaDrill
T1C0.0157
; #@! TA.AperFunction,Plated,PTH,ComponentDrill
T2C0.0394
%
G90
G05
T1
X4.4Y-1.66
X4.47Y-1.912
X4.518Y-2.64
X4.52Y-2.452
X4.576Y-1.862
X4.662Y-2.456
X4.68Y-2.335
X4.75Y-2.4
X4.812Y-2.452
X4.822Y-2.638
X4.908Y-2.4
X5.054Y-2.4
X5.19Y-2.882
X5.19Y-2.985
X5.414Y-2.4
X5.418Y-1.68
X5.42Y-1.83
X5.42Y-1.928
X5.42Y-1.98
X5.422Y-2.23
X5.448Y-1.55
X5.606Y-2.4
X5.622Y-1.892
X5.642Y-1.65
X5.642Y-2.102
X5.644Y-1.474
X5.74Y-2.102
X5.748Y-1.534
X5.772Y-2.704
X5.774Y-2.872
X5.855Y-2.337
X5.856Y-2.104
X5.872Y-2.518
X5.914Y-1.59
X5.928Y-1.654
X5.94Y-1.868
X5.942Y-2.148
X5.952Y-1.914
X5.952Y-2.24
X5.962Y-1.626
X5.98Y-1.952
X6.0698Y-2.312
X6.112Y-2.692
X6.128Y-2.402
X6.16Y-2.962
X6.174Y-2.502
X6.316Y-1.836
X6.654Y-2.366
X6.696Y-2.206
X6.744Y-1.806
X6.744Y-1.906
X6.746Y-2.462
X6.746Y-2.754
X6.746Y-2.85
X6.746Y-2.962
X6.834Y-3.516
X6.834Y-3.708
X6.848Y-2.142
X6.895Y-2.03
X6.895Y-2.25
X6.948Y-3.25
X6.948Y-3.422
X7.048Y-1.806
X7.048Y-1.906
X7.074Y-3.62
T2
X4.1694Y-1.39
X4.18Y-1.6398
X4.18Y-1.7398
X4.2694Y-1.39
X4.3694Y-1.39
X4.475Y-2.87
X4.575Y-2.87
X4.7702Y-2.87
X4.8702Y-2.87
X5.224Y-2.54
X5.324Y-2.54
X5.424Y-2.54
X5.524Y-2.54
X5.6944Y-1.39
X5.748Y-1.632
X5.748Y-1.732
X5.748Y-1.832
X5.7944Y-1.39
X5.8944Y-1.39
X6.6848Y-1.595
X6.71Y-3.3398
X6.71Y-3.4398
X6.71Y-3.6448
X6.71Y-3.7448
X6.71Y-3.98
X6.71Y-4.08
X6.7848Y-1.595
X6.9998Y-1.595
X7.0998Y-1.595
T0
M30
